{"glyphs":{"0":{"ha":399,"x_min":49,"x_max":349,"o":"m 199 6 l 199 6 q 142 6 109 -39 q 76 -84 63 -166 q 49 -248 49 -358 l 49 -358 q 49 -473 63 -555 q 76 -637 109 -680 q 142 -724 199 -724 l 199 -724 q 257 -724 290 -679 q 322 -634 336 -552 q 349 -470 349 -360 l 349 -360 q 349 -274 342 -206 q 334 -138 317 -90 q 300 -43 271 -18 q 242 6 199 6 z m 199 -20 l 199 -20 q 235 -20 259 -44 q 283 -69 297 -114 q 311 -160 317 -222 q 323 -284 323 -359 l 323 -359 q 323 -432 317 -493 q 311 -555 297 -601 q 282 -647 259 -672 q 235 -698 199 -698 l 199 -698 q 163 -698 139 -673 q 115 -649 101 -603 q 87 -558 81 -496 q 75 -434 75 -359 l 75 -359 q 75 -286 81 -224 q 87 -162 102 -116 q 116 -71 140 -45 q 163 -20 199 -20 z"},"1":{"ha":399,"x_min":66,"x_max":248,"o":"m 248 -714 l 248 0 l 222 0 l 222 -569 q 222 -601 222 -625 q 222 -650 223 -683 l 223 -683 q 213 -670 204 -659 q 194 -648 183 -637 l 183 -637 l 85 -535 l 66 -553 l 225 -714 l 248 -714 z"},"2":{"ha":399,"x_min":37,"x_max":347,"o":"m 347 0 l 37 0 l 37 -21 l 188 -254 q 222 -307 249 -353 q 275 -399 290 -445 q 305 -491 305 -543 l 305 -543 q 305 -598 286 -632 q 267 -666 237 -682 q 206 -698 170 -698 l 170 -698 q 131 -698 104 -685 q 76 -673 54 -659 l 54 -659 l 39 -681 q 57 -693 78 -702 q 98 -712 122 -718 q 146 -724 173 -724 l 173 -724 q 216 -724 252 -703 q 288 -683 310 -643 q 332 -604 332 -545 l 332 -545 q 332 -486 315 -435 q 298 -385 271 -337 q 243 -290 210 -239 l 210 -239 l 72 -27 l 72 -26 l 346 -26 l 347 0 z"},"3":{"ha":399,"x_min":21,"x_max":334,"o":"m 158 10 l 158 10 q 128 10 91 5 q 54 0 22 -13 l 22 -13 l 22 -41 q 50 -30 81 -23 q 112 -16 156 -16 l 156 -16 q 229 -16 268 -60 q 307 -105 307 -191 l 307 -191 q 307 -252 284 -288 q 260 -325 220 -341 q 179 -357 129 -357 l 129 -357 l 94 -357 l 94 -383 l 135 -383 q 185 -383 222 -405 q 258 -428 278 -466 q 298 -504 298 -552 l 298 -552 q 298 -626 264 -662 q 230 -698 172 -698 l 172 -698 q 130 -698 98 -683 q 65 -669 35 -648 l 35 -648 l 21 -670 q 59 -697 96 -710 q 132 -724 173 -724 l 173 -724 q 219 -724 253 -704 q 287 -685 306 -647 q 325 -610 325 -556 l 325 -556 q 325 -501 307 -464 q 289 -427 261 -404 q 233 -382 201 -371 l 201 -371 l 201 -369 q 261 -358 298 -313 q 334 -269 334 -189 l 334 -189 q 334 -129 314 -84 q 294 -40 255 -15 q 216 10 158 10 z"},"4":{"ha":399,"x_min":21,"x_max":382,"o":"m 297 0 l 271 0 l 271 -176 l 21 -176 l 21 -201 l 269 -718 l 297 -718 l 297 -202 l 382 -202 l 382 -176 l 297 -176 l 297 0 z m 228 -572 l 50 -202 l 271 -202 l 271 -610 q 271 -623 271 -632 q 271 -641 272 -650 q 272 -659 272 -670 l 272 -670 l 271 -670 q 261 -644 250 -619 q 239 -595 228 -572 l 228 -572 z"},"5":{"ha":399,"x_min":47,"x_max":351,"o":"m 161 9 l 161 9 q 128 9 99 4 q 70 -2 47 -11 l 47 -11 l 47 -40 q 68 -30 95 -23 q 121 -17 161 -17 l 161 -17 q 220 -17 256 -43 q 291 -70 308 -116 q 324 -162 324 -221 l 324 -221 q 324 -302 292 -350 q 259 -399 179 -399 l 179 -399 q 149 -399 120 -393 q 90 -387 71 -379 l 71 -379 l 55 -394 l 78 -714 l 313 -714 l 313 -688 l 103 -688 l 83 -410 q 100 -416 126 -420 q 152 -425 184 -425 l 184 -425 q 243 -425 280 -399 q 316 -373 334 -327 q 351 -281 351 -221 l 351 -221 q 351 -155 331 -103 q 311 -51 269 -21 q 227 9 161 9 z"},"6":{"ha":399,"x_min":52,"x_max":353,"o":"m 207 10 l 207 10 q 165 10 136 -9 q 106 -29 88 -68 q 69 -108 61 -168 q 52 -229 52 -311 l 52 -311 q 52 -406 63 -475 q 73 -545 93 -593 q 112 -641 139 -669 q 165 -698 198 -711 q 230 -724 266 -724 l 266 -724 q 280 -724 296 -722 q 311 -721 327 -717 l 327 -717 l 327 -691 q 312 -695 295 -696 q 278 -698 265 -698 l 265 -698 q 203 -698 162 -656 q 121 -615 101 -534 q 80 -454 78 -338 l 78 -338 l 79 -338 q 86 -360 102 -383 q 117 -407 143 -423 q 169 -440 209 -440 l 209 -440 q 259 -440 291 -414 q 323 -388 338 -339 q 353 -290 353 -221 l 353 -221 q 353 -147 336 -95 q 318 -43 285 -16 q 252 10 207 10 z m 205 -16 l 205 -16 q 264 -16 295 -69 q 326 -123 326 -223 l 326 -223 q 326 -308 300 -361 q 274 -414 209 -414 l 209 -414 q 171 -414 142 -393 q 113 -373 97 -335 q 81 -298 81 -248 l 81 -248 q 81 -215 86 -175 q 90 -135 103 -98 q 116 -62 141 -39 q 165 -16 205 -16 z"},"7":{"ha":399,"x_min":26,"x_max":362,"o":"m 123 0 l 95 0 l 333 -688 l 26 -688 l 26 -714 l 362 -714 l 362 -692 l 123 0 z"},"8":{"ha":399,"x_min":39,"x_max":360,"o":"m 202 10 l 202 10 q 152 10 115 -13 q 78 -36 59 -76 q 39 -117 39 -170 l 39 -170 q 39 -223 58 -261 q 76 -300 107 -328 q 138 -357 175 -379 l 175 -379 q 140 -403 113 -430 q 86 -457 71 -490 q 56 -524 56 -565 l 56 -565 q 56 -612 74 -647 q 92 -683 125 -703 q 158 -723 204 -723 l 204 -723 q 249 -723 281 -703 q 312 -683 329 -648 q 345 -613 345 -566 l 345 -566 q 345 -516 329 -482 q 313 -449 286 -424 q 258 -400 222 -378 l 222 -378 q 262 -351 293 -322 q 324 -293 342 -257 q 360 -221 360 -172 l 360 -172 q 360 -120 341 -79 q 322 -38 287 -14 q 252 10 202 10 z m 201 -16 l 201 -16 q 263 -16 298 -59 q 333 -102 333 -170 l 333 -170 q 333 -204 322 -235 q 310 -267 284 -297 q 257 -328 212 -356 l 212 -356 l 198 -365 q 163 -346 133 -319 q 103 -292 85 -255 q 66 -219 66 -169 l 66 -169 q 66 -96 105 -56 q 143 -16 201 -16 z m 200 -391 l 200 -391 q 236 -414 263 -436 q 289 -459 304 -489 q 318 -520 318 -565 l 318 -565 q 318 -627 289 -662 q 259 -697 203 -697 l 203 -697 q 146 -697 115 -661 q 83 -625 83 -563 l 83 -563 q 83 -527 97 -497 q 110 -467 136 -441 q 162 -416 200 -391 z"},"9":{"ha":399,"x_min":46,"x_max":347,"o":"m 135 10 l 135 10 q 122 10 106 9 q 89 7 76 3 l 76 3 l 76 -23 q 88 -19 104 -17 q 120 -16 135 -16 l 135 -16 q 183 -16 218 -39 q 252 -62 275 -107 q 298 -153 310 -220 q 321 -288 321 -376 l 321 -376 l 320 -376 q 314 -354 299 -330 q 283 -307 257 -290 q 230 -274 190 -274 l 190 -274 q 140 -274 108 -300 q 76 -326 61 -375 q 46 -425 46 -493 l 46 -493 q 46 -568 64 -619 q 82 -671 115 -697 q 147 -724 192 -724 l 192 -724 q 234 -724 264 -704 q 293 -685 312 -645 q 330 -606 339 -545 q 347 -485 347 -403 l 347 -403 q 347 -307 337 -237 q 327 -167 308 -119 q 289 -72 263 -43 q 236 -15 204 -2 q 172 10 135 10 z m 190 -300 l 190 -300 q 229 -300 258 -320 q 286 -341 302 -378 q 318 -416 318 -466 l 318 -466 q 318 -499 314 -539 q 309 -579 296 -615 q 283 -652 259 -675 q 234 -698 194 -698 l 194 -698 q 135 -698 104 -645 q 73 -592 73 -491 l 73 -491 q 73 -406 99 -353 q 125 -300 190 -300 z"},"\r":{"ha":221,"x_min":0,"x_max":0,"o":""}," ":{"ha":221,"x_min":0,"x_max":0,"o":""},"ഀ":{"ha":0,"x_min":-380,"x_max":-178,"o":"m -380 -728 l -380 -728 q -380 -794 -351 -829 q -323 -864 -279 -864 l -279 -864 q -235 -864 -206 -829 q -178 -794 -178 -728 l -178 -728 q -178 -662 -206 -627 q -235 -592 -278 -592 l -278 -592 q -323 -592 -351 -627 q -380 -662 -380 -728 z m -353 -728 l -353 -728 q -353 -675 -333 -646 q -314 -617 -279 -617 l -279 -617 q -244 -617 -224 -646 q -205 -675 -205 -728 l -205 -728 q -205 -781 -224 -810 q -244 -839 -279 -839 l -279 -839 q -314 -839 -333 -810 q -353 -781 -353 -728 z"},"ഁ":{"ha":0,"x_min":-394,"x_max":-162,"o":"m -279 -672 l -279 -672 q -328 -672 -361 -703 q -394 -734 -394 -807 l -394 -807 q -394 -818 -392 -832 q -391 -847 -388 -859 l -388 -859 l -363 -855 q -365 -845 -366 -831 q -368 -818 -368 -807 l -368 -807 q -368 -769 -358 -744 q -348 -720 -328 -709 q -308 -698 -279 -698 l -279 -698 q -248 -698 -228 -710 q -208 -723 -198 -747 q -188 -772 -188 -807 l -188 -807 q -188 -818 -189 -832 q -191 -846 -193 -856 l -193 -856 l -168 -860 q -165 -847 -163 -833 q -162 -820 -162 -808 l -162 -808 q -162 -735 -196 -703 q -230 -672 -279 -672 z m -278 -779 l -278 -779 q -294 -779 -299 -788 q -304 -797 -304 -810 l -304 -810 q -304 -822 -299 -831 q -294 -841 -278 -841 l -278 -841 q -261 -841 -256 -831 q -252 -822 -252 -810 l -252 -810 q -252 -797 -256 -788 q -261 -779 -278 -779 z"},"ം":{"ha":322,"x_min":36,"x_max":286,"o":"m 161 12 l 161 12 q 121 12 94 -8 q 66 -29 51 -68 q 36 -108 36 -166 l 36 -166 q 36 -224 51 -263 q 66 -303 94 -323 q 122 -344 162 -344 l 162 -344 q 200 -344 228 -324 q 256 -304 271 -265 q 286 -226 286 -167 l 286 -167 q 286 -109 271 -69 q 256 -29 228 -8 q 200 12 161 12 z m 162 -318 l 162 -318 q 114 -318 89 -280 q 63 -242 63 -166 l 63 -166 q 63 -90 88 -52 q 113 -14 161 -14 l 161 -14 q 208 -14 234 -52 q 259 -91 259 -167 l 259 -167 q 259 -242 234 -280 q 209 -318 162 -318 z"},"ഃ":{"ha":248,"x_min":34,"x_max":214,"o":"m 34 -434 l 34 -434 q 34 -494 59 -526 q 84 -558 124 -558 l 124 -558 q 164 -558 189 -526 q 214 -494 214 -434 l 214 -434 q 214 -374 189 -342 q 164 -310 124 -310 l 124 -310 q 84 -310 59 -342 q 34 -374 34 -434 z m 61 -434 l 61 -434 q 61 -385 78 -360 q 95 -335 124 -335 l 124 -335 q 153 -335 170 -360 q 187 -385 187 -434 l 187 -434 q 187 -483 170 -508 q 153 -533 124 -533 l 124 -533 q 95 -533 78 -508 q 61 -483 61 -434 z m 34 -112 l 34 -112 q 34 -172 59 -204 q 84 -236 124 -236 l 124 -236 q 164 -236 189 -204 q 214 -172 214 -112 l 214 -112 q 214 -52 189 -20 q 164 12 124 12 l 124 12 q 84 12 59 -20 q 34 -52 34 -112 z m 61 -112 l 61 -112 q 61 -63 78 -38 q 95 -13 124 -13 l 124 -13 q 153 -13 170 -38 q 187 -63 187 -112 l 187 -112 q 187 -161 170 -186 q 153 -211 124 -211 l 124 -211 q 95 -211 78 -186 q 61 -161 61 -112 z"},"ഄ":{"ha":433,"x_min":40,"x_max":393,"o":"m 52 -303 l 52 -303 l 78 -298 q 73 -272 70 -248 q 67 -224 67 -198 l 67 -198 q 67 -113 100 -65 q 133 -17 216 -17 l 216 -17 q 299 -17 333 -65 q 366 -113 366 -197 l 366 -197 q 366 -223 364 -247 q 361 -272 355 -298 l 355 -298 l 381 -303 q 386 -281 390 -253 q 393 -226 393 -197 l 393 -197 q 393 -135 376 -88 q 358 -42 319 -16 q 280 9 216 9 l 216 9 q 153 9 114 -16 q 75 -42 58 -88 q 40 -135 40 -197 l 40 -197 q 40 -226 44 -253 q 47 -281 52 -303 z m 204 -158 l 204 -390 l 230 -390 l 230 -158 l 204 -158 z"},"അ":{"ha":1045,"x_min":42,"x_max":1003,"o":"m 271 -558 l 271 -558 q 301 -558 331 -552 q 360 -547 386 -533 l 386 -533 q 388 -532 391 -531 q 393 -530 395 -528 l 395 -528 q 422 -514 443 -492 q 463 -470 475 -440 q 486 -411 486 -374 l 486 -374 q 486 -338 475 -311 q 463 -284 438 -267 q 413 -251 370 -245 l 370 -245 l 370 -254 q 429 -249 462 -215 q 494 -181 494 -121 l 494 -121 q 494 -78 479 -48 q 463 -18 436 -3 q 409 12 374 12 l 374 12 q 326 12 294 -15 q 261 -42 245 -95 q 228 -148 228 -226 l 228 -226 q 228 -281 240 -336 q 252 -392 280 -440 q 307 -488 351 -517 l 351 -517 q 354 -519 357 -522 q 360 -525 363 -527 l 363 -527 q 387 -542 413 -550 q 439 -558 470 -558 l 470 -558 q 526 -558 562 -536 q 598 -515 617 -476 q 635 -438 637 -386 l 637 -386 l 646 -306 l 646 0 l 620 0 l 620 -305 q 620 -384 609 -427 q 598 -470 572 -495 l 572 -495 q 554 -513 528 -522 q 502 -532 467 -532 l 467 -532 q 442 -532 423 -527 q 404 -522 387 -513 l 387 -513 q 352 -495 327 -463 q 302 -432 286 -392 q 270 -353 263 -310 q 255 -268 255 -227 l 255 -227 q 255 -124 283 -69 q 310 -14 374 -14 l 374 -14 q 418 -14 443 -40 q 467 -67 467 -122 l 467 -122 q 467 -170 438 -203 q 409 -237 350 -237 l 350 -237 l 345 -237 l 345 -263 l 348 -263 q 407 -263 433 -294 q 459 -326 459 -374 l 459 -374 q 459 -428 433 -463 q 407 -498 368 -514 l 368 -514 q 346 -525 322 -528 q 298 -532 272 -532 l 272 -532 q 200 -532 155 -499 q 110 -466 90 -411 q 69 -356 69 -291 l 69 -291 q 69 -222 84 -170 q 98 -119 123 -81 q 147 -43 175 -12 l 175 -12 l 156 6 q 131 -22 105 -60 q 78 -99 60 -155 q 42 -212 42 -291 l 42 -291 q 42 -348 57 -396 q 71 -445 100 -481 q 128 -517 171 -537 q 214 -558 271 -558 z m 875 12 l 875 12 q 831 12 803 -12 q 775 -36 762 -81 q 749 -127 749 -189 l 749 -189 q 749 -288 785 -334 q 820 -380 877 -380 l 877 -380 q 908 -380 931 -368 q 953 -356 970 -336 q 986 -317 996 -295 l 996 -295 l 991 -271 q 978 -294 963 -312 q 948 -331 928 -342 q 908 -354 879 -354 l 879 -354 q 826 -354 801 -312 q 776 -270 776 -188 l 776 -188 q 776 -134 786 -95 q 795 -56 817 -35 q 839 -14 876 -14 l 876 -14 q 907 -14 930 -34 q 952 -54 965 -102 q 977 -151 977 -236 l 977 -236 q 977 -253 977 -275 q 976 -298 974 -306 l 974 -306 q 975 -308 976 -309 q 976 -310 975 -314 l 975 -314 q 966 -370 945 -420 q 924 -470 886 -501 q 847 -532 784 -532 l 784 -532 q 753 -532 732 -524 q 711 -517 695 -503 l 695 -503 q 680 -490 669 -468 q 658 -447 652 -415 q 646 -384 646 -338 l 646 -338 l 646 -262 l 625 -385 q 629 -446 650 -484 q 670 -522 705 -540 q 739 -558 784 -558 l 784 -558 q 839 -558 880 -535 q 921 -512 949 -469 q 976 -426 990 -367 q 1003 -308 1003 -236 l 1003 -236 q 1003 -139 987 -85 q 970 -31 942 -9 q 913 12 875 12 z"},"ആ":{"ha":1144,"x_min":42,"x_max":1117,"o":"m 271 -558 l 271 -558 q 301 -558 331 -552 q 360 -547 386 -533 l 386 -533 q 388 -532 391 -531 q 393 -530 395 -528 l 395 -528 q 422 -514 443 -492 q 463 -470 475 -440 q 486 -411 486 -374 l 486 -374 q 486 -338 475 -311 q 463 -284 438 -267 q 413 -251 370 -245 l 370 -245 l 370 -254 q 429 -249 462 -215 q 494 -181 494 -121 l 494 -121 q 494 -78 479 -48 q 463 -18 436 -3 q 409 12 374 12 l 374 12 q 326 12 294 -15 q 261 -42 245 -95 q 228 -148 228 -226 l 228 -226 q 228 -281 240 -336 q 252 -392 280 -440 q 307 -488 351 -517 l 351 -517 q 354 -519 357 -522 q 360 -525 363 -527 l 363 -527 q 387 -542 413 -550 q 439 -558 470 -558 l 470 -558 q 526 -558 562 -536 q 598 -515 617 -476 q 635 -438 637 -386 l 637 -386 l 646 -306 l 646 0 l 620 0 l 620 -305 q 620 -384 609 -427 q 598 -470 572 -495 l 572 -495 q 554 -513 528 -522 q 502 -532 467 -532 l 467 -532 q 442 -532 423 -527 q 404 -522 387 -513 l 387 -513 q 352 -495 327 -463 q 302 -432 286 -392 q 270 -353 263 -310 q 255 -268 255 -227 l 255 -227 q 255 -124 283 -69 q 310 -14 374 -14 l 374 -14 q 418 -14 443 -40 q 467 -67 467 -122 l 467 -122 q 467 -170 438 -203 q 409 -237 350 -237 l 350 -237 l 345 -237 l 345 -263 l 348 -263 q 407 -263 433 -294 q 459 -326 459 -374 l 459 -374 q 459 -428 433 -463 q 407 -498 368 -514 l 368 -514 q 346 -525 322 -528 q 298 -532 272 -532 l 272 -532 q 200 -532 155 -499 q 110 -466 90 -411 q 69 -356 69 -291 l 69 -291 q 69 -222 84 -170 q 98 -119 123 -81 q 147 -43 175 -12 l 175 -12 l 156 6 q 131 -22 105 -60 q 78 -99 60 -155 q 42 -212 42 -291 l 42 -291 q 42 -348 57 -396 q 71 -445 100 -481 q 128 -517 171 -537 q 214 -558 271 -558 z m 782 -558 l 782 -558 q 847 -558 888 -526 q 928 -494 951 -443 q 974 -393 983 -337 l 983 -337 q 988 -309 990 -279 q 992 -250 992 -224 l 992 -224 q 992 -135 974 -83 q 956 -32 926 -10 q 896 12 859 12 l 859 12 q 816 12 790 -12 q 764 -36 753 -75 q 742 -114 742 -159 l 742 -159 q 742 -256 790 -306 q 838 -357 919 -357 l 919 -357 q 930 -357 941 -355 q 951 -354 961 -352 l 961 -352 l 974 -350 q 1024 -335 1056 -294 q 1087 -254 1102 -199 q 1117 -144 1117 -84 l 1117 -84 q 1117 -15 1102 39 q 1087 92 1058 128 q 1029 164 987 183 q 944 201 889 201 l 889 201 q 865 201 842 198 q 818 194 792 186 l 792 186 l 800 161 q 819 167 841 171 q 862 175 888 175 l 888 175 q 941 175 980 157 q 1018 139 1043 106 q 1067 72 1079 24 q 1090 -24 1090 -85 l 1090 -85 q 1090 -132 1079 -181 q 1068 -230 1043 -268 q 1018 -307 976 -323 l 976 -323 l 963 -326 q 953 -328 943 -329 q 933 -331 922 -331 l 922 -331 q 877 -331 843 -314 q 808 -297 789 -259 q 769 -222 769 -160 l 769 -160 q 769 -122 777 -88 q 784 -55 804 -34 q 824 -14 860 -14 l 860 -14 q 913 -14 939 -66 q 965 -118 965 -224 l 965 -224 q 965 -250 964 -278 q 962 -306 957 -334 l 957 -334 l 955 -345 q 946 -393 926 -436 q 906 -479 871 -505 q 836 -532 781 -532 l 781 -532 q 753 -532 732 -524 q 711 -517 695 -503 l 695 -503 q 680 -490 669 -468 q 658 -447 652 -415 q 646 -384 646 -338 l 646 -338 l 646 -262 l 627 -386 q 631 -447 652 -485 q 672 -523 706 -540 q 739 -558 782 -558 z"},"ഇ":{"ha":678,"x_min":40,"x_max":636,"o":"m 225 -558 l 225 -558 q 271 -558 302 -541 q 332 -524 350 -492 q 368 -460 373 -413 l 373 -413 l 366 -423 q 377 -494 408 -526 q 438 -558 487 -558 l 487 -558 q 525 -558 553 -537 q 580 -517 599 -481 q 618 -446 627 -400 q 636 -355 636 -305 l 636 -305 q 636 -226 618 -161 q 600 -96 555 -57 l 555 -57 q 531 -37 501 -24 q 471 -11 430 -5 q 388 0 327 0 l 327 0 l 222 0 q 171 0 140 6 q 109 11 91 30 l 91 30 q 82 40 77 54 q 72 68 72 86 l 72 86 q 72 108 80 124 q 87 139 100 150 l 100 150 q 117 163 145 169 q 172 175 218 175 l 218 175 l 624 175 l 624 201 l 211 201 q 166 201 137 194 q 107 187 84 170 l 84 170 q 65 156 55 135 q 45 114 45 86 l 45 86 q 45 63 52 45 q 59 26 72 13 l 72 13 q 86 -1 105 -9 q 123 -18 151 -22 q 178 -26 219 -26 l 219 -26 l 328 -26 q 388 -26 427 -31 q 466 -37 493 -48 q 519 -59 539 -77 l 539 -77 q 577 -110 593 -170 q 609 -230 609 -304 l 609 -304 q 609 -363 596 -415 q 583 -467 556 -499 q 529 -532 486 -532 l 486 -532 q 465 -532 450 -525 q 435 -518 423 -505 l 423 -505 q 401 -480 392 -440 q 382 -400 382 -335 l 382 -335 l 382 -109 l 356 -109 l 356 -325 q 356 -395 347 -437 q 337 -479 310 -504 l 310 -504 q 296 -518 276 -525 q 255 -532 224 -532 l 224 -532 q 185 -532 157 -514 q 128 -497 110 -468 q 91 -439 81 -405 q 71 -372 68 -340 l 68 -340 q 67 -338 67 -334 q 67 -331 67 -329 l 67 -329 q 66 -324 66 -316 q 66 -308 66 -300 l 66 -300 q 66 -215 87 -171 q 107 -128 154 -128 l 154 -128 q 190 -128 209 -159 q 227 -191 227 -249 l 227 -249 q 227 -279 220 -304 q 213 -329 197 -344 q 181 -359 153 -359 l 153 -359 q 124 -359 100 -344 q 76 -329 54 -303 l 54 -303 l 46 -325 q 61 -344 77 -357 q 93 -370 112 -377 q 131 -385 154 -385 l 154 -385 q 188 -385 210 -366 q 232 -348 243 -317 q 254 -287 254 -249 l 254 -249 q 254 -202 242 -169 q 230 -136 208 -119 q 186 -102 156 -102 l 156 -102 q 119 -102 93 -123 q 67 -144 54 -188 q 40 -232 40 -301 l 40 -301 q 40 -369 61 -427 q 82 -486 123 -522 q 164 -558 225 -558 z"},"ഈ":{"ha":1212,"x_min":40,"x_max":1167,"o":"m 225 -558 l 225 -558 q 271 -558 302 -541 q 332 -524 350 -492 q 368 -460 373 -413 l 373 -413 l 366 -423 q 377 -494 408 -526 q 438 -558 487 -558 l 487 -558 q 525 -558 553 -537 q 580 -517 599 -481 q 618 -446 627 -400 q 636 -355 636 -305 l 636 -305 q 636 -226 618 -161 q 600 -96 555 -57 l 555 -57 q 531 -37 501 -24 q 471 -11 430 -5 q 388 0 327 0 l 327 0 l 222 0 q 171 0 140 6 q 109 11 91 30 l 91 30 q 82 40 77 54 q 72 68 72 86 l 72 86 q 72 108 80 124 q 87 139 100 150 l 100 150 q 117 163 145 169 q 172 175 218 175 l 218 175 l 624 175 l 624 201 l 211 201 q 166 201 137 194 q 107 187 84 170 l 84 170 q 65 156 55 135 q 45 114 45 86 l 45 86 q 45 63 52 45 q 59 26 72 13 l 72 13 q 86 -1 105 -9 q 123 -18 151 -22 q 178 -26 219 -26 l 219 -26 l 328 -26 q 388 -26 427 -31 q 466 -37 493 -48 q 519 -59 539 -77 l 539 -77 q 577 -110 593 -170 q 609 -230 609 -304 l 609 -304 q 609 -363 596 -415 q 583 -467 556 -499 q 529 -532 486 -532 l 486 -532 q 465 -532 450 -525 q 435 -518 423 -505 l 423 -505 q 401 -480 392 -440 q 382 -400 382 -335 l 382 -335 l 382 -109 l 356 -109 l 356 -325 q 356 -395 347 -437 q 337 -479 310 -504 l 310 -504 q 296 -518 276 -525 q 255 -532 224 -532 l 224 -532 q 185 -532 157 -514 q 128 -497 110 -468 q 91 -439 81 -405 q 71 -372 68 -340 l 68 -340 q 67 -338 67 -334 q 67 -331 67 -329 l 67 -329 q 66 -324 66 -316 q 66 -308 66 -300 l 66 -300 q 66 -215 87 -171 q 107 -128 154 -128 l 154 -128 q 190 -128 209 -159 q 227 -191 227 -249 l 227 -249 q 227 -279 220 -304 q 213 -329 197 -344 q 181 -359 153 -359 l 153 -359 q 124 -359 100 -344 q 76 -329 54 -303 l 54 -303 l 46 -325 q 61 -344 77 -357 q 93 -370 112 -377 q 131 -385 154 -385 l 154 -385 q 188 -385 210 -366 q 232 -348 243 -317 q 254 -287 254 -249 l 254 -249 q 254 -202 242 -169 q 230 -136 208 -119 q 186 -102 156 -102 l 156 -102 q 119 -102 93 -123 q 67 -144 54 -188 q 40 -232 40 -301 l 40 -301 q 40 -369 61 -427 q 82 -486 123 -522 q 164 -558 225 -558 z m 1039 -558 l 1039 -558 q 1079 -558 1108 -529 q 1136 -500 1152 -443 q 1167 -386 1167 -302 l 1167 -302 q 1167 -198 1149 -128 q 1130 -58 1085 -23 q 1040 12 962 12 l 962 12 q 931 12 898 6 q 865 0 829 -18 l 829 -18 l 841 -41 q 873 -26 900 -20 q 926 -14 962 -14 l 962 -14 q 1033 -14 1072 -46 q 1110 -78 1125 -142 q 1140 -206 1140 -302 l 1140 -302 q 1140 -418 1113 -475 q 1085 -532 1038 -532 l 1038 -532 q 1017 -532 1003 -522 q 989 -513 979 -497 l 979 -497 q 962 -468 957 -430 q 952 -393 952 -352 l 952 -352 l 952 -256 l 926 -256 l 926 -356 q 926 -407 920 -441 q 914 -475 900 -497 l 900 -497 q 890 -514 875 -523 q 859 -532 837 -532 l 837 -532 q 791 -532 768 -492 q 744 -453 744 -393 l 744 -393 q 744 -358 749 -324 q 753 -291 761 -258 l 761 -258 l 736 -253 q 728 -286 723 -319 q 717 -353 717 -395 l 717 -395 q 717 -442 732 -478 q 746 -515 773 -536 q 800 -558 837 -558 l 837 -558 q 877 -558 906 -531 q 934 -504 942 -437 l 942 -437 l 936 -437 q 944 -499 972 -528 q 999 -558 1039 -558 z"},"ഉ":{"ha":482,"x_min":40,"x_max":440,"o":"m 244 -558 l 244 -558 q 291 -558 328 -538 q 364 -519 389 -483 q 414 -447 427 -396 q 440 -346 440 -284 l 440 -284 q 440 -205 428 -152 q 415 -99 385 -64 l 385 -64 q 367 -43 342 -28 q 316 -14 282 -7 q 248 0 202 0 l 202 0 l 196 0 q 165 1 137 6 q 109 11 91 30 l 91 30 q 82 40 77 54 q 72 68 72 86 l 72 86 q 72 108 80 124 q 87 139 100 150 l 100 150 q 117 163 145 169 q 172 175 218 175 l 218 175 l 427 175 l 427 201 l 211 201 q 166 201 137 194 q 107 187 84 170 l 84 170 q 65 156 55 135 q 45 114 45 86 l 45 86 q 45 63 52 45 q 59 26 72 13 l 72 13 q 93 -8 124 -16 q 155 -25 203 -26 l 203 -26 l 205 -26 q 248 -27 278 -33 q 307 -39 328 -50 q 349 -62 364 -80 l 364 -80 q 393 -112 403 -163 q 413 -215 413 -285 l 413 -285 q 413 -341 402 -386 q 391 -431 370 -464 q 349 -497 318 -514 q 286 -532 245 -532 l 245 -532 q 199 -532 167 -514 q 134 -497 113 -468 q 92 -440 82 -406 q 71 -373 68 -340 l 68 -340 q 67 -338 67 -334 q 67 -331 67 -329 l 67 -329 q 66 -324 66 -316 q 66 -308 66 -300 l 66 -300 q 66 -215 87 -171 q 107 -128 154 -128 l 154 -128 q 190 -128 209 -159 q 227 -191 227 -249 l 227 -249 q 227 -279 220 -304 q 213 -329 197 -344 q 181 -359 153 -359 l 153 -359 q 124 -359 100 -344 q 76 -329 54 -303 l 54 -303 l 46 -325 q 61 -344 77 -357 q 93 -370 112 -377 q 131 -385 154 -385 l 154 -385 q 188 -385 210 -366 q 232 -348 243 -317 q 254 -287 254 -249 l 254 -249 q 254 -202 242 -169 q 230 -136 208 -119 q 186 -102 156 -102 l 156 -102 q 119 -102 93 -123 q 67 -144 54 -188 q 40 -232 40 -301 l 40 -301 q 40 -353 53 -399 q 65 -445 91 -481 q 116 -517 154 -537 q 192 -558 244 -558 z"},"ഊ":{"ha":1016,"x_min":40,"x_max":971,"o":"m 244 -558 l 244 -558 q 291 -558 328 -538 q 364 -519 389 -483 q 414 -447 427 -396 q 440 -346 440 -284 l 440 -284 q 440 -205 428 -152 q 415 -99 385 -64 l 385 -64 q 367 -43 342 -28 q 316 -14 282 -7 q 248 0 202 0 l 202 0 l 196 0 q 165 1 137 6 q 109 11 91 30 l 91 30 q 82 40 77 54 q 72 68 72 86 l 72 86 q 72 108 80 124 q 87 139 100 150 l 100 150 q 117 163 145 169 q 172 175 218 175 l 218 175 l 427 175 l 427 201 l 211 201 q 166 201 137 194 q 107 187 84 170 l 84 170 q 65 156 55 135 q 45 114 45 86 l 45 86 q 45 63 52 45 q 59 26 72 13 l 72 13 q 93 -8 124 -16 q 155 -25 203 -26 l 203 -26 l 205 -26 q 248 -27 278 -33 q 307 -39 328 -50 q 349 -62 364 -80 l 364 -80 q 393 -112 403 -163 q 413 -215 413 -285 l 413 -285 q 413 -341 402 -386 q 391 -431 370 -464 q 349 -497 318 -514 q 286 -532 245 -532 l 245 -532 q 199 -532 167 -514 q 134 -497 113 -468 q 92 -440 82 -406 q 71 -373 68 -340 l 68 -340 q 67 -338 67 -334 q 67 -331 67 -329 l 67 -329 q 66 -324 66 -316 q 66 -308 66 -300 l 66 -300 q 66 -215 87 -171 q 107 -128 154 -128 l 154 -128 q 190 -128 209 -159 q 227 -191 227 -249 l 227 -249 q 227 -279 220 -304 q 213 -329 197 -344 q 181 -359 153 -359 l 153 -359 q 124 -359 100 -344 q 76 -329 54 -303 l 54 -303 l 46 -325 q 61 -344 77 -357 q 93 -370 112 -377 q 131 -385 154 -385 l 154 -385 q 188 -385 210 -366 q 232 -348 243 -317 q 254 -287 254 -249 l 254 -249 q 254 -202 242 -169 q 230 -136 208 -119 q 186 -102 156 -102 l 156 -102 q 119 -102 93 -123 q 67 -144 54 -188 q 40 -232 40 -301 l 40 -301 q 40 -353 53 -399 q 65 -445 91 -481 q 116 -517 154 -537 q 192 -558 244 -558 z m 843 -558 l 843 -558 q 883 -558 912 -529 q 940 -500 956 -443 q 971 -386 971 -302 l 971 -302 q 971 -198 953 -128 q 934 -58 889 -23 q 844 12 766 12 l 766 12 q 735 12 702 6 q 669 0 633 -18 l 633 -18 l 645 -41 q 677 -26 704 -20 q 730 -14 766 -14 l 766 -14 q 837 -14 876 -46 q 914 -78 929 -142 q 944 -206 944 -302 l 944 -302 q 944 -418 917 -475 q 889 -532 842 -532 l 842 -532 q 821 -532 807 -522 q 793 -513 783 -497 l 783 -497 q 766 -468 761 -430 q 756 -393 756 -352 l 756 -352 l 756 -256 l 730 -256 l 730 -356 q 730 -407 724 -441 q 718 -475 704 -497 l 704 -497 q 694 -514 679 -523 q 663 -532 641 -532 l 641 -532 q 595 -532 572 -492 q 548 -453 548 -393 l 548 -393 q 548 -358 553 -324 q 557 -291 565 -258 l 565 -258 l 540 -253 q 532 -286 527 -319 q 521 -353 521 -395 l 521 -395 q 521 -442 536 -478 q 550 -515 577 -536 q 604 -558 641 -558 l 641 -558 q 681 -558 710 -531 q 738 -504 746 -437 l 746 -437 l 740 -437 q 748 -499 776 -528 q 803 -558 843 -558 z"},"ഋ":{"ha":621,"x_min":40,"x_max":581,"o":"m 462 -558 l 462 -558 q 519 -558 550 -508 q 581 -459 581 -364 l 581 -364 q 581 -315 571 -274 q 561 -234 541 -203 l 541 -203 q 511 -157 459 -132 q 406 -107 334 -107 l 334 -107 l 287 -107 q 239 -107 200 -118 q 160 -129 130 -150 q 100 -172 80 -203 l 80 -203 q 61 -234 51 -274 q 40 -314 40 -362 l 40 -362 q 40 -425 55 -468 q 69 -512 97 -535 q 124 -558 163 -558 l 163 -558 q 196 -558 219 -540 q 242 -522 254 -490 q 266 -459 266 -417 l 266 -417 q 266 -374 253 -342 q 240 -310 215 -293 q 190 -276 154 -276 l 154 -276 q 133 -276 115 -283 q 96 -290 80 -302 q 63 -315 48 -331 l 48 -331 l 56 -356 q 69 -340 84 -327 q 98 -315 115 -308 q 132 -302 153 -302 l 153 -302 q 195 -302 217 -330 q 239 -359 239 -418 l 239 -418 q 239 -471 219 -501 q 199 -532 163 -532 l 163 -532 q 130 -532 108 -510 q 86 -489 76 -451 q 65 -413 65 -361 l 65 -361 q 65 -354 66 -345 q 66 -336 67 -328 l 67 -328 l 68 -316 q 75 -264 96 -227 q 117 -191 149 -168 q 181 -145 222 -134 q 262 -123 307 -123 l 307 -123 l 314 -123 q 359 -123 400 -134 q 440 -145 472 -168 q 504 -191 525 -227 q 546 -264 553 -316 l 553 -316 l 554 -328 q 555 -336 556 -345 q 556 -354 556 -364 l 556 -364 q 556 -416 546 -453 q 536 -491 516 -511 q 495 -532 462 -532 l 462 -532 q 423 -532 403 -498 q 382 -465 382 -412 l 382 -412 q 382 -357 403 -329 q 424 -302 464 -302 l 464 -302 q 487 -302 505 -308 q 522 -315 537 -327 q 551 -340 564 -356 l 564 -356 l 572 -331 q 558 -315 542 -302 q 525 -290 506 -283 q 486 -276 463 -276 l 463 -276 q 428 -276 404 -293 q 380 -310 368 -341 q 355 -372 355 -412 l 355 -412 q 355 -455 368 -487 q 381 -520 405 -539 q 429 -558 462 -558 z m 310 203 l 310 203 q 225 203 170 185 q 115 166 89 129 q 62 92 62 39 l 62 39 q 62 -3 79 -32 q 96 -61 126 -79 q 155 -98 194 -106 q 233 -114 278 -114 l 278 -114 l 343 -114 q 388 -114 427 -106 q 466 -98 496 -80 q 525 -62 542 -33 q 559 -4 559 38 l 559 38 q 559 90 533 127 q 507 164 452 184 q 397 203 310 203 z m 311 177 l 311 177 q 387 177 436 162 q 484 146 508 116 q 532 85 532 39 l 532 39 q 532 5 519 -20 q 505 -46 478 -63 q 450 -81 409 -89 q 367 -98 312 -98 l 312 -98 l 309 -98 q 236 -98 187 -82 q 138 -67 114 -36 q 89 -6 89 39 l 89 39 q 89 85 112 116 q 135 146 184 162 q 233 177 311 177 z"},"ഌ":{"ha":798,"x_min":44,"x_max":756,"o":"m 245 -558 l 245 -558 q 311 -558 347 -520 q 382 -483 390 -413 l 390 -413 l 392 -370 l 399 -295 l 399 0 l 373 0 l 373 -325 q 373 -395 364 -437 q 354 -479 327 -504 l 327 -504 q 313 -518 293 -525 q 273 -532 245 -532 l 245 -532 q 193 -532 154 -495 q 114 -458 92 -392 q 70 -326 70 -237 l 70 -237 l 70 -222 q 70 -144 82 -98 q 93 -53 115 -33 q 137 -14 168 -14 l 168 -14 q 189 -14 207 -25 q 225 -37 236 -67 q 246 -97 246 -151 l 246 -151 q 246 -210 226 -243 q 206 -276 165 -276 l 165 -276 q 131 -276 106 -259 q 81 -242 58 -212 l 58 -212 l 49 -235 q 80 -272 108 -287 q 135 -302 165 -302 l 165 -302 q 195 -302 220 -286 q 244 -271 259 -237 q 273 -204 273 -151 l 273 -151 q 273 -90 259 -54 q 244 -19 221 -3 q 197 12 168 12 l 168 12 q 132 12 104 -8 q 76 -29 60 -80 q 44 -132 44 -225 l 44 -225 q 44 -333 70 -407 q 96 -481 142 -519 q 187 -558 245 -558 z m 628 12 l 628 12 q 584 12 556 -12 q 528 -36 515 -81 q 502 -127 502 -189 l 502 -189 q 502 -288 538 -334 q 573 -380 630 -380 l 630 -380 q 661 -380 684 -368 q 706 -356 723 -336 q 739 -317 749 -295 l 749 -295 l 744 -271 q 731 -294 716 -312 q 701 -331 681 -342 q 661 -354 632 -354 l 632 -354 q 579 -354 554 -312 q 529 -270 529 -188 l 529 -188 q 529 -134 539 -95 q 548 -56 570 -35 q 592 -14 629 -14 l 629 -14 q 660 -14 683 -34 q 705 -54 718 -102 q 730 -151 730 -236 l 730 -236 q 730 -253 730 -275 q 729 -298 727 -306 l 727 -306 q 728 -308 729 -309 q 729 -310 728 -314 l 728 -314 q 719 -370 698 -420 q 677 -470 639 -501 q 600 -532 537 -532 l 537 -532 q 506 -532 485 -524 q 464 -517 448 -503 l 448 -503 q 433 -490 422 -468 q 411 -447 405 -415 q 399 -384 399 -338 l 399 -338 l 399 -262 l 378 -385 q 382 -446 403 -484 q 423 -522 458 -540 q 492 -558 537 -558 l 537 -558 q 592 -558 633 -535 q 674 -512 702 -469 q 729 -426 743 -367 q 756 -308 756 -236 l 756 -236 q 756 -139 740 -85 q 723 -31 695 -9 q 666 12 628 12 z"},"എ":{"ha":868,"x_min":34,"x_max":824,"o":"m 159 -327 l 159 -327 q 196 -327 224 -309 q 252 -292 268 -257 q 284 -222 284 -171 l 284 -171 q 284 -124 268 -82 q 251 -40 224 -10 l 224 -10 l 228 -26 l 605 -26 l 607 0 l 217 0 l 203 -19 q 228 -50 243 -89 q 257 -128 257 -170 l 257 -170 q 257 -238 230 -269 q 203 -301 159 -301 l 159 -301 q 128 -301 106 -285 q 84 -269 73 -240 q 61 -212 61 -172 l 61 -172 q 61 -119 80 -79 q 99 -39 123 -9 l 123 -9 l 103 8 q 75 -28 55 -71 q 34 -115 34 -173 l 34 -173 q 34 -220 50 -254 q 66 -289 94 -308 q 122 -327 159 -327 z m 617 -558 l 617 -558 q 671 -558 711 -531 q 750 -505 775 -456 q 800 -408 812 -341 q 824 -274 824 -193 l 824 -193 q 824 -101 809 -25 q 794 51 767 114 q 740 176 704 228 l 704 228 l 682 214 q 716 164 742 105 q 768 45 783 -28 q 797 -101 797 -192 l 797 -192 q 797 -264 788 -326 q 778 -388 757 -434 q 735 -481 701 -506 q 667 -532 617 -532 l 617 -532 q 560 -532 517 -489 q 474 -447 450 -361 q 426 -276 426 -146 l 426 -146 q 426 -111 427 -79 q 428 -48 430 -21 l 430 -21 q 430 -19 431 -15 q 431 -12 431 -10 l 431 -10 q 437 67 451 114 q 464 160 486 181 q 507 202 535 202 l 535 202 q 558 202 571 190 l 571 190 q 584 179 589 157 q 594 134 594 94 l 594 94 l 594 -415 l 620 -415 l 620 102 q 620 145 613 171 q 605 196 586 211 l 586 211 q 577 218 564 223 q 551 228 535 228 l 535 228 q 493 228 463 194 q 433 159 417 77 q 400 -5 400 -145 l 400 -145 q 400 -252 416 -330 q 432 -408 461 -458 q 489 -509 529 -533 q 569 -558 617 -558 z"},"ഏ":{"ha":867,"x_min":34,"x_max":833,"o":"m 159 -327 l 159 -327 q 196 -327 224 -309 q 252 -292 268 -257 q 284 -222 284 -171 l 284 -171 q 284 -124 268 -82 q 251 -40 224 -10 l 224 -10 l 228 -26 l 605 -26 l 607 0 l 217 0 l 203 -19 q 228 -50 243 -89 q 257 -128 257 -170 l 257 -170 q 257 -238 230 -269 q 203 -301 159 -301 l 159 -301 q 128 -301 106 -285 q 84 -269 73 -240 q 61 -212 61 -172 l 61 -172 q 61 -119 80 -79 q 99 -39 123 -9 l 123 -9 l 103 8 q 75 -28 55 -71 q 34 -115 34 -173 l 34 -173 q 34 -220 50 -254 q 66 -289 94 -308 q 122 -327 159 -327 z m 643 -558 l 643 -558 q 688 -558 723 -541 q 757 -524 780 -494 q 803 -465 815 -426 q 826 -387 826 -342 l 826 -342 q 826 -285 811 -243 q 795 -201 766 -174 q 736 -147 693 -132 l 693 -132 l 691 -144 q 752 -134 793 -88 q 833 -42 833 44 l 833 44 q 833 114 816 154 q 799 194 770 211 q 740 228 702 228 l 702 228 q 686 228 672 227 q 658 225 646 221 l 646 221 l 652 196 q 663 199 676 201 q 689 202 702 202 l 702 202 q 733 202 756 189 q 779 175 793 141 q 806 107 806 44 l 806 44 q 806 -31 772 -74 q 737 -117 676 -122 l 676 -122 l 676 -148 q 710 -161 738 -183 q 766 -205 783 -243 q 799 -282 799 -342 l 799 -342 q 799 -395 782 -438 q 765 -481 731 -506 q 696 -532 643 -532 l 643 -532 q 574 -532 526 -489 q 477 -447 452 -361 q 426 -276 426 -146 l 426 -146 q 426 -111 427 -79 q 428 -48 430 -21 l 430 -21 q 430 -19 431 -15 q 431 -12 431 -10 l 431 -10 q 437 67 451 114 q 464 160 486 181 q 507 202 535 202 l 535 202 q 558 202 571 190 l 571 190 q 584 179 589 157 q 594 134 594 94 l 594 94 l 594 -415 l 620 -415 l 620 102 q 620 145 613 171 q 605 196 586 211 l 586 211 q 577 218 564 223 q 551 228 535 228 l 535 228 q 493 228 463 194 q 433 159 417 77 q 400 -5 400 -145 l 400 -145 q 400 -252 417 -330 q 434 -408 466 -458 q 498 -509 543 -533 q 588 -558 643 -558 z"},"ഐ":{"ha":1366,"x_min":42,"x_max":1322,"o":"m 166 12 l 166 12 q 130 12 102 -8 q 74 -28 58 -80 q 42 -133 42 -229 l 42 -229 q 42 -310 59 -371 q 75 -433 104 -474 q 133 -516 173 -537 q 213 -558 259 -558 l 259 -558 q 307 -558 344 -538 q 381 -518 406 -482 q 431 -446 444 -397 q 456 -349 456 -292 l 456 -292 q 456 -213 438 -156 q 420 -100 394 -60 q 367 -21 340 8 l 340 8 l 321 -10 q 345 -37 370 -74 q 395 -111 412 -163 q 429 -216 429 -291 l 429 -291 q 429 -361 410 -415 q 391 -470 354 -501 q 316 -532 259 -532 l 259 -532 q 203 -532 160 -496 q 117 -461 93 -393 q 68 -326 68 -229 l 68 -229 q 68 -148 80 -101 q 91 -54 113 -34 q 135 -14 166 -14 l 166 -14 q 187 -14 205 -25 q 223 -37 234 -67 q 244 -97 244 -151 l 244 -151 q 244 -210 224 -243 q 204 -276 163 -276 l 163 -276 q 129 -276 104 -259 q 79 -242 56 -212 l 56 -212 l 47 -235 q 78 -272 106 -287 q 133 -302 163 -302 l 163 -302 q 193 -302 218 -286 q 242 -271 257 -237 q 271 -204 271 -151 l 271 -151 q 271 -90 257 -54 q 242 -19 219 -3 q 195 12 166 12 z m 657 -327 l 657 -327 q 694 -327 722 -309 q 750 -292 766 -257 q 782 -222 782 -171 l 782 -171 q 782 -124 766 -82 q 749 -40 722 -10 l 722 -10 l 726 -26 l 1103 -26 l 1105 0 l 715 0 l 701 -19 q 726 -50 741 -89 q 755 -128 755 -170 l 755 -170 q 755 -238 728 -269 q 701 -301 657 -301 l 657 -301 q 626 -301 604 -285 q 582 -269 571 -240 q 559 -212 559 -172 l 559 -172 q 559 -119 578 -79 q 597 -39 621 -9 l 621 -9 l 601 8 q 573 -28 553 -71 q 532 -115 532 -173 l 532 -173 q 532 -220 548 -254 q 564 -289 592 -308 q 620 -327 657 -327 z m 1115 -558 l 1115 -558 q 1169 -558 1209 -531 q 1248 -505 1273 -456 q 1298 -408 1310 -341 q 1322 -274 1322 -193 l 1322 -193 q 1322 -101 1307 -25 q 1292 51 1265 114 q 1238 176 1202 228 l 1202 228 l 1180 214 q 1214 164 1240 105 q 1266 45 1281 -28 q 1295 -101 1295 -192 l 1295 -192 q 1295 -264 1286 -326 q 1276 -388 1255 -434 q 1233 -481 1199 -506 q 1165 -532 1115 -532 l 1115 -532 q 1058 -532 1015 -489 q 972 -447 948 -361 q 924 -276 924 -146 l 924 -146 q 924 -111 925 -79 q 926 -48 928 -21 l 928 -21 q 928 -19 929 -15 q 929 -12 929 -10 l 929 -10 q 935 67 949 114 q 962 160 984 181 q 1005 202 1033 202 l 1033 202 q 1056 202 1069 190 l 1069 190 q 1082 179 1087 157 q 1092 134 1092 94 l 1092 94 l 1092 -415 l 1118 -415 l 1118 102 q 1118 145 1111 171 q 1103 196 1084 211 l 1084 211 q 1075 218 1062 223 q 1049 228 1033 228 l 1033 228 q 991 228 961 194 q 931 159 915 77 q 898 -5 898 -145 l 898 -145 q 898 -252 914 -330 q 930 -408 959 -458 q 987 -509 1027 -533 q 1067 -558 1115 -558 z"},"ഒ":{"ha":531,"x_min":40,"x_max":495,"o":"m 318 -558 l 318 -558 q 374 -558 412 -537 q 449 -517 468 -481 q 487 -446 487 -402 l 487 -402 q 487 -366 475 -337 q 462 -308 436 -290 q 409 -272 366 -267 l 366 -267 l 367 -274 q 423 -269 459 -233 q 495 -197 495 -130 l 495 -130 q 495 -63 462 -27 q 429 9 366 9 l 366 9 q 352 9 336 7 q 320 4 304 0 l 304 0 l 310 -25 q 326 -21 340 -19 q 354 -17 367 -17 l 367 -17 q 414 -17 441 -41 q 468 -66 468 -130 l 468 -130 q 468 -164 458 -187 q 448 -211 429 -227 l 429 -227 q 411 -242 388 -249 q 364 -257 327 -257 l 327 -257 l 324 -257 l 324 -283 l 327 -283 q 359 -283 384 -290 q 408 -297 425 -312 l 425 -312 q 442 -327 451 -350 q 460 -373 460 -404 l 460 -404 q 460 -466 422 -499 q 383 -532 318 -532 l 318 -532 q 255 -532 208 -506 q 161 -481 130 -438 q 98 -395 82 -340 q 66 -285 66 -225 l 66 -225 l 66 -214 q 66 -140 78 -96 q 89 -52 111 -33 q 133 -14 164 -14 l 164 -14 q 185 -14 203 -25 q 221 -37 232 -67 q 242 -97 242 -151 l 242 -151 q 242 -210 222 -243 q 202 -276 161 -276 l 161 -276 q 127 -276 102 -259 q 77 -242 54 -212 l 54 -212 l 45 -235 q 76 -272 104 -287 q 131 -302 161 -302 l 161 -302 q 191 -302 216 -286 q 240 -271 255 -237 q 269 -204 269 -151 l 269 -151 q 269 -90 255 -54 q 240 -19 217 -3 q 193 12 164 12 l 164 12 q 128 12 100 -8 q 72 -28 56 -77 q 40 -127 40 -215 l 40 -215 q 40 -286 58 -348 q 76 -410 111 -457 q 146 -504 198 -531 q 250 -558 318 -558 z"},"ഓ":{"ha":890,"x_min":40,"x_max":845,"o":"m 318 -558 l 318 -558 q 374 -558 412 -537 q 449 -517 468 -481 q 487 -446 487 -402 l 487 -402 q 487 -366 475 -337 q 462 -308 436 -290 q 409 -272 366 -267 l 366 -267 l 367 -274 q 423 -269 459 -233 q 495 -197 495 -130 l 495 -130 q 495 -63 462 -27 q 429 9 366 9 l 366 9 q 352 9 336 7 q 320 4 304 0 l 304 0 l 310 -25 q 326 -21 340 -19 q 354 -17 367 -17 l 367 -17 q 414 -17 441 -41 q 468 -66 468 -130 l 468 -130 q 468 -164 458 -187 q 448 -211 429 -227 l 429 -227 q 411 -242 388 -249 q 364 -257 327 -257 l 327 -257 l 324 -257 l 324 -283 l 327 -283 q 359 -283 384 -290 q 408 -297 425 -312 l 425 -312 q 442 -327 451 -350 q 460 -373 460 -404 l 460 -404 q 460 -466 422 -499 q 383 -532 318 -532 l 318 -532 q 255 -532 208 -506 q 161 -481 130 -438 q 98 -395 82 -340 q 66 -285 66 -225 l 66 -225 l 66 -214 q 66 -140 78 -96 q 89 -52 111 -33 q 133 -14 164 -14 l 164 -14 q 185 -14 203 -25 q 221 -37 232 -67 q 242 -97 242 -151 l 242 -151 q 242 -210 222 -243 q 202 -276 161 -276 l 161 -276 q 127 -276 102 -259 q 77 -242 54 -212 l 54 -212 l 45 -235 q 76 -272 104 -287 q 131 -302 161 -302 l 161 -302 q 191 -302 216 -286 q 240 -271 255 -237 q 269 -204 269 -151 l 269 -151 q 269 -90 255 -54 q 240 -19 217 -3 q 193 12 164 12 l 164 12 q 128 12 100 -8 q 72 -28 56 -77 q 40 -127 40 -215 l 40 -215 q 40 -286 58 -348 q 76 -410 111 -457 q 146 -504 198 -531 q 250 -558 318 -558 z m 845 -275 l 845 -275 q 845 -205 837 -151 q 828 -97 811 -61 q 793 -25 766 -6 q 739 12 701 12 l 701 12 q 668 12 644 -1 q 620 -14 603 -38 q 586 -62 575 -93 q 564 -125 557 -161 l 557 -161 l 583 -166 q 592 -123 606 -88 q 619 -54 642 -34 q 665 -14 700 -14 l 700 -14 q 743 -14 769 -43 q 794 -72 806 -130 q 818 -188 818 -275 l 818 -275 q 818 -361 806 -418 q 794 -475 769 -503 q 743 -532 701 -532 l 701 -532 q 667 -532 644 -512 q 621 -492 608 -458 q 594 -425 585 -382 l 585 -382 l 559 -387 q 566 -423 577 -454 q 588 -485 605 -508 q 622 -532 646 -545 q 670 -558 702 -558 l 702 -558 q 739 -558 766 -539 q 793 -521 811 -485 q 828 -450 837 -397 q 845 -344 845 -275 z"},"ഔ":{"ha":1062,"x_min":40,"x_max":1017,"o":"m 318 -558 l 318 -558 q 374 -558 412 -537 q 449 -517 468 -481 q 487 -446 487 -402 l 487 -402 q 487 -366 475 -337 q 462 -308 436 -290 q 409 -272 366 -267 l 366 -267 l 367 -274 q 423 -269 459 -233 q 495 -197 495 -130 l 495 -130 q 495 -63 462 -27 q 429 9 366 9 l 366 9 q 352 9 336 7 q 320 4 304 0 l 304 0 l 310 -25 q 326 -21 340 -19 q 354 -17 367 -17 l 367 -17 q 414 -17 441 -41 q 468 -66 468 -130 l 468 -130 q 468 -164 458 -187 q 448 -211 429 -227 l 429 -227 q 411 -242 388 -249 q 364 -257 327 -257 l 327 -257 l 324 -257 l 324 -283 l 327 -283 q 359 -283 384 -290 q 408 -297 425 -312 l 425 -312 q 442 -327 451 -350 q 460 -373 460 -404 l 460 -404 q 460 -466 422 -499 q 383 -532 318 -532 l 318 -532 q 255 -532 208 -506 q 161 -481 130 -438 q 98 -395 82 -340 q 66 -285 66 -225 l 66 -225 l 66 -214 q 66 -140 78 -96 q 89 -52 111 -33 q 133 -14 164 -14 l 164 -14 q 185 -14 203 -25 q 221 -37 232 -67 q 242 -97 242 -151 l 242 -151 q 242 -210 222 -243 q 202 -276 161 -276 l 161 -276 q 127 -276 102 -259 q 77 -242 54 -212 l 54 -212 l 45 -235 q 76 -272 104 -287 q 131 -302 161 -302 l 161 -302 q 191 -302 216 -286 q 240 -271 255 -237 q 269 -204 269 -151 l 269 -151 q 269 -90 255 -54 q 240 -19 217 -3 q 193 12 164 12 l 164 12 q 128 12 100 -8 q 72 -28 56 -77 q 40 -127 40 -215 l 40 -215 q 40 -286 58 -348 q 76 -410 111 -457 q 146 -504 198 -531 q 250 -558 318 -558 z m 889 -558 l 889 -558 q 929 -558 958 -529 q 986 -500 1002 -443 q 1017 -386 1017 -302 l 1017 -302 q 1017 -198 999 -128 q 980 -58 935 -23 q 890 12 812 12 l 812 12 q 781 12 748 6 q 715 0 679 -18 l 679 -18 l 691 -41 q 723 -26 750 -20 q 776 -14 812 -14 l 812 -14 q 883 -14 922 -46 q 960 -78 975 -142 q 990 -206 990 -302 l 990 -302 q 990 -418 963 -475 q 935 -532 888 -532 l 888 -532 q 867 -532 853 -522 q 839 -513 829 -497 l 829 -497 q 812 -468 807 -430 q 802 -393 802 -352 l 802 -352 l 802 -256 l 776 -256 l 776 -356 q 776 -407 770 -441 q 764 -475 750 -497 l 750 -497 q 740 -514 725 -523 q 709 -532 687 -532 l 687 -532 q 641 -532 618 -492 q 594 -453 594 -393 l 594 -393 q 594 -358 599 -324 q 603 -291 611 -258 l 611 -258 l 586 -253 q 578 -286 573 -319 q 567 -353 567 -395 l 567 -395 q 567 -442 582 -478 q 596 -515 623 -536 q 650 -558 687 -558 l 687 -558 q 727 -558 756 -531 q 784 -504 792 -437 l 792 -437 l 786 -437 q 794 -499 822 -528 q 849 -558 889 -558 z"},"ക":{"ha":735,"x_min":34,"x_max":701,"o":"m 164 12 l 164 12 q 109 12 72 -25 q 34 -63 34 -141 l 34 -141 q 34 -176 46 -204 q 58 -232 83 -254 l 83 -254 q 103 -271 128 -281 q 153 -292 186 -297 q 218 -302 260 -302 l 260 -302 l 478 -302 q 539 -302 579 -293 q 619 -284 649 -261 l 649 -261 q 674 -242 688 -211 q 701 -180 701 -138 l 701 -138 q 701 -70 668 -29 q 635 12 571 12 l 571 12 q 560 12 544 10 q 527 8 510 3 l 510 3 l 516 -22 q 531 -18 545 -16 q 559 -14 572 -14 l 572 -14 q 624 -14 649 -46 q 674 -79 674 -138 l 674 -138 q 674 -176 663 -201 q 651 -227 630 -243 l 630 -243 q 605 -262 571 -269 q 536 -276 474 -276 l 474 -276 l 262 -276 q 202 -276 163 -266 q 124 -257 100 -235 l 100 -235 q 79 -216 70 -193 q 61 -170 61 -140 l 61 -140 q 61 -91 76 -63 q 91 -36 115 -25 q 139 -14 165 -14 l 165 -14 q 193 -14 220 -23 q 246 -32 278 -61 l 278 -61 l 294 -40 q 271 -21 251 -9 q 231 2 211 7 q 190 12 164 12 z m 368 -558 l 368 -558 q 419 -558 452 -527 q 484 -496 500 -433 q 515 -371 515 -276 l 515 -276 q 515 -166 497 -103 q 478 -40 445 -14 q 411 12 367 12 l 367 12 q 334 12 310 -1 q 285 -14 268 -38 l 268 -38 q 242 -76 231 -137 q 220 -198 220 -274 l 220 -274 q 220 -420 257 -489 q 294 -558 368 -558 z m 368 -532 l 368 -532 q 308 -532 277 -473 q 246 -414 246 -274 l 246 -274 q 246 -174 261 -117 q 275 -60 303 -37 q 330 -14 367 -14 l 367 -14 q 406 -14 433 -38 q 460 -62 475 -119 q 489 -177 489 -276 l 489 -276 q 489 -371 475 -427 q 461 -483 434 -507 q 407 -532 368 -532 z"},"ഖ":{"ha":704,"x_min":42,"x_max":639,"o":"m 259 -558 l 259 -558 q 306 -558 343 -538 q 379 -519 404 -483 q 428 -447 441 -398 q 453 -350 453 -292 l 453 -292 q 453 -213 435 -157 q 417 -101 393 -66 q 369 -31 349 -12 l 349 -12 l 354 0 l 339 0 l 327 -21 q 347 -43 370 -78 q 393 -113 410 -165 q 426 -218 426 -291 l 426 -291 q 426 -361 407 -415 q 388 -470 351 -501 q 314 -532 259 -532 l 259 -532 q 198 -532 155 -493 q 112 -454 90 -386 q 68 -318 68 -231 l 68 -231 l 68 -218 q 68 -142 80 -97 q 91 -53 113 -33 q 135 -14 166 -14 l 166 -14 q 187 -14 205 -25 q 223 -37 234 -67 q 244 -97 244 -151 l 244 -151 q 244 -210 224 -243 q 204 -276 163 -276 l 163 -276 q 129 -276 104 -259 q 79 -242 56 -212 l 56 -212 l 47 -235 q 78 -272 106 -287 q 133 -302 163 -302 l 163 -302 q 193 -302 218 -286 q 242 -271 257 -237 q 271 -204 271 -151 l 271 -151 q 271 -90 257 -54 q 242 -19 219 -3 q 195 12 166 12 l 166 12 q 130 12 102 -8 q 74 -29 58 -79 q 42 -130 42 -221 l 42 -221 q 42 -326 69 -401 q 95 -477 144 -517 q 193 -558 259 -558 z m 613 -546 l 639 -546 l 639 0 l 346 0 l 343 -26 l 613 -26 l 613 -546 z"},"ഗ":{"ha":626,"x_min":42,"x_max":584,"o":"m 428 -558 l 428 -558 q 478 -558 513 -526 q 548 -495 566 -438 q 584 -381 584 -302 l 584 -302 q 584 -223 568 -167 q 552 -111 527 -70 q 502 -29 476 7 l 476 7 l 455 -10 q 484 -46 507 -87 q 530 -129 544 -181 q 557 -234 557 -303 l 557 -303 q 557 -368 544 -420 q 530 -472 502 -502 q 474 -532 429 -532 l 429 -532 q 407 -532 391 -525 q 375 -518 363 -505 l 363 -505 q 342 -482 334 -442 q 326 -403 326 -336 l 326 -336 l 326 -202 q 326 -164 323 -131 q 320 -98 311 -71 q 302 -45 284 -25 l 284 -25 q 270 -9 249 2 q 227 12 198 12 l 198 12 q 148 12 113 -19 q 78 -51 60 -108 q 42 -166 42 -244 l 42 -244 q 42 -323 58 -379 q 74 -435 99 -476 q 124 -518 150 -553 l 150 -553 l 171 -536 q 143 -500 120 -458 q 96 -417 83 -364 q 69 -312 69 -243 l 69 -243 q 69 -178 83 -126 q 96 -74 125 -44 q 153 -14 197 -14 l 197 -14 q 219 -14 235 -21 q 251 -28 263 -41 l 263 -41 q 284 -64 292 -103 q 300 -143 300 -210 l 300 -210 l 300 -342 q 300 -401 308 -446 q 315 -491 342 -521 l 342 -521 q 356 -537 378 -547 q 400 -558 428 -558 z"},"ഘ":{"ha":908,"x_min":31,"x_max":843,"o":"m 156 -558 l 156 -558 q 193 -558 221 -540 q 249 -523 265 -489 q 281 -455 281 -404 l 281 -404 q 281 -358 265 -316 q 248 -275 221 -246 l 221 -246 l 225 -262 l 377 -262 l 380 -236 l 214 -236 l 200 -255 q 225 -285 240 -323 q 254 -362 254 -403 l 254 -403 q 254 -471 227 -501 q 200 -532 156 -532 l 156 -532 q 125 -532 103 -516 q 81 -501 70 -472 q 58 -444 58 -405 l 58 -405 q 58 -353 77 -313 q 96 -274 120 -245 l 120 -245 l 100 -228 q 72 -263 52 -305 q 31 -348 31 -406 l 31 -406 q 31 -453 47 -487 q 63 -521 91 -539 q 119 -558 156 -558 z m 817 -546 l 843 -546 l 843 0 l 366 0 l 366 -342 q 366 -416 382 -463 q 398 -510 435 -535 l 435 -535 q 452 -546 473 -552 q 494 -558 520 -558 l 520 -558 q 543 -558 564 -552 q 584 -547 600 -536 l 600 -536 q 635 -512 652 -465 q 669 -419 669 -345 l 669 -345 l 669 -236 l 392 -236 l 392 -26 l 817 -26 l 817 -546 z m 519 -532 l 519 -532 q 455 -532 424 -488 q 392 -444 392 -340 l 392 -340 l 392 -262 l 643 -262 l 643 -339 q 643 -441 613 -486 q 582 -532 519 -532 z"},"ങ":{"ha":734,"x_min":44,"x_max":698,"o":"m 245 -558 l 245 -558 q 311 -558 347 -520 q 382 -483 390 -413 l 390 -413 l 392 -370 l 399 -295 l 399 0 l 373 0 l 373 -325 q 373 -395 364 -437 q 354 -479 327 -504 l 327 -504 q 313 -518 293 -525 q 273 -532 245 -532 l 245 -532 q 193 -532 154 -495 q 114 -458 92 -392 q 70 -326 70 -237 l 70 -237 l 70 -222 q 70 -144 82 -98 q 93 -53 115 -33 q 137 -14 168 -14 l 168 -14 q 189 -14 207 -25 q 225 -37 236 -67 q 246 -97 246 -151 l 246 -151 q 246 -210 226 -243 q 206 -276 165 -276 l 165 -276 q 131 -276 106 -259 q 81 -242 58 -212 l 58 -212 l 49 -235 q 80 -272 108 -287 q 135 -302 165 -302 l 165 -302 q 195 -302 220 -286 q 244 -271 259 -237 q 273 -204 273 -151 l 273 -151 q 273 -90 259 -54 q 244 -19 221 -3 q 197 12 168 12 l 168 12 q 132 12 104 -8 q 76 -29 60 -80 q 44 -132 44 -225 l 44 -225 q 44 -333 70 -407 q 96 -481 142 -519 q 187 -558 245 -558 z m 552 -558 l 552 -558 q 593 -558 624 -540 q 655 -522 673 -489 q 690 -457 690 -412 l 690 -412 q 690 -371 678 -340 q 665 -309 639 -291 q 612 -273 569 -268 l 569 -268 l 570 -274 q 626 -269 662 -233 q 698 -197 698 -130 l 698 -130 q 698 -63 665 -27 q 632 9 569 9 l 569 9 q 555 9 539 7 q 523 4 507 0 l 507 0 l 513 -25 q 529 -21 543 -19 q 557 -17 570 -17 l 570 -17 q 617 -17 644 -41 q 671 -66 671 -130 l 671 -130 q 671 -164 661 -187 q 651 -211 632 -227 l 632 -227 q 614 -242 590 -249 q 566 -257 525 -257 l 525 -257 l 521 -257 l 521 -283 l 524 -283 q 560 -283 585 -290 q 610 -297 627 -312 l 627 -312 q 644 -327 654 -350 q 663 -374 663 -411 l 663 -411 q 663 -470 633 -501 q 602 -532 553 -532 l 553 -532 q 522 -532 499 -522 q 475 -513 457 -496 l 457 -496 q 438 -478 425 -452 q 412 -427 406 -394 q 399 -362 399 -322 l 399 -322 l 399 -277 l 382 -282 l 377 -345 l 384 -387 q 390 -445 414 -483 q 438 -521 475 -539 q 511 -558 552 -558 z"},"ച":{"ha":653,"x_min":17,"x_max":588,"o":"m 562 -546 l 588 -546 l 588 0 l 17 0 l 17 -26 l 282 -26 l 265 -14 q 293 -49 313 -94 q 332 -140 332 -193 l 332 -193 q 332 -255 308 -286 q 283 -318 240 -318 l 240 -318 q 197 -318 173 -286 q 148 -255 148 -195 l 148 -195 q 148 -183 149 -168 q 150 -153 152 -139 l 152 -139 l 127 -136 q 125 -150 123 -165 q 121 -181 121 -195 l 121 -195 q 121 -269 156 -306 q 190 -344 239 -344 l 239 -344 q 267 -344 289 -333 q 311 -323 327 -303 q 342 -284 351 -256 q 359 -228 359 -193 l 359 -193 q 359 -154 350 -120 q 340 -87 326 -60 q 311 -34 297 -15 l 297 -15 l 287 -26 l 562 -26 l 562 -546 z"},"ഛ":{"ha":940,"x_min":17,"x_max":898,"o":"m 239 -344 l 239 -344 q 267 -344 289 -333 q 311 -323 327 -303 q 342 -284 351 -256 q 359 -228 359 -193 l 359 -193 q 359 -154 350 -120 q 340 -87 326 -60 q 311 -34 297 -15 l 297 -15 l 287 -26 l 580 -26 l 579 0 l 17 0 l 17 -26 l 282 -26 l 265 -14 q 293 -49 313 -94 q 332 -140 332 -193 l 332 -193 q 332 -255 308 -286 q 283 -318 240 -318 l 240 -318 q 197 -318 173 -286 q 148 -255 148 -195 l 148 -195 q 148 -183 149 -168 q 150 -153 152 -139 l 152 -139 l 127 -136 q 125 -150 123 -165 q 121 -181 121 -195 l 121 -195 q 121 -269 156 -306 q 190 -344 239 -344 z m 681 -558 l 681 -558 q 735 -558 776 -535 q 816 -512 844 -469 q 871 -426 885 -367 q 898 -308 898 -236 l 898 -236 q 898 -139 882 -85 q 865 -31 837 -9 q 808 12 770 12 l 770 12 q 726 12 698 -12 q 670 -36 657 -81 q 644 -127 644 -189 l 644 -189 q 644 -288 680 -334 q 715 -380 772 -380 l 772 -380 q 803 -380 826 -368 q 848 -356 865 -336 q 881 -317 891 -295 l 891 -295 l 886 -271 q 873 -294 858 -312 q 843 -331 823 -342 q 803 -354 774 -354 l 774 -354 q 721 -354 696 -312 q 671 -270 671 -188 l 671 -188 q 671 -134 681 -95 q 690 -56 712 -35 q 734 -14 771 -14 l 771 -14 q 802 -14 825 -34 q 847 -54 860 -102 q 872 -151 872 -236 l 872 -236 q 872 -253 872 -275 q 871 -298 869 -306 l 869 -306 q 870 -308 871 -309 q 871 -310 870 -314 l 870 -314 q 861 -370 840 -420 q 819 -470 781 -501 q 743 -532 681 -532 l 681 -532 q 619 -532 578 -498 q 537 -465 518 -410 q 498 -356 498 -291 l 498 -291 q 498 -222 513 -171 q 527 -120 550 -83 q 573 -47 596 -21 l 596 -21 l 584 0 l 567 0 l 564 -21 q 547 -42 525 -75 q 503 -109 487 -161 q 471 -214 471 -291 l 471 -291 q 471 -347 485 -395 q 498 -443 525 -480 q 551 -517 591 -537 q 630 -558 681 -558 z"},"ജ":{"ha":659,"x_min":32,"x_max":619,"o":"m 209 -558 l 209 -558 q 249 -558 281 -544 q 312 -530 333 -499 q 353 -468 359 -416 l 359 -416 l 348 -404 q 355 -490 392 -524 q 429 -558 479 -558 l 479 -558 q 525 -558 556 -533 q 587 -508 603 -467 q 619 -427 619 -381 l 619 -381 q 619 -337 608 -304 q 597 -272 576 -250 q 555 -228 524 -215 l 524 -215 l 489 -205 l 455 -195 q 438 -191 417 -189 q 395 -187 366 -187 l 366 -187 l 201 -187 q 159 -187 132 -182 q 105 -177 86 -163 l 86 -163 q 73 -153 66 -138 q 59 -124 59 -102 l 59 -102 q 59 -70 71 -50 q 82 -31 102 -22 q 122 -14 145 -14 l 145 -14 q 172 -14 196 -21 q 220 -28 247 -45 q 274 -63 309 -94 l 309 -94 q 341 -122 362 -140 q 383 -158 398 -169 q 413 -180 427 -188 q 440 -197 458 -206 l 458 -206 q 466 -211 473 -214 q 480 -217 487 -218 q 493 -220 500 -221 q 507 -222 514 -222 l 514 -222 q 540 -222 560 -210 q 580 -198 592 -173 q 603 -149 603 -110 l 603 -110 q 603 -43 576 -15 q 548 12 507 12 l 507 12 q 474 12 454 -4 q 433 -20 424 -46 q 414 -73 414 -105 l 414 -105 q 414 -137 424 -160 q 433 -184 455 -213 l 455 -213 l 472 -210 q 463 -197 456 -181 q 448 -165 444 -146 q 439 -128 439 -105 l 439 -105 q 439 -62 456 -38 q 473 -14 507 -14 l 507 -14 q 542 -14 559 -36 q 576 -58 576 -110 l 576 -110 q 576 -149 566 -169 q 555 -189 540 -196 q 524 -203 508 -203 l 508 -203 q 495 -203 480 -197 q 465 -191 450 -177 l 450 -177 l 447 -183 q 438 -175 426 -162 q 413 -150 390 -129 q 367 -109 327 -75 l 327 -75 q 289 -43 260 -23 q 231 -4 204 4 q 177 12 144 12 l 144 12 q 116 12 90 0 q 64 -12 48 -37 q 32 -63 32 -102 l 32 -102 q 32 -128 41 -147 q 50 -167 66 -180 l 66 -180 q 87 -198 117 -205 q 147 -213 197 -213 l 197 -213 l 374 -213 q 418 -213 450 -217 q 481 -221 504 -230 q 526 -239 543 -253 l 543 -253 q 567 -273 580 -304 q 592 -335 592 -379 l 592 -379 q 592 -416 581 -451 q 569 -486 545 -509 q 520 -532 479 -532 l 479 -532 q 453 -532 437 -525 q 420 -518 409 -506 l 409 -506 q 386 -481 377 -443 q 368 -406 368 -338 l 368 -338 l 368 -258 l 342 -258 l 342 -334 q 342 -401 332 -441 q 322 -481 296 -504 l 296 -504 q 280 -518 259 -525 q 237 -532 208 -532 l 208 -532 q 158 -532 124 -508 q 90 -484 75 -441 l 75 -441 q 74 -438 74 -435 q 73 -432 72 -429 l 72 -429 q 69 -418 68 -405 q 66 -393 66 -380 l 66 -380 q 66 -319 89 -295 q 111 -272 139 -272 l 139 -272 q 164 -272 179 -284 q 193 -297 199 -318 q 205 -339 205 -364 l 205 -364 q 205 -408 189 -429 q 172 -450 140 -450 l 140 -450 q 116 -450 94 -437 q 72 -425 50 -399 l 50 -399 l 53 -429 q 69 -448 93 -461 q 117 -475 141 -475 l 141 -475 q 171 -475 192 -460 q 213 -446 224 -422 q 235 -398 235 -368 l 235 -368 q 235 -330 223 -302 q 210 -275 189 -260 q 167 -246 139 -246 l 139 -246 q 96 -246 68 -279 q 40 -313 40 -380 l 40 -380 q 40 -430 60 -470 q 79 -510 117 -534 q 155 -558 209 -558 z"},"ഝ":{"ha":1152,"x_min":42,"x_max":1110,"o":"m 461 -558 l 461 -558 q 491 -558 517 -549 q 542 -540 561 -522 l 561 -522 q 592 -493 603 -448 q 614 -403 614 -322 l 614 -322 l 614 -205 q 614 -140 622 -102 q 629 -64 650 -41 l 650 -41 q 662 -28 679 -21 q 696 -14 718 -14 l 718 -14 q 740 -14 757 -20 q 773 -27 784 -40 l 784 -40 q 805 -63 813 -105 q 820 -147 820 -208 l 820 -208 l 820 -546 l 846 -546 l 846 -211 q 846 -146 856 -106 q 865 -66 887 -42 l 887 -42 q 899 -29 915 -21 q 931 -14 956 -14 l 956 -14 q 997 -14 1025 -45 q 1053 -76 1068 -128 q 1083 -181 1083 -243 l 1083 -243 q 1083 -312 1070 -364 q 1056 -417 1033 -458 q 1010 -500 981 -536 l 981 -536 l 1002 -552 q 1028 -517 1053 -475 q 1078 -434 1094 -378 q 1110 -322 1110 -243 l 1110 -243 q 1110 -168 1091 -110 q 1072 -53 1037 -20 q 1002 12 954 12 l 954 12 q 903 12 872 -20 q 841 -52 830 -124 l 830 -124 l 838 -133 q 834 -81 819 -49 q 804 -17 779 -2 q 753 12 718 12 l 718 12 q 689 12 666 1 q 643 -10 629 -26 l 629 -26 q 613 -45 604 -67 q 595 -89 592 -120 q 588 -151 588 -196 l 588 -196 l 588 -318 q 588 -365 585 -400 q 581 -436 571 -461 q 561 -487 542 -504 l 542 -504 q 527 -518 507 -525 q 487 -532 461 -532 l 461 -532 q 432 -532 408 -522 q 384 -512 364 -495 l 364 -495 l 355 -487 q 319 -454 297 -404 q 275 -355 265 -302 q 255 -249 255 -203 l 255 -203 q 255 -130 267 -88 q 279 -47 301 -30 q 323 -14 352 -14 l 352 -14 q 382 -14 404 -30 q 426 -47 438 -88 q 450 -130 450 -203 l 450 -203 q 450 -248 440 -302 q 430 -356 408 -406 q 385 -456 348 -489 l 348 -489 l 341 -495 q 320 -515 296 -523 q 272 -532 243 -532 l 243 -532 q 184 -532 145 -499 q 106 -466 88 -411 q 69 -356 69 -291 l 69 -291 q 69 -222 84 -170 q 98 -119 123 -81 q 147 -43 175 -12 l 175 -12 l 156 6 q 131 -22 105 -60 q 78 -99 60 -155 q 42 -212 42 -291 l 42 -291 q 42 -348 55 -396 q 68 -445 94 -481 q 120 -517 158 -537 q 195 -558 244 -558 l 244 -558 q 279 -558 307 -546 q 335 -534 360 -511 l 360 -511 l 369 -503 q 423 -451 450 -370 q 477 -289 477 -203 l 477 -203 q 477 -121 461 -74 q 445 -27 417 -7 q 388 12 352 12 l 352 12 q 317 12 289 -7 q 260 -27 244 -74 q 228 -121 228 -203 l 228 -203 q 228 -255 239 -310 q 250 -366 275 -417 q 299 -468 337 -504 l 337 -504 l 344 -510 q 369 -533 398 -545 q 427 -558 461 -558 z"},"ഞ":{"ha":989,"x_min":44,"x_max":947,"o":"m 245 -558 l 245 -558 q 311 -558 347 -520 q 382 -483 390 -413 l 390 -413 l 392 -370 l 399 -269 l 399 0 l 373 0 l 373 -325 q 373 -395 364 -437 q 354 -479 327 -504 l 327 -504 q 313 -518 293 -525 q 273 -532 245 -532 l 245 -532 q 193 -532 154 -495 q 114 -458 92 -392 q 70 -326 70 -237 l 70 -237 l 70 -222 q 70 -144 82 -98 q 93 -53 115 -33 q 137 -14 168 -14 l 168 -14 q 189 -14 207 -25 q 225 -37 236 -67 q 246 -97 246 -151 l 246 -151 q 246 -210 226 -243 q 206 -276 165 -276 l 165 -276 q 131 -276 106 -259 q 81 -242 58 -212 l 58 -212 l 49 -235 q 80 -272 108 -287 q 135 -302 165 -302 l 165 -302 q 195 -302 220 -286 q 244 -271 259 -237 q 273 -204 273 -151 l 273 -151 q 273 -90 259 -54 q 244 -19 221 -3 q 197 12 168 12 l 168 12 q 132 12 104 -8 q 76 -29 60 -80 q 44 -132 44 -225 l 44 -225 q 44 -333 70 -407 q 96 -481 142 -519 q 187 -558 245 -558 z m 529 -558 l 529 -558 q 562 -558 590 -546 q 618 -534 643 -511 l 643 -511 l 652 -503 q 706 -451 733 -370 q 760 -289 760 -203 l 760 -203 q 760 -121 744 -74 q 728 -27 700 -7 q 671 12 635 12 l 635 12 q 600 12 572 -7 q 543 -27 527 -74 q 511 -121 511 -203 l 511 -203 q 511 -255 523 -310 q 534 -366 559 -417 q 584 -468 622 -504 l 622 -504 l 629 -510 q 654 -533 684 -545 q 714 -558 751 -558 l 751 -558 q 798 -558 835 -538 q 871 -518 896 -482 q 921 -446 934 -397 q 947 -349 947 -292 l 947 -292 q 947 -213 929 -156 q 911 -100 885 -60 q 858 -21 831 8 l 831 8 l 812 -10 q 836 -37 861 -74 q 886 -111 903 -163 q 920 -216 920 -291 l 920 -291 q 920 -360 901 -414 q 882 -469 845 -500 q 807 -532 751 -532 l 751 -532 q 719 -532 694 -522 q 669 -512 649 -495 l 649 -495 l 640 -487 q 604 -454 582 -404 q 559 -355 549 -302 q 538 -249 538 -203 l 538 -203 q 538 -130 550 -88 q 562 -47 584 -30 q 606 -14 635 -14 l 635 -14 q 665 -14 687 -30 q 709 -47 721 -88 q 733 -130 733 -203 l 733 -203 q 733 -248 723 -302 q 713 -356 691 -406 q 668 -456 631 -489 l 631 -489 l 624 -495 q 610 -508 595 -516 q 580 -524 564 -528 q 547 -532 528 -532 l 528 -532 q 502 -532 483 -525 q 463 -518 448 -505 l 448 -505 q 418 -480 409 -436 q 399 -393 399 -338 l 399 -338 l 399 -68 l 378 -68 l 380 -239 l 379 -389 q 382 -449 403 -486 q 423 -523 456 -540 q 489 -558 529 -558 z"},"ട":{"ha":381,"x_min":21,"x_max":354,"o":"m 203 -558 l 203 -558 q 243 -558 279 -550 q 314 -542 354 -524 l 354 -524 l 340 -501 q 303 -518 272 -525 q 240 -532 202 -532 l 202 -532 q 150 -532 119 -515 q 87 -498 73 -470 q 59 -442 59 -410 l 59 -410 q 59 -382 66 -361 q 73 -341 86 -327 l 86 -327 q 103 -309 128 -301 q 153 -293 192 -292 l 192 -292 l 193 -292 q 234 -291 265 -280 q 295 -269 316 -245 l 316 -245 q 332 -227 341 -202 q 349 -178 349 -142 l 349 -142 q 349 -98 332 -63 q 314 -28 276 -8 q 238 12 176 12 l 176 12 q 145 12 105 5 q 65 -3 21 -23 l 21 -23 l 35 -45 q 58 -36 80 -29 q 102 -22 126 -18 q 149 -14 176 -14 l 176 -14 q 233 -14 265 -31 q 296 -48 309 -77 q 322 -107 322 -143 l 322 -143 q 322 -172 315 -193 q 308 -214 296 -228 l 296 -228 q 279 -248 253 -256 q 226 -265 193 -266 l 193 -266 l 192 -266 q 146 -267 115 -278 q 84 -290 65 -311 l 65 -311 q 48 -331 40 -355 q 32 -380 32 -410 l 32 -410 q 32 -447 50 -481 q 67 -515 105 -536 q 143 -558 203 -558 z"},"ഠ":{"ha":463,"x_min":42,"x_max":421,"o":"m 232 -558 l 232 -558 q 291 -558 334 -525 q 376 -493 399 -430 q 421 -367 421 -273 l 421 -273 q 421 -183 398 -119 q 375 -55 332 -21 q 289 12 230 12 l 230 12 q 170 12 128 -21 q 86 -54 64 -117 q 42 -181 42 -273 l 42 -273 q 42 -365 66 -428 q 89 -492 132 -525 q 174 -558 232 -558 z m 230 -14 l 230 -14 q 284 -14 321 -45 q 357 -77 376 -135 q 394 -193 394 -273 l 394 -273 q 394 -359 376 -416 q 357 -474 321 -503 q 285 -532 232 -532 l 232 -532 q 155 -532 112 -465 q 69 -398 69 -273 l 69 -273 q 69 -145 111 -79 q 152 -14 230 -14 z"},"ഡ":{"ha":864,"x_min":42,"x_max":822,"o":"m 430 12 l 430 12 q 401 12 378 1 q 355 -10 341 -26 l 341 -26 q 325 -45 316 -67 q 307 -89 304 -120 q 300 -151 300 -196 l 300 -196 l 300 -336 q 300 -403 292 -442 q 284 -482 263 -505 l 263 -505 q 251 -518 235 -525 q 219 -532 197 -532 l 197 -532 q 153 -532 125 -502 q 96 -472 83 -420 q 69 -368 69 -303 l 69 -303 q 69 -234 83 -181 q 96 -129 120 -87 q 143 -46 171 -10 l 171 -10 l 150 7 q 124 -29 99 -70 q 74 -111 58 -167 q 42 -223 42 -302 l 42 -302 q 42 -381 60 -438 q 78 -495 113 -526 q 148 -558 198 -558 l 198 -558 q 227 -558 249 -547 q 270 -537 284 -521 l 284 -521 q 302 -501 311 -474 q 320 -448 323 -415 q 326 -383 326 -344 l 326 -344 l 326 -205 q 326 -140 334 -102 q 341 -64 362 -41 l 362 -41 q 374 -28 391 -21 q 408 -14 430 -14 l 430 -14 q 452 -14 469 -20 q 485 -27 496 -40 l 496 -40 q 517 -63 525 -105 q 532 -147 532 -208 l 532 -208 l 532 -546 l 558 -546 l 558 -211 q 558 -146 568 -106 q 577 -66 599 -42 l 599 -42 q 611 -29 627 -21 q 643 -14 668 -14 l 668 -14 q 709 -14 737 -45 q 765 -76 780 -128 q 795 -181 795 -243 l 795 -243 q 795 -312 782 -364 q 768 -417 745 -458 q 722 -500 693 -536 l 693 -536 l 714 -552 q 740 -517 765 -475 q 790 -434 806 -378 q 822 -322 822 -243 l 822 -243 q 822 -168 803 -110 q 784 -53 749 -20 q 714 12 666 12 l 666 12 q 615 12 584 -20 q 553 -52 542 -124 l 542 -124 l 550 -133 q 544 -54 514 -21 q 483 12 430 12 z"},"ഢ":{"ha":931,"x_min":42,"x_max":887,"o":"m 430 12 l 430 12 q 401 12 378 1 q 355 -10 341 -26 l 341 -26 q 325 -45 316 -67 q 307 -89 304 -120 q 300 -151 300 -196 l 300 -196 l 300 -336 q 300 -403 292 -442 q 284 -482 263 -505 l 263 -505 q 251 -518 235 -525 q 219 -532 197 -532 l 197 -532 q 153 -532 125 -502 q 96 -472 83 -420 q 69 -368 69 -303 l 69 -303 q 69 -234 83 -181 q 96 -129 120 -87 q 143 -46 171 -10 l 171 -10 l 150 7 q 124 -29 99 -70 q 74 -111 58 -167 q 42 -223 42 -302 l 42 -302 q 42 -381 60 -438 q 78 -495 113 -526 q 148 -558 198 -558 l 198 -558 q 227 -558 249 -547 q 270 -537 284 -521 l 284 -521 q 302 -501 311 -474 q 320 -448 323 -415 q 326 -383 326 -344 l 326 -344 l 326 -205 q 326 -140 334 -102 q 341 -64 362 -41 l 362 -41 q 374 -28 391 -21 q 408 -14 430 -14 l 430 -14 q 452 -14 469 -20 q 485 -27 496 -40 l 496 -40 q 517 -63 525 -105 q 532 -147 532 -208 l 532 -208 l 532 -546 l 558 -546 l 558 -244 l 550 -133 q 544 -54 514 -21 q 483 12 430 12 z m 763 -558 l 763 -558 q 799 -558 827 -537 q 855 -517 871 -465 q 887 -414 887 -321 l 887 -321 q 887 -214 861 -139 q 835 -65 790 -26 q 744 12 686 12 l 686 12 q 620 12 585 -25 q 549 -63 541 -133 l 541 -133 l 539 -176 l 541 -513 l 558 -513 l 558 -221 q 558 -151 568 -109 q 577 -67 604 -42 l 604 -42 q 618 -29 638 -21 q 658 -14 686 -14 l 686 -14 q 739 -14 778 -51 q 817 -88 839 -154 q 861 -221 861 -309 l 861 -309 l 861 -324 q 861 -402 850 -447 q 838 -493 816 -512 q 794 -532 763 -532 l 763 -532 q 742 -532 725 -520 q 707 -509 696 -479 q 685 -450 685 -395 l 685 -395 q 685 -337 705 -303 q 725 -270 766 -270 l 766 -270 q 800 -270 825 -287 q 850 -304 873 -334 l 873 -334 l 882 -311 q 851 -274 824 -259 q 796 -244 766 -244 l 766 -244 q 736 -244 712 -259 q 687 -275 673 -308 q 658 -342 658 -395 l 658 -395 q 658 -456 673 -491 q 687 -527 711 -542 q 735 -558 763 -558 z"},"ണ":{"ha":949,"x_min":44,"x_max":907,"o":"m 245 -558 l 245 -558 q 311 -558 346 -521 q 381 -484 390 -410 l 390 -410 l 381 -413 q 389 -490 423 -524 q 456 -558 508 -558 l 508 -558 q 561 -558 595 -525 q 628 -492 635 -413 l 635 -413 l 627 -422 q 638 -494 669 -526 q 700 -558 751 -558 l 751 -558 q 799 -558 834 -525 q 869 -493 888 -435 q 907 -377 907 -302 l 907 -302 q 907 -223 891 -167 q 875 -111 850 -70 q 825 -29 799 6 l 799 6 l 778 -10 q 807 -46 830 -87 q 853 -129 867 -181 q 880 -234 880 -303 l 880 -303 q 880 -366 865 -418 q 850 -470 822 -501 q 794 -532 753 -532 l 753 -532 q 728 -532 712 -525 q 696 -518 684 -504 l 684 -504 q 662 -480 653 -440 q 643 -400 643 -335 l 643 -335 l 643 0 l 617 0 l 617 -334 q 617 -403 608 -444 q 599 -485 575 -508 l 575 -508 q 563 -519 547 -525 q 530 -532 508 -532 l 508 -532 q 486 -532 470 -525 q 453 -519 441 -508 l 441 -508 q 417 -485 408 -444 q 399 -403 399 -334 l 399 -334 l 399 0 l 373 0 l 373 -325 q 373 -395 364 -437 q 354 -479 327 -504 l 327 -504 q 313 -518 293 -525 q 273 -532 245 -532 l 245 -532 q 193 -532 154 -495 q 114 -458 92 -392 q 70 -326 70 -237 l 70 -237 l 70 -222 q 70 -144 82 -98 q 93 -53 115 -33 q 137 -14 168 -14 l 168 -14 q 189 -14 207 -25 q 225 -37 236 -67 q 246 -97 246 -151 l 246 -151 q 246 -210 226 -243 q 206 -276 165 -276 l 165 -276 q 131 -276 106 -259 q 81 -242 58 -212 l 58 -212 l 49 -235 q 80 -272 108 -287 q 135 -302 165 -302 l 165 -302 q 195 -302 220 -286 q 244 -271 259 -237 q 273 -204 273 -151 l 273 -151 q 273 -90 259 -54 q 244 -19 221 -3 q 197 12 168 12 l 168 12 q 132 12 104 -8 q 76 -29 60 -80 q 44 -132 44 -225 l 44 -225 q 44 -333 70 -407 q 96 -481 142 -519 q 187 -558 245 -558 z"},"ത":{"ha":706,"x_min":42,"x_max":664,"o":"m 352 12 l 352 12 q 317 12 289 -7 q 260 -27 244 -74 q 228 -121 228 -203 l 228 -203 q 228 -255 240 -310 q 251 -366 276 -417 q 301 -468 339 -504 l 339 -504 l 346 -510 q 371 -533 401 -545 q 431 -558 468 -558 l 468 -558 q 515 -558 552 -538 q 588 -518 613 -482 q 638 -446 651 -397 q 664 -349 664 -292 l 664 -292 q 664 -213 646 -156 q 628 -100 602 -60 q 575 -21 548 8 l 548 8 l 529 -10 q 553 -37 578 -74 q 603 -111 620 -163 q 637 -216 637 -291 l 637 -291 q 637 -360 618 -414 q 599 -469 562 -500 q 524 -532 468 -532 l 468 -532 q 436 -532 411 -522 q 386 -512 366 -495 l 366 -495 l 357 -487 q 321 -454 299 -404 q 276 -355 266 -302 q 255 -249 255 -203 l 255 -203 q 255 -130 267 -88 q 279 -47 301 -30 q 323 -14 352 -14 l 352 -14 q 382 -14 404 -30 q 426 -47 438 -88 q 450 -130 450 -203 l 450 -203 q 450 -248 440 -302 q 430 -356 408 -406 q 385 -456 348 -489 l 348 -489 l 341 -495 q 320 -515 296 -523 q 272 -532 243 -532 l 243 -532 q 184 -532 145 -499 q 106 -466 88 -411 q 69 -356 69 -291 l 69 -291 q 69 -222 84 -170 q 98 -119 123 -81 q 147 -43 175 -12 l 175 -12 l 156 6 q 131 -22 105 -60 q 78 -99 60 -155 q 42 -212 42 -291 l 42 -291 q 42 -348 55 -396 q 68 -445 94 -481 q 120 -517 158 -537 q 195 -558 244 -558 l 244 -558 q 279 -558 307 -546 q 335 -534 360 -511 l 360 -511 l 369 -503 q 423 -451 450 -370 q 477 -289 477 -203 l 477 -203 q 477 -121 461 -74 q 445 -27 417 -7 q 388 12 352 12 z"},"ഥ":{"ha":636,"x_min":65,"x_max":575,"o":"m 65 -546 l 91 -546 l 91 -26 l 272 -26 l 272 0 l 65 0 l 65 -546 z m 422 -558 l 422 -558 q 453 -558 477 -549 q 500 -540 516 -526 l 516 -526 q 554 -493 565 -446 q 575 -400 575 -335 l 575 -335 l 575 0 l 263 0 l 263 -342 q 263 -381 268 -414 q 273 -448 286 -475 q 298 -503 322 -524 l 322 -524 q 339 -539 365 -548 q 390 -558 422 -558 z m 422 -532 l 422 -532 q 394 -532 372 -523 q 349 -515 334 -501 l 334 -501 q 304 -471 297 -426 q 289 -381 289 -327 l 289 -327 l 289 -26 l 549 -26 l 549 -329 q 549 -382 542 -429 q 534 -476 502 -504 l 502 -504 q 488 -517 469 -524 q 449 -532 422 -532 z"},"ദ":{"ha":448,"x_min":46,"x_max":412,"o":"m 266 -558 l 266 -558 q 308 -558 339 -540 q 370 -523 387 -490 q 404 -457 404 -412 l 404 -412 q 404 -350 376 -312 q 347 -275 283 -268 l 283 -268 l 284 -274 q 340 -269 376 -233 q 412 -197 412 -130 l 412 -130 q 412 -63 379 -27 q 346 9 283 9 l 283 9 q 264 9 246 6 q 227 3 212 -1 l 212 -1 l 218 -26 q 233 -22 249 -19 q 265 -17 284 -17 l 284 -17 q 331 -17 358 -41 q 385 -66 385 -130 l 385 -130 q 385 -164 375 -187 q 365 -211 346 -227 l 346 -227 q 328 -242 304 -249 q 280 -257 239 -257 l 239 -257 l 224 -257 l 224 -283 l 238 -283 q 274 -283 299 -290 q 324 -297 341 -312 l 341 -312 q 358 -327 368 -350 q 377 -374 377 -411 l 377 -411 q 377 -473 347 -502 q 316 -532 266 -532 l 266 -532 q 204 -532 161 -492 q 117 -452 95 -382 q 73 -313 73 -224 l 73 -224 q 73 -159 81 -105 q 88 -51 98 1 l 98 1 l 73 6 q 62 -49 54 -106 q 46 -164 46 -222 l 46 -222 q 46 -323 73 -398 q 100 -474 150 -516 q 199 -558 266 -558 z"},"ധ":{"ha":638,"x_min":42,"x_max":596,"o":"m 437 12 l 437 12 q 404 12 379 -2 q 354 -16 339 -46 q 323 -77 316 -124 l 316 -124 l 322 -124 q 312 -52 281 -20 q 249 12 198 12 l 198 12 q 150 12 115 -21 q 80 -54 61 -111 q 42 -169 42 -244 l 42 -244 q 42 -323 58 -379 q 74 -435 99 -476 q 124 -517 150 -552 l 150 -552 l 171 -536 q 143 -500 120 -458 q 96 -417 83 -364 q 69 -312 69 -243 l 69 -243 q 69 -181 84 -128 q 99 -76 128 -45 q 156 -14 197 -14 l 197 -14 q 221 -14 237 -21 q 253 -29 265 -42 l 265 -42 q 287 -66 297 -106 q 306 -146 306 -211 l 306 -211 l 306 -546 l 332 -546 l 332 -211 q 332 -147 341 -106 q 350 -66 372 -42 l 372 -42 q 384 -29 400 -21 q 416 -14 438 -14 l 438 -14 q 481 -14 510 -45 q 539 -76 554 -128 q 569 -181 569 -243 l 569 -243 q 569 -312 556 -364 q 542 -417 519 -458 q 496 -500 467 -536 l 467 -536 l 488 -552 q 514 -517 539 -476 q 564 -435 580 -379 q 596 -323 596 -244 l 596 -244 q 596 -169 577 -111 q 557 -54 522 -21 q 486 12 437 12 z"},"ന":{"ha":638,"x_min":42,"x_max":596,"o":"m 201 -558 l 201 -558 q 234 -558 259 -544 q 284 -530 300 -500 q 316 -470 322 -422 l 322 -422 l 316 -422 q 327 -494 358 -526 q 389 -558 440 -558 l 440 -558 q 488 -558 523 -525 q 558 -493 577 -435 q 596 -377 596 -302 l 596 -302 q 596 -223 580 -167 q 564 -111 539 -70 q 514 -29 488 6 l 488 6 l 467 -10 q 496 -46 519 -87 q 542 -129 556 -181 q 569 -234 569 -303 l 569 -303 q 569 -366 554 -418 q 539 -470 511 -501 q 482 -532 441 -532 l 441 -532 q 417 -532 401 -525 q 385 -518 373 -504 l 373 -504 q 351 -480 342 -440 q 332 -400 332 -335 l 332 -335 l 332 0 l 306 0 l 306 -335 q 306 -399 297 -439 q 288 -480 266 -504 l 266 -504 q 254 -518 238 -525 q 222 -532 200 -532 l 200 -532 q 158 -532 129 -501 q 99 -470 84 -418 q 69 -366 69 -303 l 69 -303 q 69 -234 83 -181 q 96 -129 120 -87 q 143 -46 171 -10 l 171 -10 l 150 6 q 124 -29 99 -70 q 74 -111 58 -167 q 42 -223 42 -302 l 42 -302 q 42 -377 62 -435 q 81 -493 117 -525 q 153 -558 201 -558 z"},"ഩ":{"ha":705,"x_min":44,"x_max":663,"o":"m 245 -558 l 245 -558 q 311 -558 347 -520 q 382 -483 390 -413 l 390 -413 l 383 -423 q 394 -494 425 -526 q 456 -558 507 -558 l 507 -558 q 555 -558 590 -525 q 625 -493 644 -435 q 663 -377 663 -302 l 663 -302 q 663 -224 647 -168 q 631 -112 606 -70 q 581 -29 555 6 l 555 6 l 534 -10 q 563 -46 586 -87 q 609 -129 623 -181 q 636 -234 636 -303 l 636 -303 q 636 -366 621 -418 q 606 -470 578 -501 q 549 -532 508 -532 l 508 -532 q 484 -532 468 -525 q 452 -518 440 -504 l 440 -504 q 418 -480 409 -440 q 399 -400 399 -335 l 399 -335 l 399 0 l 373 0 l 373 -325 q 373 -395 364 -437 q 354 -479 327 -504 l 327 -504 q 313 -518 293 -525 q 273 -532 245 -532 l 245 -532 q 193 -532 154 -495 q 114 -458 92 -392 q 70 -326 70 -237 l 70 -237 l 70 -222 q 70 -144 82 -98 q 93 -53 115 -33 q 137 -14 168 -14 l 168 -14 q 189 -14 207 -25 q 225 -37 236 -67 q 246 -97 246 -151 l 246 -151 q 246 -210 226 -243 q 206 -276 165 -276 l 165 -276 q 131 -276 106 -259 q 81 -242 58 -212 l 58 -212 l 49 -235 q 80 -272 108 -287 q 135 -302 165 -302 l 165 -302 q 195 -302 220 -286 q 244 -271 259 -237 q 273 -204 273 -151 l 273 -151 q 273 -90 259 -54 q 244 -19 221 -3 q 197 12 168 12 l 168 12 q 132 12 104 -8 q 76 -29 60 -80 q 44 -132 44 -225 l 44 -225 q 44 -333 70 -407 q 96 -481 142 -519 q 187 -558 245 -558 z"},"പ":{"ha":626,"x_min":34,"x_max":561,"o":"m 159 -327 l 159 -327 q 196 -327 224 -309 q 252 -292 268 -257 q 284 -222 284 -171 l 284 -171 q 284 -124 268 -82 q 251 -40 224 -10 l 224 -10 l 228 -26 l 535 -26 l 535 -546 l 561 -546 l 561 0 l 217 0 l 203 -19 q 228 -50 243 -89 q 257 -128 257 -170 l 257 -170 q 257 -238 230 -269 q 203 -301 159 -301 l 159 -301 q 128 -301 106 -285 q 84 -269 73 -240 q 61 -212 61 -172 l 61 -172 q 61 -119 80 -79 q 99 -39 123 -9 l 123 -9 l 103 8 q 75 -28 55 -71 q 34 -115 34 -173 l 34 -173 q 34 -220 50 -254 q 66 -289 94 -308 q 122 -327 159 -327 z"},"ഫ":{"ha":796,"x_min":34,"x_max":735,"o":"m 159 -327 l 159 -327 q 196 -327 224 -309 q 252 -292 268 -257 q 284 -222 284 -171 l 284 -171 q 284 -124 268 -82 q 251 -40 224 -10 l 224 -10 l 228 -26 l 447 -26 l 447 0 l 217 0 l 203 -19 q 228 -50 243 -89 q 257 -128 257 -170 l 257 -170 q 257 -238 230 -269 q 203 -301 159 -301 l 159 -301 q 128 -301 106 -285 q 84 -269 73 -240 q 61 -212 61 -172 l 61 -172 q 61 -119 80 -79 q 99 -39 123 -9 l 123 -9 l 103 8 q 75 -28 55 -71 q 34 -115 34 -173 l 34 -173 q 34 -220 50 -254 q 66 -289 94 -308 q 122 -327 159 -327 z m 582 -558 l 582 -558 q 613 -558 637 -549 q 660 -540 676 -526 l 676 -526 q 714 -493 725 -446 q 735 -400 735 -335 l 735 -335 l 735 0 l 423 0 l 423 -342 q 423 -381 428 -414 q 432 -448 445 -475 q 458 -503 482 -524 l 482 -524 q 499 -539 525 -548 q 550 -558 582 -558 z m 582 -532 l 582 -532 q 554 -532 532 -523 q 509 -515 494 -501 l 494 -501 q 464 -471 457 -426 q 449 -381 449 -327 l 449 -327 l 449 -26 l 709 -26 l 709 -329 q 709 -382 702 -429 q 694 -476 662 -504 l 662 -504 q 648 -517 629 -524 q 609 -532 582 -532 z"},"ബ":{"ha":914,"x_min":44,"x_max":849,"o":"m 245 -558 l 245 -558 q 311 -558 347 -520 q 382 -483 390 -413 l 390 -413 l 394 -368 l 399 -269 l 399 0 l 373 0 l 373 -325 q 373 -395 364 -437 q 354 -479 327 -504 l 327 -504 q 313 -518 293 -525 q 273 -532 245 -532 l 245 -532 q 193 -532 154 -495 q 114 -458 92 -392 q 70 -326 70 -237 l 70 -237 l 70 -222 q 70 -144 82 -98 q 93 -53 115 -33 q 137 -14 168 -14 l 168 -14 q 189 -14 207 -25 q 225 -37 236 -67 q 246 -97 246 -151 l 246 -151 q 246 -210 226 -243 q 206 -276 165 -276 l 165 -276 q 131 -276 106 -259 q 81 -242 58 -212 l 58 -212 l 49 -235 q 80 -272 108 -287 q 135 -302 165 -302 l 165 -302 q 195 -302 220 -286 q 244 -271 259 -237 q 273 -204 273 -151 l 273 -151 q 273 -90 259 -54 q 244 -19 221 -3 q 197 12 168 12 l 168 12 q 132 12 104 -8 q 76 -29 60 -80 q 44 -132 44 -225 l 44 -225 q 44 -333 70 -407 q 96 -481 142 -519 q 187 -558 245 -558 z m 823 -546 l 849 -546 l 849 0 l 557 0 l 545 -21 q 568 -55 589 -93 q 610 -132 623 -183 q 636 -234 636 -303 l 636 -303 q 636 -366 621 -418 q 606 -470 578 -501 q 549 -532 508 -532 l 508 -532 q 484 -532 468 -525 q 452 -518 440 -504 l 440 -504 q 418 -480 409 -440 q 399 -400 399 -335 l 399 -335 l 399 -10 l 375 -10 l 375 -274 l 382 -357 l 383 -422 q 394 -494 425 -526 q 456 -558 507 -558 l 507 -558 q 555 -558 590 -525 q 625 -493 644 -435 q 663 -377 663 -302 l 663 -302 q 663 -225 648 -170 q 632 -116 611 -79 q 590 -43 572 -18 l 572 -18 l 566 -26 l 823 -26 l 823 -546 z"},"ഭ":{"ha":458,"x_min":46,"x_max":427,"o":"m 284 -558 l 284 -558 q 328 -558 360 -542 q 392 -526 410 -497 q 427 -468 427 -429 l 427 -429 q 427 -407 421 -388 q 415 -369 402 -356 l 402 -356 q 389 -343 368 -336 q 347 -329 314 -329 l 314 -329 l 313 -329 q 294 -328 279 -325 q 264 -322 253 -315 l 253 -315 q 240 -307 234 -295 q 227 -283 227 -266 l 227 -266 q 227 -232 250 -217 q 272 -203 312 -203 l 312 -203 l 313 -203 q 342 -203 367 -193 q 392 -183 408 -162 l 408 -162 q 417 -150 422 -135 q 427 -120 427 -101 l 427 -101 q 427 -67 414 -41 q 401 -16 372 -2 q 343 12 295 12 l 295 12 q 285 12 265 10 q 245 8 224 4 q 202 -1 185 -8 l 185 -8 l 195 -32 q 221 -22 246 -18 q 271 -14 299 -14 l 299 -14 q 358 -14 379 -37 q 400 -60 400 -101 l 400 -101 q 400 -136 379 -156 q 358 -176 312 -177 l 312 -177 l 311 -177 q 280 -178 260 -184 q 239 -191 228 -201 l 228 -201 q 215 -212 208 -228 q 200 -244 200 -266 l 200 -266 q 200 -285 208 -302 q 215 -320 231 -331 l 231 -331 q 247 -342 267 -348 q 286 -354 317 -355 l 317 -355 l 318 -355 q 364 -356 382 -373 q 400 -390 400 -429 l 400 -429 q 400 -474 372 -503 q 343 -532 284 -532 l 284 -532 q 212 -532 165 -492 q 118 -452 96 -382 q 73 -313 73 -224 l 73 -224 q 73 -159 81 -105 q 88 -51 98 1 l 98 1 l 73 6 q 62 -49 54 -106 q 46 -164 46 -222 l 46 -222 q 46 -323 74 -398 q 101 -474 155 -516 q 208 -558 284 -558 z"},"മ":{"ha":502,"x_min":56,"x_max":446,"o":"m 253 -558 l 253 -558 q 299 -558 334 -542 q 368 -527 390 -501 l 390 -501 q 411 -476 424 -443 q 436 -410 441 -370 q 446 -330 446 -280 l 446 -280 l 446 0 l 56 0 l 56 -277 q 56 -329 62 -371 q 67 -413 80 -445 q 93 -478 114 -502 l 114 -502 q 137 -528 172 -543 q 207 -558 253 -558 z m 220 -527 l 220 -527 q 194 -527 173 -517 q 152 -507 135 -487 l 135 -487 q 110 -456 96 -406 q 82 -357 82 -266 l 82 -266 l 82 -26 l 90 -26 q 147 -87 195 -151 q 243 -215 272 -280 q 301 -346 301 -408 l 301 -408 q 301 -440 294 -467 q 286 -494 269 -510 q 251 -527 220 -527 z m 328 -409 l 328 -409 q 328 -342 299 -275 q 270 -208 221 -142 q 172 -77 111 -11 l 111 -11 l 115 -24 q 138 -26 171 -26 q 204 -26 232 -26 l 232 -26 l 420 -26 l 420 -269 q 420 -354 405 -412 q 389 -471 354 -502 q 318 -534 258 -535 l 258 -535 l 257 -537 q 296 -524 312 -490 q 328 -456 328 -409 z"},"യ":{"ha":732,"x_min":42,"x_max":686,"o":"m 476 12 l 476 12 q 444 12 418 3 q 391 -6 368 -22 l 368 -22 q 366 -24 364 -26 q 361 -28 359 -29 l 359 -29 q 317 -64 292 -116 q 267 -169 256 -228 q 244 -288 244 -345 l 244 -345 q 244 -392 251 -430 q 258 -468 273 -495 l 273 -495 l 280 -505 q 291 -523 305 -534 q 319 -546 337 -552 q 354 -558 375 -558 l 375 -558 q 434 -558 469 -505 q 503 -453 503 -342 l 503 -342 q 503 -241 477 -157 q 450 -73 388 -29 l 388 -29 q 387 -28 385 -27 q 383 -26 381 -24 l 381 -24 q 356 -7 326 3 q 296 12 259 12 l 259 12 q 208 12 168 -11 q 128 -34 100 -77 q 71 -121 57 -184 q 42 -247 42 -326 l 42 -326 q 42 -405 62 -456 q 82 -508 116 -533 q 149 -558 189 -558 l 189 -558 q 228 -558 254 -539 q 279 -521 295 -500 l 295 -500 l 277 -481 q 261 -504 240 -518 q 218 -532 191 -532 l 191 -532 q 159 -532 131 -511 q 103 -491 86 -446 q 69 -401 69 -325 l 69 -325 q 69 -229 91 -159 q 112 -90 155 -52 q 197 -14 258 -14 l 258 -14 q 287 -14 312 -20 q 337 -27 357 -38 l 357 -38 q 359 -40 362 -41 q 365 -43 367 -44 l 367 -44 q 407 -71 431 -117 q 455 -164 466 -222 q 476 -281 476 -342 l 476 -342 q 476 -409 465 -450 q 453 -492 431 -512 q 408 -532 375 -532 l 375 -532 q 343 -532 320 -512 q 296 -493 284 -451 q 271 -410 271 -344 l 271 -344 q 271 -294 282 -236 q 292 -178 316 -127 q 339 -76 379 -45 l 379 -45 q 381 -44 384 -42 q 386 -41 388 -39 l 388 -39 q 407 -26 429 -20 q 450 -14 476 -14 l 476 -14 q 542 -14 582 -47 q 622 -80 641 -141 q 659 -203 659 -289 l 659 -289 q 659 -360 641 -425 q 623 -491 588 -545 l 588 -545 l 611 -558 q 646 -500 666 -434 q 686 -368 686 -289 l 686 -289 q 686 -219 674 -163 q 661 -107 636 -68 q 610 -29 571 -8 q 531 12 476 12 z"},"ര":{"ha":511,"x_min":42,"x_max":469,"o":"m 252 -558 l 252 -558 q 306 -558 347 -535 q 387 -512 415 -469 q 442 -426 456 -367 q 469 -308 469 -236 l 469 -236 q 469 -139 453 -85 q 436 -31 408 -9 q 379 12 341 12 l 341 12 q 297 12 269 -12 q 241 -36 228 -81 q 215 -127 215 -189 l 215 -189 q 215 -288 251 -334 q 286 -380 343 -380 l 343 -380 q 374 -380 397 -368 q 419 -356 436 -336 q 452 -317 462 -295 l 462 -295 l 457 -271 q 444 -294 429 -312 q 414 -331 394 -342 q 374 -354 345 -354 l 345 -354 q 292 -354 267 -312 q 242 -270 242 -188 l 242 -188 q 242 -134 252 -95 q 261 -56 283 -35 q 305 -14 342 -14 l 342 -14 q 373 -14 396 -34 q 418 -54 431 -102 q 443 -151 443 -236 l 443 -236 q 443 -253 443 -275 q 442 -298 440 -306 l 440 -306 q 441 -308 442 -309 q 442 -310 441 -314 l 441 -314 q 432 -370 411 -420 q 390 -470 352 -501 q 314 -532 252 -532 l 252 -532 q 190 -532 149 -498 q 108 -465 89 -410 q 69 -356 69 -291 l 69 -291 q 69 -222 84 -170 q 98 -119 123 -81 q 147 -43 175 -12 l 175 -12 l 156 6 q 131 -22 105 -60 q 78 -99 60 -155 q 42 -212 42 -291 l 42 -291 q 42 -347 56 -395 q 69 -443 96 -480 q 122 -517 162 -537 q 201 -558 252 -558 z"},"റ":{"ha":471,"x_min":42,"x_max":429,"o":"m 238 -558 l 238 -558 q 284 -558 320 -538 q 355 -518 380 -482 q 404 -446 417 -397 q 429 -349 429 -292 l 429 -292 q 429 -213 411 -156 q 393 -100 367 -60 q 340 -21 313 8 l 313 8 l 294 -10 q 318 -37 343 -74 q 368 -111 385 -163 q 402 -216 402 -291 l 402 -291 q 402 -361 384 -415 q 365 -470 328 -501 q 291 -532 237 -532 l 237 -532 q 181 -532 144 -499 q 106 -466 88 -411 q 69 -356 69 -291 l 69 -291 q 69 -222 84 -170 q 98 -119 123 -81 q 147 -43 175 -12 l 175 -12 l 156 6 q 131 -22 105 -60 q 78 -99 60 -155 q 42 -212 42 -291 l 42 -291 q 42 -348 55 -396 q 68 -445 94 -481 q 119 -517 156 -537 q 192 -558 238 -558 z"},"ല":{"ha":603,"x_min":61,"x_max":538,"o":"m 512 -546 l 538 -546 l 538 0 l 61 0 l 61 -342 q 61 -400 71 -443 q 81 -486 105 -513 l 105 -513 q 126 -537 154 -547 q 181 -558 215 -558 l 215 -558 q 250 -558 276 -546 q 302 -535 321 -512 l 321 -512 q 343 -486 354 -445 q 364 -404 364 -345 l 364 -345 l 364 -236 l 87 -236 l 87 -26 l 512 -26 l 512 -546 z m 214 -532 l 214 -532 q 150 -532 119 -488 q 87 -444 87 -340 l 87 -340 l 87 -262 l 338 -262 l 338 -339 q 338 -441 308 -486 q 277 -532 214 -532 z"},"ള":{"ha":510,"x_min":40,"x_max":474,"o":"m 292 -532 l 292 -532 q 244 -532 206 -517 q 167 -503 139 -477 q 111 -451 94 -416 q 76 -382 69 -343 l 69 -343 q 68 -339 68 -336 q 68 -333 68 -328 l 68 -328 q 67 -320 67 -311 q 66 -303 66 -295 l 66 -295 q 66 -213 87 -170 q 107 -128 154 -128 l 154 -128 q 190 -128 209 -159 q 227 -191 227 -249 l 227 -249 q 227 -279 220 -304 q 213 -329 197 -344 q 181 -359 153 -359 l 153 -359 q 124 -359 100 -344 q 76 -329 54 -303 l 54 -303 l 46 -325 q 61 -344 77 -357 q 93 -370 112 -377 q 131 -385 154 -385 l 154 -385 q 188 -385 210 -366 q 232 -348 243 -317 q 254 -287 254 -249 l 254 -249 q 254 -202 242 -169 q 230 -136 208 -119 q 186 -102 156 -102 l 156 -102 q 119 -102 93 -122 q 67 -143 54 -185 q 40 -228 40 -294 l 40 -294 q 40 -345 56 -392 q 72 -440 104 -477 q 135 -514 183 -536 q 230 -558 292 -558 l 292 -558 q 347 -558 386 -537 q 424 -516 445 -480 q 466 -445 466 -401 l 466 -401 q 466 -376 457 -346 q 448 -317 422 -295 q 396 -273 346 -268 l 346 -268 l 305 -265 l 305 -283 l 308 -283 q 339 -283 362 -289 q 385 -296 401 -309 l 401 -309 q 417 -322 428 -344 q 439 -367 439 -400 l 439 -400 q 439 -441 421 -470 q 402 -500 369 -516 q 336 -532 292 -532 z m 474 -139 l 474 -139 q 474 -106 464 -78 q 454 -51 433 -34 l 433 -34 q 417 -21 399 -13 q 381 -6 359 -3 q 336 0 305 0 l 305 0 l 222 0 q 171 0 140 6 q 109 11 91 30 l 91 30 q 82 40 77 54 q 72 68 72 86 l 72 86 q 72 108 80 124 q 87 139 100 150 l 100 150 q 117 163 145 169 q 172 175 218 175 l 218 175 l 449 175 l 449 201 l 211 201 q 166 201 137 194 q 107 187 84 170 l 84 170 q 65 156 55 135 q 45 114 45 86 l 45 86 q 45 63 52 45 q 59 26 72 13 l 72 13 q 86 -1 105 -9 q 123 -18 151 -22 q 178 -26 219 -26 l 219 -26 l 305 -26 q 349 -26 374 -32 q 398 -38 414 -52 l 414 -52 q 431 -66 439 -88 q 447 -111 447 -139 l 447 -139 q 447 -168 437 -191 q 427 -214 408 -229 l 408 -229 q 390 -243 366 -250 q 342 -257 309 -257 l 309 -257 l 305 -257 l 305 -268 l 346 -274 q 402 -269 438 -235 q 474 -201 474 -139 z"},"ഴ":{"ha":468,"x_min":39,"x_max":429,"o":"m 203 -421 l 203 -421 q 203 -480 235 -519 q 266 -558 316 -558 l 316 -558 q 353 -558 378 -537 q 403 -516 416 -480 q 429 -445 429 -400 l 429 -400 q 429 -331 407 -279 q 385 -227 345 -198 q 305 -169 250 -169 l 250 -169 l 244 -169 q 186 -169 140 -192 q 93 -216 66 -265 q 39 -315 39 -393 l 39 -393 q 39 -437 51 -478 q 62 -520 82 -557 l 82 -557 l 105 -544 q 84 -503 75 -467 q 66 -431 66 -392 l 66 -392 q 66 -322 90 -278 q 113 -235 153 -215 q 192 -195 241 -195 l 241 -195 l 252 -195 q 301 -195 334 -222 q 367 -249 385 -295 q 402 -341 402 -399 l 402 -399 q 402 -458 381 -495 q 359 -532 316 -532 l 316 -532 q 289 -532 270 -517 q 250 -502 240 -477 q 230 -452 230 -420 l 230 -420 q 230 -379 241 -340 q 251 -301 265 -263 q 279 -226 290 -189 q 300 -152 300 -115 l 300 -115 q 300 -76 288 -47 q 275 -19 249 -3 q 223 12 181 12 l 181 12 q 156 12 128 6 q 100 -1 77 -13 l 77 -13 l 88 -37 q 110 -26 135 -20 q 159 -14 182 -14 l 182 -14 q 230 -14 252 -39 q 273 -64 273 -116 l 273 -116 q 273 -153 263 -189 q 252 -225 238 -262 q 224 -299 214 -338 q 203 -378 203 -421 z"},"വ":{"ha":680,"x_min":42,"x_max":615,"o":"m 238 -558 l 238 -558 q 284 -558 320 -538 q 355 -518 380 -482 q 404 -446 417 -397 q 429 -349 429 -292 l 429 -292 q 429 -213 411 -157 q 393 -101 369 -66 q 345 -31 325 -12 l 325 -12 l 328 -26 l 589 -26 l 589 -546 l 615 -546 l 615 0 l 315 0 l 303 -21 q 323 -43 346 -78 q 369 -113 386 -165 q 402 -218 402 -291 l 402 -291 q 402 -361 384 -415 q 365 -470 328 -501 q 291 -532 237 -532 l 237 -532 q 181 -532 144 -499 q 106 -466 88 -411 q 69 -356 69 -291 l 69 -291 q 69 -222 84 -170 q 98 -119 123 -81 q 147 -43 175 -12 l 175 -12 l 156 6 q 131 -22 105 -60 q 78 -99 60 -155 q 42 -212 42 -291 l 42 -291 q 42 -348 55 -396 q 68 -445 94 -481 q 119 -517 156 -537 q 192 -558 238 -558 z"},"ശ":{"ha":715,"x_min":42,"x_max":673,"o":"m 461 -558 l 461 -558 q 515 -558 555 -535 q 594 -512 621 -469 q 647 -426 660 -367 q 673 -308 673 -236 l 673 -236 q 673 -139 657 -85 q 640 -31 612 -9 q 583 12 545 12 l 545 12 q 501 12 473 -12 q 445 -36 432 -81 q 419 -127 419 -189 l 419 -189 q 419 -288 455 -334 q 490 -380 547 -380 l 547 -380 q 578 -380 601 -368 q 623 -356 640 -336 q 656 -317 666 -295 l 666 -295 l 661 -271 q 648 -294 633 -312 q 618 -331 598 -342 q 578 -354 549 -354 l 549 -354 q 496 -354 471 -312 q 446 -270 446 -188 l 446 -188 q 446 -134 456 -95 q 465 -56 487 -35 q 509 -14 546 -14 l 546 -14 q 577 -14 600 -34 q 622 -54 635 -102 q 647 -151 647 -236 l 647 -236 q 647 -253 647 -275 q 646 -298 644 -306 l 644 -306 q 645 -308 646 -309 q 646 -310 645 -314 l 645 -314 q 636 -370 616 -420 q 595 -470 558 -501 q 520 -532 460 -532 l 460 -532 q 435 -532 414 -524 q 392 -517 375 -502 l 375 -502 q 350 -479 337 -442 q 324 -406 324 -331 l 324 -331 l 324 -202 q 324 -144 317 -99 q 309 -55 282 -25 l 282 -25 q 268 -9 247 2 q 226 12 197 12 l 197 12 q 148 12 113 -19 q 78 -51 60 -108 q 42 -166 42 -244 l 42 -244 q 42 -323 58 -379 q 74 -435 99 -476 q 124 -518 150 -553 l 150 -553 l 171 -536 q 143 -500 120 -458 q 96 -417 83 -364 q 69 -312 69 -243 l 69 -243 q 69 -178 83 -126 q 96 -74 124 -44 q 152 -14 196 -14 l 196 -14 q 218 -14 234 -21 q 249 -28 261 -41 l 261 -41 q 282 -64 290 -103 q 298 -143 298 -210 l 298 -210 l 298 -337 q 298 -411 313 -452 q 328 -494 358 -521 l 358 -521 q 378 -539 405 -548 q 432 -558 461 -558 z"},"ഷ":{"ha":790,"x_min":34,"x_max":725,"o":"m 159 -327 l 159 -327 q 196 -327 224 -309 q 252 -292 268 -257 q 284 -222 284 -171 l 284 -171 q 284 -124 268 -82 q 251 -40 224 -10 l 224 -10 l 228 -26 l 478 -26 l 480 0 l 217 0 l 203 -19 q 228 -50 243 -89 q 257 -128 257 -170 l 257 -170 q 257 -238 230 -269 q 203 -301 159 -301 l 159 -301 q 128 -301 106 -285 q 84 -269 73 -240 q 61 -212 61 -172 l 61 -172 q 61 -119 80 -79 q 99 -39 123 -9 l 123 -9 l 103 8 q 75 -28 55 -71 q 34 -115 34 -173 l 34 -173 q 34 -220 50 -254 q 66 -289 94 -308 q 122 -327 159 -327 z m 725 0 l 466 0 l 466 -409 q 466 -456 461 -480 q 455 -505 442 -518 l 442 -518 q 435 -525 426 -528 q 417 -532 405 -532 l 405 -532 q 374 -532 354 -501 q 333 -471 333 -415 l 333 -415 q 333 -369 347 -338 q 361 -308 390 -293 q 418 -279 461 -279 l 461 -279 l 472 -279 q 513 -279 546 -295 q 579 -312 607 -345 q 634 -379 657 -429 q 680 -479 700 -546 l 700 -546 l 725 -546 l 725 0 z m 405 -558 l 405 -558 q 422 -558 435 -553 q 448 -548 458 -539 l 458 -539 q 481 -519 487 -487 q 492 -456 492 -409 l 492 -409 l 492 -26 l 699 -26 l 699 -400 q 699 -414 699 -432 q 699 -450 700 -468 q 701 -487 702 -502 l 702 -502 l 706 -498 q 682 -414 649 -359 q 616 -305 572 -279 q 527 -253 469 -253 l 469 -253 l 463 -253 q 412 -253 377 -271 q 342 -289 324 -325 q 306 -362 306 -417 l 306 -417 q 306 -454 318 -486 q 329 -518 351 -538 q 373 -558 405 -558 z"},"സ":{"ha":864,"x_min":42,"x_max":822,"o":"m 434 -558 l 434 -558 q 463 -558 486 -547 q 509 -536 523 -520 l 523 -520 q 540 -502 549 -480 q 557 -458 561 -427 q 564 -396 564 -350 l 564 -350 l 564 -210 q 564 -143 572 -103 q 580 -64 601 -41 l 601 -41 q 613 -28 629 -21 q 645 -14 667 -14 l 667 -14 q 712 -14 740 -44 q 768 -74 782 -126 q 795 -178 795 -243 l 795 -243 q 795 -312 782 -364 q 768 -417 745 -458 q 722 -500 693 -536 l 693 -536 l 714 -553 q 740 -518 765 -476 q 790 -435 806 -379 q 822 -323 822 -244 l 822 -244 q 822 -166 804 -108 q 786 -51 751 -19 q 716 12 666 12 l 666 12 q 638 12 616 2 q 594 -9 580 -25 l 580 -25 q 562 -45 553 -71 q 544 -98 541 -131 q 538 -164 538 -202 l 538 -202 l 538 -341 q 538 -406 531 -444 q 523 -483 502 -505 l 502 -505 q 490 -518 473 -525 q 456 -532 434 -532 l 434 -532 q 412 -532 396 -525 q 379 -519 368 -506 l 368 -506 q 347 -484 340 -442 q 332 -400 332 -338 l 332 -338 l 332 0 l 306 0 l 306 -335 q 306 -400 297 -440 q 287 -480 265 -504 l 265 -504 q 253 -518 237 -525 q 221 -532 196 -532 l 196 -532 q 156 -532 128 -501 q 99 -470 84 -418 q 69 -366 69 -303 l 69 -303 q 69 -234 83 -181 q 96 -129 120 -87 q 143 -46 171 -10 l 171 -10 l 150 6 q 124 -29 99 -70 q 74 -112 58 -168 q 42 -224 42 -303 l 42 -303 q 42 -378 61 -435 q 80 -493 115 -525 q 150 -558 198 -558 l 198 -558 q 249 -558 281 -526 q 312 -494 322 -422 l 322 -422 l 314 -413 q 320 -492 351 -525 q 382 -558 434 -558 z"},"ഹ":{"ha":829,"x_min":34,"x_max":787,"o":"m 159 -327 l 159 -327 q 196 -327 224 -309 q 252 -292 268 -257 q 284 -222 284 -171 l 284 -171 q 284 -124 268 -82 q 251 -40 224 -10 l 224 -10 l 228 -26 l 512 -26 l 516 0 l 217 0 l 203 -19 q 228 -50 243 -89 q 257 -128 257 -170 l 257 -170 q 257 -238 230 -269 q 203 -301 159 -301 l 159 -301 q 128 -301 106 -285 q 84 -269 73 -240 q 61 -212 61 -172 l 61 -172 q 61 -119 80 -79 q 99 -39 123 -9 l 123 -9 l 103 8 q 75 -28 55 -71 q 34 -115 34 -173 l 34 -173 q 34 -220 50 -254 q 66 -289 94 -308 q 122 -327 159 -327 z m 595 -558 l 595 -558 q 642 -558 678 -538 q 713 -518 738 -482 q 762 -446 775 -397 q 787 -349 787 -292 l 787 -292 q 787 -213 769 -156 q 751 -100 725 -60 q 698 -21 671 8 l 671 8 l 652 -10 q 676 -37 701 -74 q 726 -111 743 -163 q 760 -216 760 -291 l 760 -291 q 760 -361 741 -415 q 722 -470 686 -501 q 649 -532 595 -532 l 595 -532 q 539 -532 502 -499 q 464 -466 446 -411 q 427 -356 427 -291 l 427 -291 q 427 -222 442 -171 q 456 -120 479 -83 q 502 -47 525 -21 l 525 -21 l 513 0 l 496 0 l 493 -21 q 476 -42 454 -75 q 432 -109 416 -161 q 400 -214 400 -291 l 400 -291 q 400 -348 413 -396 q 426 -445 452 -481 q 477 -517 513 -537 q 549 -558 595 -558 z"},"ഺ":{"ha":544,"x_min":24,"x_max":527,"o":"m 52 -26 l 527 -26 l 527 0 l 315 0 l 315 202 l 289 202 l 289 0 l 44 0 l 24 -24 l 226 -558 l 251 -549 l 52 -26 z"},"഻":{"ha":0,"x_min":-292,"x_max":-266,"o":"m -292 -581 l -292 -864 l -266 -864 l -266 -581 l -292 -581 z"},"഼":{"ha":0,"x_min":-172,"x_max":8,"o":"m -172 -725 l -172 -725 q -172 -785 -147 -817 q -122 -849 -82 -849 l -82 -849 q -42 -849 -17 -817 q 8 -785 8 -725 l 8 -725 q 8 -665 -17 -633 q -42 -601 -82 -601 l -82 -601 q -122 -601 -147 -633 q -172 -665 -172 -725 z m -145 -725 l -145 -725 q -145 -676 -128 -651 q -111 -626 -82 -626 l -82 -626 q -53 -626 -36 -651 q -19 -676 -19 -725 l -19 -725 q -19 -774 -36 -799 q -53 -824 -82 -824 l -82 -824 q -111 -824 -128 -799 q -145 -774 -145 -725 z"},"ഽ":{"ha":316,"x_min":-54,"x_max":370,"o":"m 255 -784 l 255 -784 q 290 -784 314 -765 q 338 -746 352 -714 q 365 -682 370 -643 l 370 -643 l 345 -637 q 339 -671 329 -698 q 319 -725 302 -741 q 284 -758 255 -758 l 255 -758 q 241 -758 230 -755 q 219 -752 208 -744 l 208 -744 q 184 -725 178 -688 q 171 -651 171 -602 l 171 -602 l 171 69 q 171 134 161 168 q 150 201 127 221 l 127 221 q 113 233 96 239 q 79 244 61 244 l 61 244 q 26 244 3 225 q -21 206 -35 174 q -49 142 -54 103 l -54 103 l -29 97 q -23 130 -13 158 q -3 185 15 202 q 33 218 61 218 l 61 218 q 75 218 87 215 q 98 212 108 204 l 108 204 q 132 185 139 148 q 145 111 145 62 l 145 62 l 145 -609 q 145 -674 156 -708 q 167 -742 189 -761 l 189 -761 q 203 -773 220 -778 q 237 -784 255 -784 z"},"ാ":{"ha":359,"x_min":26,"x_max":314,"o":"m 314 -275 l 314 -275 q 314 -205 306 -151 q 297 -97 280 -61 q 262 -25 235 -6 q 208 12 170 12 l 170 12 q 137 12 113 -1 q 89 -14 72 -38 q 55 -62 44 -93 q 33 -125 26 -161 l 26 -161 l 52 -166 q 61 -123 75 -88 q 88 -54 111 -34 q 134 -14 169 -14 l 169 -14 q 212 -14 238 -43 q 263 -72 275 -130 q 287 -188 287 -275 l 287 -275 q 287 -361 275 -418 q 263 -475 238 -503 q 212 -532 170 -532 l 170 -532 q 136 -532 113 -512 q 90 -492 77 -458 q 63 -425 54 -382 l 54 -382 l 28 -387 q 35 -423 46 -454 q 57 -485 74 -508 q 91 -532 115 -545 q 139 -558 171 -558 l 171 -558 q 208 -558 235 -539 q 262 -521 280 -485 q 297 -450 306 -397 q 314 -344 314 -275 z"},"ി":{"ha":156,"x_min":-142,"x_max":91,"o":"m -30 -843 l -30 -843 q -10 -843 8 -837 q 25 -832 38 -821 l 38 -821 q 58 -805 70 -781 q 81 -758 86 -722 q 91 -686 91 -633 l 91 -633 l 91 0 l 65 0 l 65 -620 q 65 -666 62 -700 q 59 -735 50 -760 q 41 -785 23 -800 l 23 -800 q 13 -809 1 -813 q -12 -817 -29 -817 l -29 -817 q -53 -817 -72 -805 q -92 -794 -103 -769 q -115 -744 -115 -705 l -115 -705 q -115 -681 -113 -664 q -111 -648 -109 -635 l -109 -635 l -136 -632 q -138 -646 -140 -663 q -142 -680 -142 -705 l -142 -705 q -142 -750 -127 -780 q -112 -811 -86 -827 q -61 -843 -30 -843 z"},"ീ":{"ha":156,"x_min":-211,"x_max":91,"o":"m -84 -843 l -84 -843 q -56 -843 -33 -837 q -11 -831 7 -820 l 7 -820 q 56 -789 74 -734 q 91 -680 91 -590 l 91 -590 l 91 0 l 65 0 l 65 -576 q 65 -630 61 -671 q 56 -712 43 -742 q 29 -772 2 -792 l 2 -792 q -14 -804 -34 -811 q -54 -818 -84 -818 l -84 -818 q -111 -818 -134 -806 q -157 -795 -170 -772 q -184 -749 -184 -713 l -184 -713 q -184 -663 -165 -643 q -147 -624 -119 -624 l -119 -624 q -87 -624 -71 -646 q -56 -668 -56 -708 l -56 -708 q -56 -743 -69 -772 q -82 -801 -103 -823 l -103 -823 l -73 -825 q -56 -804 -43 -775 q -30 -747 -30 -710 l -30 -710 q -30 -679 -39 -653 q -49 -628 -69 -613 q -89 -598 -119 -598 l -119 -598 q -147 -598 -167 -611 q -188 -625 -199 -651 q -211 -677 -211 -713 l -211 -713 q -211 -757 -193 -786 q -175 -815 -145 -829 q -116 -843 -84 -843 z"},"ു":{"ha":218,"x_min":-13,"x_max":221,"o":"m 104 220 l 104 220 q 48 220 18 176 q -13 131 -13 55 l -13 55 q -13 2 1 -34 q 15 -71 41 -90 q 67 -110 103 -110 l 103 -110 q 141 -110 168 -90 q 194 -71 208 -34 q 221 3 221 54 l 221 54 q 221 105 207 142 q 193 179 167 200 q 141 220 104 220 z m 104 194 l 104 194 q 147 194 171 159 q 194 124 194 54 l 194 54 q 194 -14 171 -49 q 148 -85 103 -85 l 103 -85 q 60 -85 37 -49 q 14 -13 14 55 l 14 55 q 14 122 37 158 q 60 194 104 194 z m 64 -558 l 64 -558 q 102 -558 127 -539 q 151 -521 163 -489 q 174 -457 174 -416 l 174 -416 q 174 -347 159 -264 q 143 -182 120 -87 l 120 -87 l 95 -93 q 118 -188 133 -270 q 147 -352 147 -413 l 147 -413 q 147 -473 126 -502 q 105 -532 64 -532 l 64 -532 q 51 -532 39 -530 q 26 -529 14 -525 l 14 -525 l 7 -550 q 18 -553 35 -555 q 51 -558 64 -558 z"},"ൂ":{"ha":218,"x_min":-13,"x_max":221,"o":"m 104 220 l 104 220 q 48 220 18 176 q -13 131 -13 55 l -13 55 q -13 2 1 -34 q 15 -71 41 -90 q 67 -110 103 -110 l 103 -110 q 141 -110 168 -90 q 194 -71 208 -34 q 221 3 221 54 l 221 54 q 221 105 207 142 q 193 179 167 200 q 141 220 104 220 z m 103 -85 l 103 -85 q 60 -85 36 -52 q 12 -20 12 55 l 12 55 q 12 122 36 158 q 59 194 104 194 l 104 194 q 148 194 172 159 q 196 124 196 54 l 196 54 q 196 -21 173 -53 q 150 -85 103 -85 z m 104 85 l 104 85 q 58 85 38 59 q 18 33 18 -5 l 18 -5 q 18 -30 30 -50 q 41 -71 55 -90 l 55 -90 l 63 -83 q 48 -64 42 -48 q 35 -32 35 -9 l 35 -9 q 35 8 42 24 q 48 40 64 50 q 79 60 104 60 l 104 60 q 129 60 144 50 q 159 40 166 24 q 172 8 172 -9 l 172 -9 q 172 -31 166 -47 q 159 -64 143 -83 l 143 -83 l 152 -90 q 166 -71 178 -50 q 189 -30 189 -5 l 189 -5 q 189 20 181 41 q 173 61 155 73 q 136 85 104 85 z m 64 -558 l 64 -558 q 102 -558 127 -539 q 151 -521 163 -489 q 174 -457 174 -416 l 174 -416 q 174 -347 159 -264 q 143 -182 120 -87 l 120 -87 l 95 -93 q 118 -188 133 -270 q 147 -352 147 -413 l 147 -413 q 147 -473 126 -502 q 105 -532 64 -532 l 64 -532 q 51 -532 39 -530 q 26 -529 14 -525 l 14 -525 l 7 -550 q 18 -553 35 -555 q 51 -558 64 -558 z"},"ൃ":{"ha":168,"x_min":-102,"x_max":159,"o":"m 19 298 l 19 298 q -14 298 -41 284 q -69 270 -85 242 q -102 213 -102 170 l -102 170 q -102 112 -69 78 q -37 44 14 44 l 14 44 q 58 44 92 63 q 126 81 153 110 l 153 110 l 147 135 q 116 104 84 87 q 51 70 15 70 l 15 70 q -23 70 -49 94 q -75 118 -75 171 l -75 171 q -75 225 -47 249 q -20 272 19 272 l 19 272 q 49 272 75 259 q 101 246 117 214 q 133 182 133 125 l 133 125 q 133 95 128 65 q 123 35 113 -3 q 102 -42 85 -95 l 85 -95 q 66 -154 56 -202 q 45 -250 45 -299 l 45 -299 q 45 -365 62 -424 q 79 -484 106 -546 l 106 -546 l 135 -546 q 114 -498 100 -458 q 85 -418 78 -380 q 71 -343 71 -301 l 71 -301 q 71 -254 81 -210 q 91 -167 110 -104 l 110 -104 q 129 -41 140 0 q 150 41 155 70 q 159 99 159 126 l 159 126 q 159 185 141 223 q 123 261 92 280 q 60 298 19 298 z"},"ൄ":{"ha":168,"x_min":-190,"x_max":159,"o":"m -26 298 l -26 298 q -72 298 -109 282 q -146 265 -168 232 q -190 199 -190 148 l -190 148 q -190 103 -167 76 q -145 48 -110 48 l -110 48 q -86 48 -70 64 q -54 80 -48 109 l -48 109 l -56 108 q -48 79 -29 64 q -11 48 11 48 l 11 48 q 29 48 42 56 q 55 63 64 77 q 72 90 77 109 q 81 127 81 148 l 81 148 l 81 174 l 55 174 l 55 151 q 55 114 44 94 q 33 74 10 74 l 10 74 q -15 74 -26 94 q -38 113 -38 151 l -38 151 l -38 174 l -64 174 l -64 151 q -64 112 -75 93 q -86 74 -110 74 l -110 74 q -132 74 -148 92 q -164 110 -164 149 l -164 149 q -164 214 -123 243 q -83 272 -24 272 l -24 272 q 47 272 90 239 q 133 206 133 125 l 133 125 q 133 95 128 65 q 123 35 113 -3 q 102 -42 85 -95 l 85 -95 q 66 -154 55 -199 q 44 -245 44 -297 l 44 -297 q 44 -365 58 -423 q 72 -482 97 -546 l 97 -546 l 126 -546 q 106 -498 94 -457 q 81 -417 76 -378 q 70 -340 70 -298 l 70 -298 q 70 -240 83 -197 q 95 -154 110 -104 l 110 -104 q 129 -41 140 0 q 150 41 155 70 q 159 99 159 126 l 159 126 q 159 186 136 224 q 113 262 72 280 q 30 298 -26 298 z"},"െ":{"ha":498,"x_min":42,"x_max":456,"o":"m 166 12 l 166 12 q 130 12 102 -8 q 74 -28 58 -80 q 42 -133 42 -229 l 42 -229 q 42 -310 59 -371 q 75 -433 104 -474 q 133 -516 173 -537 q 213 -558 259 -558 l 259 -558 q 307 -558 344 -538 q 381 -518 406 -482 q 431 -446 444 -397 q 456 -349 456 -292 l 456 -292 q 456 -213 438 -156 q 420 -100 394 -60 q 367 -21 340 8 l 340 8 l 321 -10 q 345 -37 370 -74 q 395 -111 412 -163 q 429 -216 429 -291 l 429 -291 q 429 -361 410 -415 q 391 -470 354 -501 q 316 -532 259 -532 l 259 -532 q 203 -532 160 -496 q 117 -461 93 -393 q 68 -326 68 -229 l 68 -229 q 68 -148 80 -101 q 91 -54 113 -34 q 135 -14 166 -14 l 166 -14 q 187 -14 205 -25 q 223 -37 234 -67 q 244 -97 244 -151 l 244 -151 q 244 -210 224 -243 q 204 -276 163 -276 l 163 -276 q 129 -276 104 -259 q 79 -242 56 -212 l 56 -212 l 47 -235 q 78 -272 106 -287 q 133 -302 163 -302 l 163 -302 q 193 -302 218 -286 q 242 -271 257 -237 q 271 -204 271 -151 l 271 -151 q 271 -90 257 -54 q 242 -19 219 -3 q 195 12 166 12 z"},"േ":{"ha":411,"x_min":42,"x_max":377,"o":"m 250 12 l 250 12 q 209 12 172 -5 q 134 -22 105 -57 q 76 -92 59 -147 q 42 -202 42 -278 l 42 -278 q 42 -351 61 -404 q 80 -457 111 -491 q 142 -525 180 -541 q 217 -558 255 -558 l 255 -558 q 296 -558 323 -540 q 350 -523 364 -493 q 377 -463 377 -426 l 377 -426 q 377 -388 366 -362 q 354 -337 334 -324 q 314 -312 289 -312 l 289 -312 q 259 -312 239 -326 q 218 -340 207 -365 q 196 -390 196 -423 l 196 -423 q 196 -461 209 -491 q 222 -522 238 -545 l 238 -545 l 266 -544 q 248 -524 235 -490 q 222 -457 222 -425 l 222 -425 q 222 -383 239 -360 q 255 -338 289 -338 l 289 -338 q 318 -338 334 -359 q 350 -381 350 -426 l 350 -426 q 350 -475 326 -504 q 302 -533 255 -533 l 255 -533 q 251 -533 247 -533 q 243 -533 238 -533 l 238 -533 q 182 -525 145 -488 q 107 -452 88 -397 q 69 -342 69 -278 l 69 -278 q 69 -195 90 -138 q 111 -82 148 -51 q 185 -20 233 -13 l 233 -13 q 238 -13 242 -13 q 246 -13 249 -13 l 249 -13 q 281 -13 302 -26 q 323 -39 334 -63 q 345 -87 345 -120 l 345 -120 q 345 -165 329 -186 q 313 -208 284 -208 l 284 -208 q 250 -208 234 -185 q 217 -163 217 -121 l 217 -121 q 217 -89 230 -55 q 243 -22 261 -2 l 261 -2 l 233 -1 q 219 -23 205 -54 q 191 -85 191 -123 l 191 -123 q 191 -157 202 -181 q 213 -206 234 -220 q 254 -234 284 -234 l 284 -234 q 309 -234 329 -221 q 349 -209 361 -184 q 372 -159 372 -120 l 372 -120 q 372 -83 359 -53 q 345 -23 318 -5 q 291 12 250 12 z"},"ൈ":{"ha":996,"x_min":42,"x_max":954,"o":"m 166 12 l 166 12 q 130 12 102 -8 q 74 -28 58 -80 q 42 -133 42 -229 l 42 -229 q 42 -310 59 -371 q 75 -433 104 -474 q 133 -516 173 -537 q 213 -558 259 -558 l 259 -558 q 307 -558 344 -538 q 381 -518 406 -482 q 431 -446 444 -397 q 456 -349 456 -292 l 456 -292 q 456 -213 438 -156 q 420 -100 394 -60 q 367 -21 340 8 l 340 8 l 321 -10 q 345 -37 370 -74 q 395 -111 412 -163 q 429 -216 429 -291 l 429 -291 q 429 -361 410 -415 q 391 -470 354 -501 q 316 -532 259 -532 l 259 -532 q 203 -532 160 -496 q 117 -461 93 -393 q 68 -326 68 -229 l 68 -229 q 68 -148 80 -101 q 91 -54 113 -34 q 135 -14 166 -14 l 166 -14 q 187 -14 205 -25 q 223 -37 234 -67 q 244 -97 244 -151 l 244 -151 q 244 -210 224 -243 q 204 -276 163 -276 l 163 -276 q 129 -276 104 -259 q 79 -242 56 -212 l 56 -212 l 47 -235 q 78 -272 106 -287 q 133 -302 163 -302 l 163 -302 q 193 -302 218 -286 q 242 -271 257 -237 q 271 -204 271 -151 l 271 -151 q 271 -90 257 -54 q 242 -19 219 -3 q 195 12 166 12 z m 664 12 l 664 12 q 628 12 600 -8 q 572 -28 556 -80 q 540 -133 540 -229 l 540 -229 q 540 -310 557 -371 q 573 -433 602 -474 q 631 -516 671 -537 q 711 -558 757 -558 l 757 -558 q 805 -558 842 -538 q 879 -518 904 -482 q 929 -446 942 -397 q 954 -349 954 -292 l 954 -292 q 954 -213 936 -156 q 918 -100 892 -60 q 865 -21 838 8 l 838 8 l 819 -10 q 843 -37 868 -74 q 893 -111 910 -163 q 927 -216 927 -291 l 927 -291 q 927 -361 908 -415 q 889 -470 852 -501 q 814 -532 757 -532 l 757 -532 q 701 -532 658 -496 q 615 -461 591 -393 q 566 -326 566 -229 l 566 -229 q 566 -148 578 -101 q 589 -54 611 -34 q 633 -14 664 -14 l 664 -14 q 685 -14 703 -25 q 721 -37 732 -67 q 742 -97 742 -151 l 742 -151 q 742 -210 722 -243 q 702 -276 661 -276 l 661 -276 q 627 -276 602 -259 q 577 -242 554 -212 l 554 -212 l 545 -235 q 576 -272 604 -287 q 631 -302 661 -302 l 661 -302 q 691 -302 716 -286 q 740 -271 755 -237 q 769 -204 769 -151 l 769 -151 q 769 -90 755 -54 q 740 -19 717 -3 q 693 12 664 12 z"},"ൊ":{"ha":930,"x_min":42,"x_max":885,"o":"m 166 12 l 166 12 q 130 12 102 -8 q 74 -28 58 -80 q 42 -133 42 -229 l 42 -229 q 42 -310 59 -371 q 75 -433 104 -474 q 133 -516 173 -537 q 213 -558 259 -558 l 259 -558 q 307 -558 344 -538 q 381 -518 406 -482 q 431 -446 444 -397 q 456 -349 456 -292 l 456 -292 q 456 -213 438 -156 q 420 -100 394 -60 q 367 -21 340 8 l 340 8 l 321 -10 q 345 -37 370 -74 q 395 -111 412 -163 q 429 -216 429 -291 l 429 -291 q 429 -361 410 -415 q 391 -470 354 -501 q 316 -532 259 -532 l 259 -532 q 203 -532 160 -496 q 117 -461 93 -393 q 68 -326 68 -229 l 68 -229 q 68 -148 80 -101 q 91 -54 113 -34 q 135 -14 166 -14 l 166 -14 q 187 -14 205 -25 q 223 -37 234 -67 q 244 -97 244 -151 l 244 -151 q 244 -210 224 -243 q 204 -276 163 -276 l 163 -276 q 129 -276 104 -259 q 79 -242 56 -212 l 56 -212 l 47 -235 q 78 -272 106 -287 q 133 -302 163 -302 l 163 -302 q 193 -302 218 -286 q 242 -271 257 -237 q 271 -204 271 -151 l 271 -151 q 271 -90 257 -54 q 242 -19 219 -3 q 195 12 166 12 z m 541 -267 l 541 -267 q 526 -267 521 -276 q 516 -285 516 -298 l 516 -298 q 516 -310 521 -319 q 526 -329 541 -329 l 541 -329 q 559 -329 564 -319 q 568 -310 568 -298 l 568 -298 q 568 -285 564 -276 q 559 -267 541 -267 z m 885 -275 l 885 -275 q 885 -205 877 -151 q 868 -97 851 -61 q 833 -25 806 -6 q 779 12 741 12 l 741 12 q 708 12 684 -1 q 660 -14 643 -38 q 626 -62 615 -93 q 604 -125 597 -161 l 597 -161 l 623 -166 q 632 -123 646 -88 q 659 -54 682 -34 q 705 -14 740 -14 l 740 -14 q 783 -14 809 -43 q 834 -72 846 -130 q 858 -188 858 -275 l 858 -275 q 858 -361 846 -418 q 834 -475 809 -503 q 783 -532 741 -532 l 741 -532 q 707 -532 684 -512 q 661 -492 648 -458 q 634 -425 625 -382 l 625 -382 l 599 -387 q 606 -423 617 -454 q 628 -485 645 -508 q 662 -532 686 -545 q 710 -558 742 -558 l 742 -558 q 779 -558 806 -539 q 833 -521 851 -485 q 868 -450 877 -397 q 885 -344 885 -275 z"},"ോ":{"ha":830,"x_min":42,"x_max":785,"o":"m 250 12 l 250 12 q 209 12 172 -5 q 134 -22 105 -57 q 76 -92 59 -147 q 42 -202 42 -278 l 42 -278 q 42 -351 61 -404 q 80 -457 111 -491 q 142 -525 180 -541 q 217 -558 255 -558 l 255 -558 q 296 -558 323 -540 q 350 -523 364 -493 q 377 -463 377 -426 l 377 -426 q 377 -388 366 -362 q 354 -337 334 -324 q 314 -312 289 -312 l 289 -312 q 259 -312 239 -326 q 218 -340 207 -365 q 196 -390 196 -423 l 196 -423 q 196 -461 209 -491 q 222 -522 238 -545 l 238 -545 l 266 -544 q 248 -524 235 -490 q 222 -457 222 -425 l 222 -425 q 222 -383 239 -360 q 255 -338 289 -338 l 289 -338 q 318 -338 334 -359 q 350 -381 350 -426 l 350 -426 q 350 -475 326 -504 q 302 -533 255 -533 l 255 -533 q 251 -533 247 -533 q 243 -533 238 -533 l 238 -533 q 182 -525 145 -488 q 107 -452 88 -397 q 69 -342 69 -278 l 69 -278 q 69 -195 90 -138 q 111 -82 148 -51 q 185 -20 233 -13 l 233 -13 q 238 -13 242 -13 q 246 -13 249 -13 l 249 -13 q 281 -13 302 -26 q 323 -39 334 -63 q 345 -87 345 -120 l 345 -120 q 345 -165 329 -186 q 313 -208 284 -208 l 284 -208 q 250 -208 234 -185 q 217 -163 217 -121 l 217 -121 q 217 -89 230 -55 q 243 -22 261 -2 l 261 -2 l 233 -1 q 219 -23 205 -54 q 191 -85 191 -123 l 191 -123 q 191 -157 202 -181 q 213 -206 234 -220 q 254 -234 284 -234 l 284 -234 q 309 -234 329 -221 q 349 -209 361 -184 q 372 -159 372 -120 l 372 -120 q 372 -83 359 -53 q 345 -23 318 -5 q 291 12 250 12 z m 441 -267 l 441 -267 q 426 -267 421 -276 q 416 -285 416 -298 l 416 -298 q 416 -310 421 -319 q 426 -329 441 -329 l 441 -329 q 459 -329 464 -319 q 468 -310 468 -298 l 468 -298 q 468 -285 464 -276 q 459 -267 441 -267 z m 785 -275 l 785 -275 q 785 -205 777 -151 q 768 -97 751 -61 q 733 -25 706 -6 q 679 12 641 12 l 641 12 q 608 12 584 -1 q 560 -14 543 -38 q 526 -62 515 -93 q 504 -125 497 -161 l 497 -161 l 523 -166 q 532 -123 546 -88 q 559 -54 582 -34 q 605 -14 640 -14 l 640 -14 q 683 -14 709 -43 q 734 -72 746 -130 q 758 -188 758 -275 l 758 -275 q 758 -361 746 -418 q 734 -475 709 -503 q 683 -532 641 -532 l 641 -532 q 607 -532 584 -512 q 561 -492 548 -458 q 534 -425 525 -382 l 525 -382 l 499 -387 q 506 -423 517 -454 q 528 -485 545 -508 q 562 -532 586 -545 q 610 -558 642 -558 l 642 -558 q 679 -558 706 -539 q 733 -521 751 -485 q 768 -450 777 -397 q 785 -344 785 -275 z"},"ൌ":{"ha":1120,"x_min":42,"x_max":1075,"o":"m 166 12 l 166 12 q 130 12 102 -8 q 74 -28 58 -80 q 42 -133 42 -229 l 42 -229 q 42 -310 59 -371 q 75 -433 104 -474 q 133 -516 173 -537 q 213 -558 259 -558 l 259 -558 q 307 -558 344 -538 q 381 -518 406 -482 q 431 -446 444 -397 q 456 -349 456 -292 l 456 -292 q 456 -213 438 -156 q 420 -100 394 -60 q 367 -21 340 8 l 340 8 l 321 -10 q 345 -37 370 -74 q 395 -111 412 -163 q 429 -216 429 -291 l 429 -291 q 429 -361 410 -415 q 391 -470 354 -501 q 316 -532 259 -532 l 259 -532 q 203 -532 160 -496 q 117 -461 93 -393 q 68 -326 68 -229 l 68 -229 q 68 -148 80 -101 q 91 -54 113 -34 q 135 -14 166 -14 l 166 -14 q 187 -14 205 -25 q 223 -37 234 -67 q 244 -97 244 -151 l 244 -151 q 244 -210 224 -243 q 204 -276 163 -276 l 163 -276 q 129 -276 104 -259 q 79 -242 56 -212 l 56 -212 l 47 -235 q 78 -272 106 -287 q 133 -302 163 -302 l 163 -302 q 193 -302 218 -286 q 242 -271 257 -237 q 271 -204 271 -151 l 271 -151 q 271 -90 257 -54 q 242 -19 219 -3 q 195 12 166 12 z m 541 -267 l 541 -267 q 526 -267 521 -276 q 516 -285 516 -298 l 516 -298 q 516 -310 521 -319 q 526 -329 541 -329 l 541 -329 q 559 -329 564 -319 q 568 -310 568 -298 l 568 -298 q 568 -285 564 -276 q 559 -267 541 -267 z m 947 -558 l 947 -558 q 987 -558 1016 -529 q 1044 -500 1060 -443 q 1075 -386 1075 -302 l 1075 -302 q 1075 -198 1057 -128 q 1038 -58 993 -23 q 948 12 870 12 l 870 12 q 839 12 806 6 q 773 0 737 -18 l 737 -18 l 749 -41 q 781 -26 808 -20 q 834 -14 870 -14 l 870 -14 q 941 -14 980 -46 q 1018 -78 1033 -142 q 1048 -206 1048 -302 l 1048 -302 q 1048 -418 1021 -475 q 993 -532 946 -532 l 946 -532 q 925 -532 911 -522 q 897 -513 887 -497 l 887 -497 q 870 -468 865 -430 q 860 -393 860 -352 l 860 -352 l 860 -256 l 834 -256 l 834 -356 q 834 -407 828 -441 q 822 -475 808 -497 l 808 -497 q 798 -514 783 -523 q 767 -532 745 -532 l 745 -532 q 699 -532 676 -492 q 652 -453 652 -393 l 652 -393 q 652 -358 657 -324 q 661 -291 669 -258 l 669 -258 l 644 -253 q 636 -286 631 -319 q 625 -353 625 -395 l 625 -395 q 625 -442 640 -478 q 654 -515 681 -536 q 708 -558 745 -558 l 745 -558 q 785 -558 814 -531 q 842 -504 850 -437 l 850 -437 l 844 -437 q 852 -499 880 -528 q 907 -558 947 -558 z"},"്":{"ha":0,"x_min":-198,"x_max":32,"o":"m -83 -601 l -83 -601 q -117 -601 -143 -615 q -169 -629 -183 -659 q -198 -690 -198 -739 l -198 -739 q -198 -758 -195 -775 q -193 -792 -190 -805 l -190 -805 l -165 -801 q -168 -788 -170 -772 q -172 -757 -172 -739 l -172 -739 q -172 -697 -161 -672 q -150 -648 -130 -637 q -110 -627 -83 -627 l -83 -627 q -54 -627 -34 -638 q -14 -649 -4 -674 q 6 -699 6 -740 l 6 -740 q 6 -757 4 -773 q 2 -789 -1 -801 l -1 -801 l 24 -805 q 27 -793 30 -775 q 32 -758 32 -740 l 32 -740 q 32 -690 18 -659 q 3 -629 -23 -615 q -49 -601 -83 -601 z"},"ൎ":{"ha":0,"x_min":-296,"x_max":-262,"o":"m -296 -796 l -262 -796 l -267 -624 l -291 -624 l -296 -796 z"},"൏":{"ha":884,"x_min":50,"x_max":837,"o":"m 418 -558 l 418 -558 q 484 -558 520 -520 q 555 -483 563 -413 l 563 -413 l 556 -423 q 567 -494 598 -526 q 629 -558 680 -558 l 680 -558 q 728 -558 763 -524 q 798 -490 818 -417 q 837 -345 837 -228 l 837 -228 q 837 -88 797 13 q 757 114 672 169 q 586 223 451 223 l 451 223 q 358 223 290 199 q 222 175 176 132 q 130 89 102 33 q 74 -24 62 -88 q 50 -153 50 -220 l 50 -220 q 50 -311 66 -382 q 81 -454 106 -528 l 106 -528 l 131 -519 q 106 -449 92 -377 q 77 -306 77 -220 l 77 -220 q 77 -157 88 -96 q 98 -36 124 17 q 149 70 192 111 q 234 151 298 174 q 362 197 451 197 l 451 197 q 545 197 613 169 q 681 141 725 87 q 768 32 789 -48 q 810 -129 810 -233 l 810 -233 q 810 -333 795 -399 q 780 -466 751 -499 q 722 -532 681 -532 l 681 -532 q 657 -532 641 -525 q 625 -518 613 -504 l 613 -504 q 591 -480 582 -440 q 572 -400 572 -335 l 572 -335 l 572 0 l 546 0 l 546 -325 q 546 -395 537 -437 q 527 -479 500 -504 l 500 -504 q 486 -518 466 -525 q 446 -532 418 -532 l 418 -532 q 366 -532 327 -495 q 287 -458 265 -392 q 243 -326 243 -237 l 243 -237 l 243 -222 q 243 -144 255 -98 q 266 -53 288 -33 q 310 -14 341 -14 l 341 -14 q 362 -14 380 -25 q 397 -37 408 -67 q 419 -97 419 -151 l 419 -151 q 419 -210 399 -243 q 379 -276 338 -276 l 338 -276 q 304 -276 279 -259 q 254 -242 231 -212 l 231 -212 l 222 -235 q 253 -272 281 -287 q 308 -302 338 -302 l 338 -302 q 368 -302 393 -286 q 417 -271 432 -237 q 446 -204 446 -151 l 446 -151 q 446 -90 432 -54 q 417 -19 394 -3 q 370 12 341 12 l 341 12 q 305 12 277 -8 q 249 -29 233 -80 q 217 -132 217 -225 l 217 -225 q 217 -333 243 -407 q 269 -481 315 -519 q 360 -558 418 -558 z"},"ൔ":{"ha":439,"x_min":27,"x_max":430,"o":"m 95 -792 l 95 -792 q 116 -792 133 -786 q 150 -781 162 -771 l 162 -771 q 185 -753 194 -725 q 203 -697 203 -646 l 203 -646 l 203 -520 q 203 -455 210 -406 q 217 -357 234 -316 q 250 -275 277 -231 l 277 -231 l 283 -223 q 312 -182 347 -134 q 382 -87 430 -25 l 430 -25 l 418 0 l 56 0 l 56 -280 q 56 -327 60 -364 q 64 -402 74 -432 q 84 -463 101 -490 l 101 -490 q 121 -520 151 -537 q 181 -555 219 -555 l 219 -555 q 262 -555 290 -534 q 317 -513 331 -476 q 344 -439 344 -391 l 344 -391 q 344 -340 328 -294 q 311 -249 284 -206 l 284 -206 l 278 -197 q 253 -161 225 -128 q 196 -95 167 -66 q 137 -37 109 -11 l 109 -11 l 108 -22 q 129 -24 151 -25 q 172 -26 202 -26 l 202 -26 l 338 -26 q 353 -26 367 -26 q 380 -26 393 -25 q 405 -25 415 -23 l 415 -23 l 401 -21 q 359 -76 327 -119 q 295 -162 269 -200 l 269 -200 l 264 -207 q 232 -257 213 -300 q 193 -343 185 -392 q 177 -442 177 -511 l 177 -511 l 177 -642 q 177 -686 171 -712 q 164 -738 143 -753 l 143 -753 q 134 -759 123 -762 q 112 -766 95 -766 l 95 -766 q 80 -766 64 -763 q 48 -760 34 -755 l 34 -755 l 27 -780 q 41 -785 60 -788 q 78 -792 95 -792 z m 82 -265 l 82 -26 l 90 -26 q 121 -54 152 -84 q 182 -115 211 -148 q 239 -182 262 -218 l 262 -218 l 268 -228 q 291 -266 304 -307 q 317 -348 317 -391 l 317 -391 q 317 -435 307 -466 q 296 -497 274 -513 q 252 -530 217 -530 l 217 -530 q 190 -530 167 -517 q 143 -505 127 -482 l 127 -482 q 109 -457 99 -425 q 89 -393 86 -353 q 82 -314 82 -265 l 82 -265 z"},"ൕ":{"ha":722,"x_min":42,"x_max":691,"o":"m 491 12 l 491 12 q 464 12 442 8 q 420 4 402 -3 q 384 -11 369 -22 l 369 -22 q 367 -24 365 -26 q 362 -28 360 -29 l 360 -29 q 318 -64 293 -116 q 267 -169 256 -228 q 244 -288 244 -345 l 244 -345 q 244 -392 251 -430 q 258 -468 273 -495 l 273 -495 l 280 -505 q 292 -522 306 -534 q 320 -546 337 -552 q 354 -558 375 -558 l 375 -558 q 434 -558 469 -505 q 503 -453 503 -342 l 503 -342 q 503 -275 492 -214 q 480 -154 455 -106 q 429 -59 388 -29 l 388 -29 q 387 -28 385 -27 q 383 -26 381 -24 l 381 -24 q 356 -7 326 3 q 296 12 259 12 l 259 12 q 208 12 168 -11 q 128 -34 100 -77 q 71 -121 57 -184 q 42 -247 42 -326 l 42 -326 q 42 -405 62 -456 q 82 -508 116 -533 q 149 -558 189 -558 l 189 -558 q 228 -558 254 -539 q 279 -521 295 -500 l 295 -500 l 277 -481 q 261 -504 240 -518 q 218 -532 191 -532 l 191 -532 q 159 -532 131 -511 q 103 -491 86 -446 q 69 -401 69 -325 l 69 -325 q 69 -229 91 -159 q 112 -90 155 -52 q 197 -14 258 -14 l 258 -14 q 287 -14 312 -20 q 337 -27 357 -38 l 357 -38 q 359 -40 362 -41 q 365 -43 367 -44 l 367 -44 q 407 -71 431 -117 q 455 -164 466 -222 q 476 -281 476 -342 l 476 -342 q 476 -409 465 -450 q 453 -492 431 -512 q 408 -532 375 -532 l 375 -532 q 343 -532 320 -512 q 296 -493 284 -451 q 271 -410 271 -344 l 271 -344 q 271 -294 282 -236 q 292 -178 316 -127 q 340 -76 380 -45 l 380 -45 q 382 -44 385 -42 q 387 -41 389 -39 l 389 -39 q 408 -26 432 -20 q 456 -14 492 -14 l 492 -14 q 551 -14 586 -38 q 621 -63 637 -107 q 652 -152 652 -213 l 652 -213 q 652 -251 645 -288 q 638 -326 623 -367 q 608 -409 584 -457 l 584 -457 q 558 -510 542 -548 q 526 -586 519 -615 q 511 -644 511 -670 l 511 -670 q 511 -705 525 -732 q 538 -760 564 -776 q 589 -792 625 -792 l 625 -792 q 643 -792 659 -789 q 675 -787 691 -782 l 691 -782 l 684 -757 q 670 -762 657 -764 q 643 -766 624 -766 l 624 -766 q 577 -766 558 -737 q 538 -708 538 -671 l 538 -671 q 538 -647 544 -622 q 550 -597 566 -561 q 581 -525 608 -468 l 608 -468 q 632 -418 648 -374 q 663 -331 671 -291 q 679 -252 679 -213 l 679 -213 q 679 -170 672 -135 q 664 -100 650 -72 q 635 -45 613 -26 q 590 -7 560 3 q 529 12 491 12 z"},"ൖ":{"ha":492,"x_min":39,"x_max":453,"o":"m 123 -137 l 123 -137 q 123 -102 131 -74 q 139 -46 160 -30 q 181 -14 218 -14 l 218 -14 q 256 -14 277 -38 q 297 -63 297 -116 l 297 -116 q 297 -153 287 -189 q 276 -225 262 -261 q 248 -298 238 -337 q 227 -377 227 -421 l 227 -421 q 227 -460 242 -491 q 256 -522 282 -540 q 307 -558 340 -558 l 340 -558 q 377 -558 402 -537 q 427 -516 440 -480 q 453 -445 453 -400 l 453 -400 q 453 -331 431 -279 q 408 -227 366 -198 q 323 -169 263 -169 l 263 -169 l 257 -169 q 217 -169 182 -178 q 147 -188 119 -207 l 119 -207 l 111 -212 q 89 -230 73 -256 q 56 -282 48 -316 q 39 -350 39 -393 l 39 -393 q 39 -437 51 -478 q 62 -520 82 -557 l 82 -557 l 105 -544 q 84 -503 75 -467 q 66 -431 66 -392 l 66 -392 q 66 -337 81 -300 q 95 -263 120 -238 l 120 -238 l 129 -231 q 153 -212 185 -203 q 216 -195 253 -195 l 253 -195 l 265 -195 q 320 -195 356 -222 q 391 -249 409 -295 q 426 -341 426 -399 l 426 -399 q 426 -458 405 -495 q 383 -532 340 -532 l 340 -532 q 313 -532 294 -517 q 274 -502 264 -477 q 254 -452 254 -420 l 254 -420 q 254 -379 265 -340 q 275 -301 289 -263 q 303 -225 314 -188 q 324 -152 324 -115 l 324 -115 q 324 -86 317 -62 q 310 -39 297 -22 q 283 -6 264 3 q 244 12 218 12 l 218 12 q 177 12 150 -5 q 122 -23 109 -56 q 96 -90 96 -137 l 96 -137 q 96 -170 104 -206 q 111 -242 130 -297 q 148 -352 181 -440 l 181 -440 q 204 -500 217 -542 q 230 -584 236 -615 q 241 -647 241 -676 l 241 -676 q 241 -714 224 -740 q 206 -766 162 -766 l 162 -766 q 145 -766 130 -762 q 114 -759 98 -754 l 98 -754 l 91 -779 q 110 -785 128 -788 q 145 -792 162 -792 l 162 -792 q 201 -792 224 -775 q 247 -758 258 -731 q 268 -705 268 -677 l 268 -677 q 268 -655 265 -631 q 262 -607 255 -578 q 247 -549 236 -513 q 224 -478 206 -431 l 206 -431 q 180 -362 164 -316 q 147 -271 138 -240 q 129 -209 126 -185 q 123 -162 123 -137 z"},"ൗ":{"ha":534,"x_min":39,"x_max":489,"o":"m 361 -558 l 361 -558 q 401 -558 430 -529 q 458 -500 474 -443 q 489 -386 489 -302 l 489 -302 q 489 -198 471 -128 q 452 -58 407 -23 q 362 12 284 12 l 284 12 q 253 12 220 6 q 187 0 151 -18 l 151 -18 l 163 -41 q 195 -26 222 -20 q 248 -14 284 -14 l 284 -14 q 355 -14 394 -46 q 432 -78 447 -142 q 462 -206 462 -302 l 462 -302 q 462 -418 435 -475 q 407 -532 360 -532 l 360 -532 q 339 -532 325 -522 q 311 -513 301 -497 l 301 -497 q 284 -468 279 -430 q 274 -393 274 -352 l 274 -352 l 274 -256 l 248 -256 l 248 -356 q 248 -407 242 -441 q 236 -475 222 -497 l 222 -497 q 212 -514 197 -523 q 181 -532 159 -532 l 159 -532 q 113 -532 90 -492 q 66 -453 66 -393 l 66 -393 q 66 -358 71 -324 q 75 -291 83 -258 l 83 -258 l 58 -253 q 50 -286 45 -319 q 39 -353 39 -395 l 39 -395 q 39 -442 54 -478 q 68 -515 95 -536 q 122 -558 159 -558 l 159 -558 q 199 -558 228 -531 q 256 -504 264 -437 l 264 -437 l 258 -437 q 266 -499 294 -528 q 321 -558 361 -558 z"},"൘":{"ha":848,"x_min":42,"x_max":800,"o":"m 423 12 l 423 12 q 373 12 342 -21 q 310 -54 302 -133 l 302 -133 l 310 -124 q 303 -54 273 -21 q 242 12 194 12 l 194 12 q 148 12 114 -20 q 79 -53 61 -111 q 42 -169 42 -243 l 42 -243 q 42 -323 58 -379 q 74 -435 99 -476 q 124 -517 150 -552 l 150 -552 l 171 -536 q 143 -500 120 -458 q 96 -417 83 -364 q 69 -312 69 -243 l 69 -243 q 69 -181 84 -129 q 98 -77 126 -45 q 153 -14 193 -14 l 193 -14 q 214 -14 230 -21 q 245 -29 257 -42 l 257 -42 q 278 -66 286 -105 q 294 -145 294 -209 l 294 -209 l 294 -546 l 320 -546 l 320 -212 q 320 -143 329 -102 q 337 -61 360 -38 l 360 -38 q 371 -27 388 -20 q 404 -14 423 -14 l 423 -14 q 443 -14 459 -20 q 475 -27 486 -38 l 486 -38 q 509 -61 518 -102 q 526 -143 526 -212 l 526 -212 l 526 -546 l 552 -546 l 552 -229 l 544 -133 q 538 -54 506 -21 q 473 12 423 12 z m 654 12 l 654 12 q 607 12 576 -20 q 545 -53 536 -124 l 536 -124 l 534 -224 l 534 -536 l 552 -536 l 552 -211 q 552 -147 560 -109 q 568 -72 587 -47 l 587 -47 q 599 -31 616 -22 q 632 -14 654 -14 l 654 -14 q 694 -14 721 -45 q 747 -76 760 -142 q 773 -209 773 -315 l 773 -315 q 773 -408 762 -486 q 750 -564 726 -625 q 702 -687 663 -729 q 624 -772 570 -794 q 515 -817 442 -817 l 442 -817 q 399 -817 359 -812 q 319 -808 275 -797 l 275 -797 l 270 -823 q 294 -829 322 -833 q 349 -838 380 -840 q 410 -843 442 -843 l 442 -843 q 519 -843 578 -819 q 636 -796 679 -751 q 721 -706 748 -641 q 775 -577 788 -495 q 800 -413 800 -315 l 800 -315 q 800 -194 783 -122 q 765 -50 732 -19 q 699 12 654 12 z"},"൙":{"ha":757,"x_min":42,"x_max":735,"o":"m 252 -558 l 252 -558 q 306 -558 347 -534 q 387 -511 415 -468 q 442 -425 456 -364 q 469 -303 469 -228 l 469 -228 q 469 -133 453 -81 q 436 -29 407 -8 q 377 12 339 12 l 339 12 q 299 12 273 -7 q 247 -27 235 -59 q 223 -91 223 -127 l 223 -127 q 223 -167 237 -199 q 250 -231 275 -253 l 275 -253 q 295 -271 322 -282 q 348 -293 382 -298 q 415 -303 454 -303 l 454 -303 l 486 -303 l 486 -277 l 454 -277 q 402 -277 364 -269 q 325 -261 297 -238 l 297 -238 q 275 -221 263 -193 q 250 -166 250 -130 l 250 -130 q 250 -77 272 -45 q 294 -14 338 -14 l 338 -14 q 373 -14 396 -33 q 419 -53 431 -99 q 443 -146 443 -226 l 443 -226 q 443 -242 443 -257 q 443 -272 441 -286 l 441 -286 l 441 -292 q 434 -370 410 -423 q 386 -477 347 -504 q 307 -532 252 -532 l 252 -532 q 190 -532 149 -498 q 108 -465 89 -410 q 69 -356 69 -291 l 69 -291 q 69 -222 84 -170 q 98 -119 123 -81 q 147 -43 175 -12 l 175 -12 l 156 6 q 131 -22 105 -60 q 78 -99 60 -155 q 42 -212 42 -291 l 42 -291 q 42 -347 56 -395 q 69 -443 96 -480 q 122 -517 162 -537 q 201 -558 252 -558 z m 634 -546 l 634 -546 q 665 -546 688 -530 q 710 -514 723 -486 q 735 -458 735 -421 l 735 -421 q 735 -386 725 -357 q 715 -329 695 -312 l 695 -312 q 681 -300 665 -292 q 648 -284 627 -280 q 606 -277 579 -277 l 579 -277 l 481 -277 l 481 -303 l 577 -303 q 618 -303 641 -310 q 663 -317 678 -331 l 678 -331 q 694 -345 701 -368 q 708 -392 708 -420 l 708 -420 q 708 -464 690 -492 q 671 -520 635 -520 l 635 -520 q 598 -520 577 -493 q 555 -466 555 -413 l 555 -413 q 555 -378 566 -346 q 577 -315 594 -286 l 594 -286 l 567 -283 q 551 -309 540 -344 q 528 -379 528 -418 l 528 -418 q 528 -458 542 -486 q 556 -515 581 -530 q 605 -546 634 -546 z"},"൚":{"ha":751,"x_min":42,"x_max":695,"o":"m 502 -558 l 502 -558 q 548 -558 583 -542 q 617 -527 639 -501 l 639 -501 q 660 -476 672 -443 q 684 -410 690 -370 q 695 -330 695 -280 l 695 -280 l 695 0 l 339 0 l 339 -26 q 396 -87 444 -151 q 492 -215 521 -280 q 550 -346 550 -408 l 550 -408 q 550 -440 543 -467 q 535 -494 518 -510 q 500 -527 469 -527 l 469 -527 q 443 -527 422 -517 q 401 -507 384 -487 l 384 -487 q 358 -456 345 -406 q 332 -356 332 -279 l 332 -279 l 332 -230 l 306 -230 l 306 -335 q 306 -399 297 -439 q 288 -480 266 -504 l 266 -504 q 254 -518 238 -525 q 222 -532 200 -532 l 200 -532 q 158 -532 129 -501 q 99 -470 84 -418 q 69 -366 69 -303 l 69 -303 q 69 -234 83 -181 q 96 -129 120 -87 q 143 -46 171 -10 l 171 -10 l 150 6 q 124 -29 99 -70 q 74 -111 58 -167 q 42 -224 42 -303 l 42 -303 q 42 -378 62 -435 q 81 -493 117 -525 q 153 -558 201 -558 l 201 -558 q 246 -558 273 -535 q 299 -512 312 -471 q 325 -431 329 -378 l 329 -378 l 315 -376 q 321 -431 343 -471 q 365 -512 405 -535 q 444 -558 502 -558 z m 577 -409 l 577 -409 q 577 -342 548 -275 q 519 -208 470 -142 q 421 -77 360 -11 l 360 -11 l 364 -24 q 386 -26 420 -26 q 453 -26 481 -26 l 481 -26 l 669 -26 l 669 -269 q 669 -354 654 -412 q 638 -471 603 -502 q 567 -534 507 -535 l 507 -535 l 506 -537 q 545 -524 561 -490 q 577 -456 577 -409 z"},"൛":{"ha":680,"x_min":65,"x_max":638,"o":"m 442 12 l 442 12 q 396 12 361 -8 q 325 -28 301 -64 q 276 -100 264 -148 q 251 -197 251 -254 l 251 -254 q 251 -334 269 -389 q 287 -445 312 -480 q 336 -516 355 -534 l 355 -534 l 352 -520 l 91 -520 l 91 0 l 65 0 l 65 -546 l 365 -546 l 377 -525 q 358 -504 335 -468 q 311 -433 295 -381 q 278 -329 278 -255 l 278 -255 q 278 -185 297 -130 q 316 -76 353 -45 q 389 -14 443 -14 l 443 -14 q 499 -14 537 -47 q 574 -80 593 -135 q 611 -190 611 -255 l 611 -255 q 611 -324 597 -375 q 582 -427 558 -465 q 534 -503 505 -534 l 505 -534 l 524 -552 q 550 -525 576 -486 q 602 -447 620 -391 q 638 -335 638 -255 l 638 -255 q 638 -198 625 -149 q 612 -101 587 -65 q 561 -29 525 -8 q 489 12 442 12 z"},"൜":{"ha":1078,"x_min":42,"x_max":1036,"o":"m 652 -558 l 652 -558 q 680 -558 703 -547 q 726 -536 741 -519 l 741 -519 q 757 -501 765 -477 q 773 -453 776 -423 q 778 -394 778 -358 l 778 -358 l 778 -210 q 778 -143 786 -103 q 794 -64 815 -41 l 815 -41 q 827 -28 843 -21 q 859 -14 881 -14 l 881 -14 q 926 -14 954 -44 q 982 -74 996 -126 q 1009 -178 1009 -243 l 1009 -243 q 1009 -312 996 -364 q 982 -417 959 -458 q 936 -500 907 -536 l 907 -536 l 928 -553 q 954 -518 979 -476 q 1004 -435 1020 -379 q 1036 -323 1036 -244 l 1036 -244 q 1036 -166 1018 -108 q 1000 -51 965 -19 q 930 12 880 12 l 880 12 q 852 12 830 2 q 808 -9 794 -25 l 794 -25 q 776 -45 767 -71 q 758 -98 755 -131 q 752 -164 752 -202 l 752 -202 l 752 -353 q 752 -409 746 -445 q 740 -482 720 -504 l 720 -504 q 708 -518 691 -525 q 673 -532 652 -532 l 652 -532 q 631 -532 614 -525 q 596 -518 584 -504 l 584 -504 q 564 -482 558 -445 q 552 -409 552 -353 l 552 -353 l 552 -188 q 552 -152 550 -122 q 547 -93 539 -69 q 531 -45 515 -27 l 515 -27 q 500 -10 477 1 q 454 12 426 12 l 426 12 q 398 12 375 1 q 352 -10 337 -27 l 337 -27 q 321 -45 313 -69 q 305 -93 303 -123 q 300 -153 300 -188 l 300 -188 l 300 -336 q 300 -403 292 -442 q 284 -482 263 -505 l 263 -505 q 251 -518 235 -525 q 219 -532 197 -532 l 197 -532 q 153 -532 125 -502 q 96 -472 83 -420 q 69 -368 69 -303 l 69 -303 q 69 -234 83 -181 q 96 -129 120 -87 q 143 -46 171 -10 l 171 -10 l 150 7 q 124 -29 99 -70 q 74 -111 58 -167 q 42 -223 42 -302 l 42 -302 q 42 -381 60 -438 q 78 -495 113 -526 q 148 -558 198 -558 l 198 -558 q 227 -558 249 -547 q 270 -537 284 -521 l 284 -521 q 302 -501 311 -474 q 320 -448 323 -415 q 326 -383 326 -344 l 326 -344 l 326 -193 q 326 -138 332 -101 q 338 -64 358 -42 l 358 -42 q 370 -29 388 -21 q 405 -14 426 -14 l 426 -14 q 447 -14 465 -21 q 482 -29 494 -42 l 494 -42 q 514 -64 520 -101 q 526 -138 526 -193 l 526 -193 l 526 -358 q 526 -394 529 -424 q 531 -454 539 -477 q 547 -501 563 -519 l 563 -519 q 578 -536 601 -547 q 624 -558 652 -558 z"},"൝":{"ha":1458,"x_min":10,"x_max":1416,"o":"m 580 -558 l 580 -558 q 608 -558 631 -547 q 654 -536 669 -519 l 669 -519 q 685 -501 693 -477 q 701 -453 704 -423 q 706 -394 706 -358 l 706 -358 l 706 -193 q 706 -138 712 -101 q 718 -64 738 -42 l 738 -42 q 750 -29 768 -21 q 785 -14 806 -14 l 806 -14 q 827 -14 845 -21 q 862 -29 874 -42 l 874 -42 q 894 -64 900 -101 q 906 -138 906 -193 l 906 -193 l 906 -358 q 906 -394 909 -424 q 911 -454 919 -477 q 927 -501 943 -519 l 943 -519 q 958 -536 981 -547 q 1004 -558 1032 -558 l 1032 -558 q 1060 -558 1083 -547 q 1106 -536 1121 -519 l 1121 -519 q 1137 -501 1145 -477 q 1153 -453 1156 -423 q 1158 -394 1158 -358 l 1158 -358 l 1158 -210 q 1158 -143 1166 -103 q 1174 -64 1195 -41 l 1195 -41 q 1207 -28 1223 -21 q 1239 -14 1261 -14 l 1261 -14 q 1306 -14 1334 -44 q 1362 -74 1376 -126 q 1389 -178 1389 -243 l 1389 -243 q 1389 -312 1376 -364 q 1362 -417 1339 -458 q 1316 -500 1287 -536 l 1287 -536 l 1308 -553 q 1334 -518 1359 -476 q 1384 -435 1400 -379 q 1416 -323 1416 -244 l 1416 -244 q 1416 -166 1398 -108 q 1380 -51 1345 -19 q 1310 12 1260 12 l 1260 12 q 1232 12 1210 2 q 1188 -9 1174 -25 l 1174 -25 q 1156 -45 1147 -71 q 1138 -98 1135 -131 q 1132 -164 1132 -202 l 1132 -202 l 1132 -353 q 1132 -409 1126 -445 q 1120 -482 1100 -504 l 1100 -504 q 1088 -518 1071 -525 q 1053 -532 1032 -532 l 1032 -532 q 1011 -532 994 -525 q 976 -518 964 -504 l 964 -504 q 944 -482 938 -445 q 932 -409 932 -353 l 932 -353 l 932 -188 q 932 -152 930 -122 q 927 -93 919 -69 q 911 -45 895 -27 l 895 -27 q 880 -10 857 1 q 834 12 806 12 l 806 12 q 778 12 755 1 q 732 -10 717 -27 l 717 -27 q 701 -45 693 -69 q 685 -93 683 -123 q 680 -153 680 -188 l 680 -188 l 680 -353 q 680 -409 674 -445 q 668 -482 648 -504 l 648 -504 q 636 -518 619 -525 q 601 -532 580 -532 l 580 -532 q 559 -532 542 -525 q 524 -518 512 -504 l 512 -504 q 492 -482 486 -445 q 480 -409 480 -353 l 480 -353 l 480 -196 q 480 -128 472 -90 q 464 -53 439 -26 l 439 -26 q 425 -10 402 1 q 379 12 350 12 l 350 12 q 298 12 267 -21 q 236 -54 230 -133 l 230 -133 l 237 -124 q 231 -79 215 -48 q 199 -18 173 -3 q 146 12 108 12 l 108 12 q 86 12 60 7 q 33 1 10 -11 l 10 -11 l 21 -34 q 41 -24 63 -19 q 84 -14 108 -14 l 108 -14 q 135 -14 152 -21 q 169 -29 181 -42 l 181 -42 q 203 -66 213 -106 q 222 -146 222 -211 l 222 -211 l 222 -546 l 248 -546 l 248 -208 q 248 -147 256 -105 q 263 -63 284 -40 l 284 -40 q 295 -27 312 -20 q 328 -14 350 -14 l 350 -14 q 372 -14 389 -21 q 406 -28 418 -41 l 418 -41 q 439 -64 447 -102 q 454 -140 454 -205 l 454 -205 l 454 -358 q 454 -394 457 -424 q 459 -454 467 -477 q 475 -501 491 -519 l 491 -519 q 506 -536 529 -547 q 552 -558 580 -558 z"},"൞":{"ha":932,"x_min":42,"x_max":899,"o":"m 252 -558 l 252 -558 q 306 -558 347 -534 q 387 -511 415 -468 q 442 -425 456 -364 q 469 -303 469 -228 l 469 -228 q 469 -133 453 -81 q 436 -29 407 -8 q 377 12 339 12 l 339 12 q 299 12 273 -7 q 247 -27 235 -59 q 223 -91 223 -127 l 223 -127 q 223 -167 237 -199 q 250 -231 275 -253 l 275 -253 q 295 -271 322 -282 q 348 -293 382 -298 q 415 -303 454 -303 l 454 -303 l 461 -303 l 461 -277 l 454 -277 q 402 -277 364 -269 q 325 -261 297 -238 l 297 -238 q 275 -221 263 -193 q 250 -166 250 -130 l 250 -130 q 250 -77 272 -45 q 294 -14 338 -14 l 338 -14 q 373 -14 396 -33 q 419 -53 431 -99 q 443 -146 443 -226 l 443 -226 q 443 -242 443 -257 q 443 -272 441 -286 l 441 -286 l 441 -292 q 434 -370 410 -423 q 386 -477 347 -504 q 307 -532 252 -532 l 252 -532 q 190 -532 149 -498 q 108 -465 89 -410 q 69 -356 69 -291 l 69 -291 q 69 -222 84 -170 q 98 -119 123 -81 q 147 -43 175 -12 l 175 -12 l 156 6 q 131 -22 105 -60 q 78 -99 60 -155 q 42 -212 42 -291 l 42 -291 q 42 -347 56 -395 q 69 -443 96 -480 q 122 -517 162 -537 q 201 -558 252 -558 z m 774 -219 l 774 -219 q 738 -219 710 -237 q 681 -255 665 -289 q 649 -324 649 -375 l 649 -375 q 649 -422 666 -464 q 682 -506 709 -536 l 709 -536 l 705 -520 l 533 -520 l 541 -532 q 561 -504 575 -473 q 589 -442 589 -403 l 589 -403 q 589 -353 569 -325 q 549 -298 517 -287 q 485 -277 449 -277 l 449 -277 l 443 -277 l 443 -303 l 445 -303 q 473 -303 500 -309 q 527 -315 545 -336 q 563 -357 563 -402 l 563 -402 q 563 -438 549 -467 q 535 -496 518 -521 l 518 -521 l 528 -546 l 716 -546 l 730 -527 q 705 -496 691 -457 q 676 -418 676 -376 l 676 -376 q 676 -308 704 -276 q 731 -245 774 -245 l 774 -245 q 806 -245 828 -261 q 849 -277 861 -306 q 872 -335 872 -374 l 872 -374 q 872 -427 853 -467 q 834 -507 810 -537 l 810 -537 l 830 -554 q 858 -518 879 -475 q 899 -432 899 -373 l 899 -373 q 899 -326 883 -291 q 867 -257 839 -238 q 811 -219 774 -219 z"},"ൟ":{"ha":919,"x_min":27,"x_max":892,"o":"m 27 -264 l 27 -264 q 27 -324 52 -356 q 77 -388 117 -388 l 117 -388 q 157 -388 182 -356 q 207 -324 207 -264 l 207 -264 q 207 -204 182 -172 q 157 -140 117 -140 l 117 -140 q 77 -140 52 -172 q 27 -204 27 -264 z m 54 -264 l 54 -264 q 54 -215 71 -190 q 88 -165 117 -165 l 117 -165 q 146 -165 163 -190 q 180 -215 180 -264 l 180 -264 q 180 -313 163 -338 q 146 -363 117 -363 l 117 -363 q 88 -363 71 -338 q 54 -313 54 -264 z m 712 -264 l 712 -264 q 712 -324 737 -356 q 762 -388 802 -388 l 802 -388 q 842 -388 867 -356 q 892 -324 892 -264 l 892 -264 q 892 -204 867 -172 q 842 -140 802 -140 l 802 -140 q 762 -140 737 -172 q 712 -204 712 -264 z m 739 -264 l 739 -264 q 739 -215 756 -190 q 773 -165 802 -165 l 802 -165 q 831 -165 848 -190 q 865 -215 865 -264 l 865 -264 q 865 -313 848 -338 q 831 -363 802 -363 l 802 -363 q 773 -363 756 -338 q 739 -313 739 -264 z m 456 -558 l 456 -558 q 510 -558 551 -535 q 591 -512 619 -469 q 646 -426 660 -367 q 673 -308 673 -236 l 673 -236 q 673 -139 657 -85 q 640 -31 612 -9 q 583 12 545 12 l 545 12 q 501 12 473 -12 q 445 -36 432 -81 q 419 -127 419 -189 l 419 -189 q 419 -288 455 -334 q 490 -380 547 -380 l 547 -380 q 578 -380 601 -368 q 623 -356 640 -336 q 656 -317 666 -295 l 666 -295 l 661 -271 q 648 -294 633 -312 q 618 -331 598 -342 q 578 -354 549 -354 l 549 -354 q 496 -354 471 -312 q 446 -270 446 -188 l 446 -188 q 446 -134 456 -95 q 465 -56 487 -35 q 509 -14 546 -14 l 546 -14 q 577 -14 600 -34 q 622 -54 635 -102 q 647 -151 647 -236 l 647 -236 q 647 -253 647 -275 q 646 -298 644 -306 l 644 -306 q 645 -308 646 -309 q 646 -310 645 -314 l 645 -314 q 636 -370 615 -420 q 594 -470 556 -501 q 518 -532 456 -532 l 456 -532 q 394 -532 353 -498 q 312 -465 293 -410 q 273 -356 273 -291 l 273 -291 q 273 -222 288 -170 q 302 -119 327 -81 q 351 -43 379 -12 l 379 -12 l 360 6 q 335 -22 309 -60 q 282 -99 264 -155 q 246 -212 246 -291 l 246 -291 q 246 -347 260 -395 q 273 -443 300 -480 q 326 -517 366 -537 q 405 -558 456 -558 z"},"ൠ":{"ha":621,"x_min":40,"x_max":581,"o":"m 462 -558 l 462 -558 q 519 -558 550 -508 q 581 -459 581 -364 l 581 -364 q 581 -315 571 -274 q 561 -234 541 -203 l 541 -203 q 511 -157 459 -132 q 406 -107 334 -107 l 334 -107 l 320 -107 l 299 -107 l 287 -107 q 215 -107 163 -132 q 110 -157 80 -203 l 80 -203 q 61 -234 51 -274 q 40 -314 40 -362 l 40 -362 q 40 -425 55 -468 q 69 -512 97 -535 q 124 -558 163 -558 l 163 -558 q 196 -558 219 -540 q 242 -522 254 -490 q 266 -459 266 -417 l 266 -417 q 266 -374 253 -342 q 240 -310 215 -293 q 190 -276 154 -276 l 154 -276 q 133 -276 115 -283 q 96 -290 80 -302 q 63 -315 48 -331 l 48 -331 l 56 -356 q 69 -340 84 -327 q 98 -315 115 -308 q 132 -302 153 -302 l 153 -302 q 195 -302 217 -330 q 239 -359 239 -418 l 239 -418 q 239 -471 219 -501 q 199 -532 163 -532 l 163 -532 q 130 -532 108 -510 q 86 -489 76 -451 q 65 -413 65 -361 l 65 -361 q 65 -354 66 -345 q 66 -336 67 -328 l 67 -328 l 68 -316 q 75 -264 96 -227 q 117 -191 149 -168 q 181 -145 222 -134 q 262 -123 307 -123 l 307 -123 l 314 -123 q 359 -123 400 -134 q 440 -145 472 -168 q 504 -191 525 -227 q 546 -264 553 -316 l 553 -316 l 554 -328 q 555 -336 556 -345 q 556 -354 556 -364 l 556 -364 q 556 -416 546 -453 q 536 -491 516 -511 q 495 -532 462 -532 l 462 -532 q 423 -532 403 -498 q 382 -465 382 -412 l 382 -412 q 382 -357 403 -329 q 424 -302 464 -302 l 464 -302 q 487 -302 505 -308 q 522 -315 537 -327 q 551 -340 564 -356 l 564 -356 l 572 -331 q 558 -315 542 -302 q 525 -290 506 -283 q 486 -276 463 -276 l 463 -276 q 428 -276 404 -293 q 380 -310 368 -341 q 355 -372 355 -412 l 355 -412 q 355 -455 368 -487 q 381 -520 405 -539 q 429 -558 462 -558 z m 310 203 l 310 203 q 225 203 170 185 q 115 166 89 129 q 62 92 62 39 l 62 39 q 62 -3 79 -32 q 96 -61 126 -79 q 155 -98 194 -106 q 233 -114 278 -114 l 278 -114 l 343 -114 q 388 -114 427 -106 q 466 -98 496 -80 q 525 -62 542 -33 q 559 -4 559 38 l 559 38 q 559 90 533 127 q 507 164 452 184 q 397 203 310 203 z m 311 177 l 311 177 q 387 177 436 162 q 484 146 508 116 q 532 85 532 39 l 532 39 q 532 5 519 -20 q 505 -46 478 -63 q 450 -81 409 -89 q 367 -98 312 -98 l 312 -98 l 309 -98 q 236 -98 187 -82 q 138 -67 114 -36 q 89 -6 89 39 l 89 39 q 89 85 112 116 q 135 146 184 162 q 233 177 311 177 z m 368 -33 l 368 -33 q 388 -33 402 -24 q 415 -16 423 -2 q 431 12 435 30 q 438 47 438 65 l 438 65 l 438 103 l 412 103 l 412 72 q 412 28 401 11 q 390 -7 368 -7 l 368 -7 q 346 -7 335 14 q 323 34 323 72 l 323 72 l 323 103 l 297 103 l 297 72 q 297 34 286 14 q 275 -7 252 -7 l 252 -7 q 230 -7 219 11 q 208 28 208 72 l 208 72 l 208 103 l 182 103 l 182 64 q 182 46 186 29 q 189 11 197 -2 q 205 -16 219 -24 q 232 -33 252 -33 l 252 -33 q 272 -33 288 -19 q 303 -6 310 19 l 310 19 q 318 -6 334 -19 q 349 -33 368 -33 z"},"ൡ":{"ha":897,"x_min":44,"x_max":870,"o":"m 245 -558 l 245 -558 q 311 -558 347 -520 q 382 -483 390 -413 l 390 -413 l 392 -370 l 399 -295 l 399 0 l 373 0 l 373 -325 q 373 -395 364 -437 q 354 -479 327 -504 l 327 -504 q 313 -518 293 -525 q 273 -532 245 -532 l 245 -532 q 193 -532 154 -495 q 114 -458 92 -392 q 70 -326 70 -237 l 70 -237 l 70 -222 q 70 -144 82 -98 q 93 -53 115 -33 q 137 -14 168 -14 l 168 -14 q 189 -14 207 -25 q 225 -37 236 -67 q 246 -97 246 -151 l 246 -151 q 246 -210 226 -243 q 206 -276 165 -276 l 165 -276 q 131 -276 106 -259 q 81 -242 58 -212 l 58 -212 l 49 -235 q 80 -272 108 -287 q 135 -302 165 -302 l 165 -302 q 195 -302 220 -286 q 244 -271 259 -237 q 273 -204 273 -151 l 273 -151 q 273 -90 259 -54 q 244 -19 221 -3 q 197 12 168 12 l 168 12 q 132 12 104 -8 q 76 -29 60 -80 q 44 -132 44 -225 l 44 -225 q 44 -333 70 -407 q 96 -481 142 -519 q 187 -558 245 -558 z m 535 -558 l 535 -558 q 600 -558 641 -526 q 681 -494 704 -443 q 727 -393 736 -337 l 736 -337 q 741 -309 743 -279 q 745 -250 745 -224 l 745 -224 q 745 -135 727 -83 q 709 -32 679 -10 q 649 12 612 12 l 612 12 q 569 12 543 -12 q 517 -36 506 -75 q 495 -114 495 -159 l 495 -159 q 495 -256 543 -306 q 591 -357 672 -357 l 672 -357 q 683 -357 694 -355 q 704 -354 714 -352 l 714 -352 l 727 -350 q 777 -335 809 -294 q 840 -254 855 -199 q 870 -144 870 -84 l 870 -84 q 870 -15 855 39 q 840 92 811 128 q 782 164 740 183 q 697 201 642 201 l 642 201 q 618 201 595 198 q 571 194 545 186 l 545 186 l 553 161 q 572 167 594 171 q 615 175 641 175 l 641 175 q 694 175 733 157 q 771 139 796 106 q 820 72 832 24 q 843 -24 843 -85 l 843 -85 q 843 -132 832 -181 q 821 -230 796 -268 q 771 -307 729 -323 l 729 -323 l 716 -326 q 706 -328 696 -329 q 686 -331 675 -331 l 675 -331 q 630 -331 596 -314 q 561 -297 542 -259 q 522 -222 522 -160 l 522 -160 q 522 -122 530 -88 q 537 -55 557 -34 q 577 -14 613 -14 l 613 -14 q 666 -14 692 -66 q 718 -118 718 -224 l 718 -224 q 718 -250 717 -278 q 715 -306 710 -334 l 710 -334 l 708 -345 q 699 -393 679 -436 q 659 -479 624 -505 q 589 -532 534 -532 l 534 -532 q 506 -532 485 -524 q 464 -517 448 -503 l 448 -503 q 433 -490 422 -468 q 411 -447 405 -415 q 399 -384 399 -338 l 399 -338 l 399 -262 l 380 -386 q 384 -447 405 -485 q 425 -523 459 -540 q 492 -558 535 -558 z"},"ൢ":{"ha":0,"x_min":-538,"x_max":-39,"o":"m -396 -1 l -396 -1 q -345 -1 -318 29 q -292 59 -285 113 l -285 113 l -279 146 l -279 332 l -305 332 l -305 162 q -305 124 -311 94 q -318 63 -336 45 l -336 45 q -346 34 -360 29 q -375 23 -395 23 l -395 23 q -427 23 -451 40 q -476 57 -491 87 q -506 116 -510 156 l -510 156 q -511 163 -511 171 q -512 178 -512 185 l -512 185 q -512 246 -497 279 q -483 311 -454 311 l -454 311 q -423 311 -410 287 q -398 263 -398 226 l -398 226 q -398 181 -412 162 q -427 142 -452 142 l -452 142 q -472 142 -489 152 q -507 161 -524 179 l -524 179 l -531 157 q -513 139 -493 128 q -473 117 -451 117 l -451 117 q -416 117 -393 144 q -371 170 -371 226 l -371 226 q -371 276 -392 307 q -413 337 -454 337 l -454 337 q -496 337 -517 295 q -538 252 -538 185 l -538 185 q -538 130 -520 89 q -503 47 -471 23 q -439 -1 -396 -1 z m -177 -1 l -177 -1 q -127 -1 -97 24 q -67 48 -53 91 q -39 134 -39 188 l -39 188 q -39 273 -64 305 q -89 337 -127 337 l -127 337 q -156 337 -175 322 q -195 306 -204 280 q -214 254 -214 221 l -214 221 q -214 183 -202 157 q -190 130 -169 116 q -148 102 -121 102 l -121 102 q -101 102 -85 112 q -70 121 -58 135 q -47 148 -42 162 l -42 162 l -48 181 q -60 159 -76 143 q -93 127 -119 127 l -119 127 q -152 127 -169 152 q -187 176 -187 222 l -187 222 q -187 258 -173 285 q -160 311 -127 311 l -127 311 q -96 311 -80 282 q -65 252 -65 188 l -65 188 q -65 174 -65 162 q -66 150 -67 143 l -67 143 l -68 135 q -71 108 -83 82 q -95 56 -117 40 q -140 23 -177 23 l -177 23 q -201 23 -218 31 q -235 38 -247 52 l -247 52 q -264 72 -271 102 q -279 131 -279 176 l -279 176 l -298 142 q -296 101 -283 69 q -271 37 -245 18 q -219 -1 -177 -1 z"},"ൣ":{"ha":0,"x_min":-538,"x_max":46,"o":"m -396 -1 l -396 -1 q -345 -1 -318 29 q -292 59 -285 113 l -285 113 l -279 146 l -279 332 l -305 332 l -305 162 q -305 124 -311 94 q -318 63 -336 45 l -336 45 q -346 34 -360 29 q -375 23 -395 23 l -395 23 q -427 23 -451 40 q -476 57 -491 87 q -506 116 -510 156 l -510 156 q -511 163 -511 171 q -512 178 -512 185 l -512 185 q -512 246 -497 279 q -483 311 -454 311 l -454 311 q -423 311 -410 287 q -398 263 -398 226 l -398 226 q -398 181 -412 162 q -427 142 -452 142 l -452 142 q -472 142 -489 152 q -507 161 -524 179 l -524 179 l -531 157 q -513 139 -493 128 q -473 117 -451 117 l -451 117 q -416 117 -393 144 q -371 170 -371 226 l -371 226 q -371 276 -392 307 q -413 337 -454 337 l -454 337 q -496 337 -517 295 q -538 252 -538 185 l -538 185 q -538 130 -520 89 q -503 47 -471 23 q -439 -1 -396 -1 z m -177 -1 l -177 -1 q -127 -1 -97 27 q -68 54 -55 97 q -42 140 -42 187 l -42 187 q -42 245 -53 278 q -65 311 -85 324 q -105 337 -132 337 l -132 337 q -157 337 -175 323 q -194 308 -204 285 q -214 261 -214 233 l -214 233 q -214 165 -179 134 q -144 102 -95 102 l -95 102 q -87 102 -78 103 q -70 103 -63 105 l -63 105 q -23 112 1 136 q 24 159 35 193 q 46 226 46 263 l 46 263 q 46 291 41 317 q 35 343 24 364 l 24 364 l 0 355 q 9 335 14 313 q 19 290 19 265 l 19 265 q 19 221 4 183 q -12 145 -53 132 l -53 132 l -64 130 q -71 128 -78 128 q -86 127 -94 127 l -94 127 q -137 127 -162 153 q -187 178 -187 234 l -187 234 q -187 261 -174 286 q -161 311 -130 311 l -130 311 q -99 311 -83 284 q -68 256 -68 187 l -68 187 q -68 170 -69 153 q -71 135 -76 118 l -76 118 l -78 108 q -85 85 -98 66 q -111 46 -130 35 q -149 23 -177 23 l -177 23 q -201 23 -218 31 q -235 38 -247 52 l -247 52 q -264 72 -271 102 q -279 131 -279 176 l -279 176 l -298 142 q -297 112 -289 86 q -282 60 -267 41 q -253 21 -230 10 q -208 -1 -177 -1 z"},"൦":{"ha":415,"x_min":44,"x_max":371,"o":"m 207 -49 l 207 -49 q 158 -49 121 -75 q 84 -102 64 -154 q 44 -206 44 -282 l 44 -282 q 44 -358 64 -409 q 84 -461 121 -487 q 158 -514 207 -514 l 207 -514 q 257 -514 294 -487 q 331 -461 351 -409 q 371 -358 371 -282 l 371 -282 q 371 -206 351 -154 q 331 -102 294 -75 q 257 -49 207 -49 z m 207 -75 l 207 -75 q 249 -75 280 -97 q 310 -119 327 -165 q 344 -211 344 -282 l 344 -282 q 344 -388 307 -438 q 269 -488 207 -488 l 207 -488 q 146 -488 109 -438 q 71 -388 71 -281 l 71 -281 q 71 -175 109 -125 q 146 -75 207 -75 z"},"൧":{"ha":636,"x_min":13,"x_max":575,"o":"m 281 175 l 281 201 l 179 201 q 134 201 105 194 q 75 187 52 170 l 52 170 q 33 156 23 135 q 13 114 13 86 l 13 86 q 13 63 20 45 q 27 26 40 13 l 40 13 q 54 -1 73 -9 q 91 -18 119 -22 q 146 -26 187 -26 l 187 -26 l 278 -26 l 277 0 l 190 0 q 139 0 108 6 q 77 11 59 30 l 59 30 q 50 40 45 54 q 40 68 40 86 l 40 86 q 40 128 68 150 l 68 150 q 85 163 113 169 q 140 175 186 175 l 186 175 l 281 175 z m 422 -558 l 422 -558 q 453 -558 477 -549 q 500 -540 516 -526 l 516 -526 q 554 -493 565 -446 q 575 -400 575 -335 l 575 -335 l 575 0 l 263 0 l 263 -342 q 263 -381 268 -414 q 273 -448 286 -475 q 298 -503 322 -524 l 322 -524 q 339 -539 365 -548 q 390 -558 422 -558 z m 422 -532 l 422 -532 q 394 -532 372 -523 q 349 -515 334 -501 l 334 -501 q 304 -471 297 -426 q 289 -381 289 -327 l 289 -327 l 289 -26 l 549 -26 l 549 -329 q 549 -382 542 -429 q 534 -476 502 -504 l 502 -504 q 488 -517 469 -524 q 449 -532 422 -532 z"},"൨":{"ha":609,"x_min":42,"x_max":592,"o":"m 238 -558 l 238 -558 q 284 -558 320 -538 q 355 -518 380 -482 q 404 -446 417 -397 q 429 -349 429 -292 l 429 -292 q 429 -213 411 -157 q 393 -101 369 -66 q 345 -31 325 -12 l 325 -12 l 328 -26 l 592 -26 l 592 0 l 315 0 l 303 -21 q 323 -43 346 -78 q 369 -113 386 -165 q 402 -218 402 -291 l 402 -291 q 402 -361 384 -415 q 365 -470 328 -501 q 291 -532 237 -532 l 237 -532 q 181 -532 144 -499 q 106 -466 88 -411 q 69 -356 69 -291 l 69 -291 q 69 -222 84 -170 q 98 -119 123 -81 q 147 -43 175 -12 l 175 -12 l 156 6 q 131 -22 105 -60 q 78 -99 60 -155 q 42 -212 42 -291 l 42 -291 q 42 -348 55 -396 q 68 -445 94 -481 q 119 -517 156 -537 q 192 -558 238 -558 z"},"൩":{"ha":772,"x_min":42,"x_max":755,"o":"m 201 -558 l 201 -558 q 234 -558 259 -544 q 284 -530 300 -500 q 316 -470 322 -422 l 322 -422 l 316 -422 q 327 -494 358 -526 q 389 -558 440 -558 l 440 -558 q 488 -558 523 -525 q 558 -493 577 -435 q 596 -377 596 -302 l 596 -302 q 596 -225 581 -170 q 565 -116 544 -79 q 523 -43 505 -18 l 505 -18 l 508 0 l 490 0 l 478 -21 q 501 -55 522 -93 q 543 -132 556 -183 q 569 -234 569 -303 l 569 -303 q 569 -366 554 -418 q 539 -470 511 -501 q 482 -532 441 -532 l 441 -532 q 417 -532 401 -525 q 385 -518 373 -504 l 373 -504 q 351 -480 342 -440 q 332 -400 332 -335 l 332 -335 l 332 0 l 306 0 l 306 -335 q 306 -399 297 -439 q 288 -480 266 -504 l 266 -504 q 254 -518 238 -525 q 222 -532 200 -532 l 200 -532 q 158 -532 129 -501 q 99 -470 84 -418 q 69 -366 69 -303 l 69 -303 q 69 -234 83 -181 q 96 -129 120 -87 q 143 -46 171 -10 l 171 -10 l 150 6 q 124 -29 99 -70 q 74 -111 58 -167 q 42 -223 42 -302 l 42 -302 q 42 -377 62 -435 q 81 -493 117 -525 q 153 -558 201 -558 z m 500 0 l 503 -26 l 755 -26 l 755 0 l 500 0 z"},"൪":{"ha":543,"x_min":42,"x_max":539,"o":"m 254 -558 l 254 -558 q 309 -558 349 -531 q 389 -505 417 -463 l 417 -463 q 452 -411 468 -344 q 483 -277 483 -211 l 483 -211 q 483 -130 466 -81 q 448 -32 418 -10 q 387 12 348 12 l 348 12 q 304 12 275 -11 q 246 -34 232 -74 q 218 -115 218 -165 l 218 -165 q 218 -223 237 -272 q 256 -322 296 -368 q 335 -414 397 -461 l 397 -461 q 444 -496 469 -520 q 494 -544 503 -566 q 512 -589 512 -619 l 512 -619 q 512 -645 505 -664 q 497 -684 485 -704 l 485 -704 l 508 -716 q 520 -697 530 -672 q 539 -648 539 -619 l 539 -619 q 539 -585 528 -558 q 517 -532 489 -505 q 461 -478 410 -440 l 410 -440 q 354 -398 317 -355 q 280 -312 263 -265 q 245 -219 245 -165 l 245 -165 q 245 -95 271 -54 q 296 -14 348 -14 l 348 -14 q 380 -14 404 -32 q 428 -51 442 -94 q 456 -137 456 -211 l 456 -211 q 456 -269 443 -333 q 430 -398 398 -447 l 398 -447 q 374 -485 339 -508 q 303 -532 253 -532 l 253 -532 q 190 -532 149 -499 q 108 -466 89 -411 q 69 -357 69 -291 l 69 -291 q 69 -222 84 -170 q 98 -119 123 -81 q 147 -43 175 -12 l 175 -12 l 156 6 q 131 -22 105 -60 q 78 -99 60 -155 q 42 -212 42 -291 l 42 -291 q 42 -347 56 -395 q 69 -444 96 -480 q 123 -517 163 -537 q 202 -558 254 -558 z"},"൫":{"ha":684,"x_min":48,"x_max":636,"o":"m 353 -723 l 353 -723 q 425 -723 478 -690 q 531 -658 567 -600 q 602 -542 619 -466 q 636 -391 636 -305 l 636 -305 q 636 -217 623 -140 q 610 -63 584 12 l 584 12 l 560 2 q 577 -45 588 -94 q 598 -144 604 -197 q 609 -250 609 -305 l 609 -305 q 609 -386 594 -457 q 579 -528 548 -582 q 516 -636 468 -666 q 419 -697 353 -697 l 353 -697 q 275 -697 212 -651 q 149 -606 112 -508 q 75 -411 75 -255 l 75 -255 q 75 -164 89 -89 q 103 -14 131 40 q 159 94 202 123 q 244 152 301 152 l 301 152 q 381 152 425 103 q 469 53 469 -52 l 469 -52 q 469 -111 452 -153 q 434 -195 401 -218 q 368 -241 323 -241 l 323 -241 l 318 -241 l 318 -267 l 321 -267 q 357 -267 382 -274 q 407 -281 424 -296 l 424 -296 q 441 -311 451 -334 q 460 -357 460 -391 l 460 -391 q 460 -455 430 -486 q 400 -517 355 -517 l 355 -517 q 312 -517 280 -488 q 248 -460 231 -408 q 213 -356 213 -283 l 213 -283 q 213 -211 232 -144 q 250 -77 285 -3 l 285 -3 l 261 7 q 225 -71 206 -137 q 186 -204 186 -285 l 186 -285 q 186 -361 207 -419 q 227 -477 265 -510 q 303 -543 356 -543 l 356 -543 q 392 -543 422 -525 q 452 -507 470 -473 q 487 -440 487 -392 l 487 -392 q 487 -354 474 -323 q 461 -293 435 -274 q 408 -255 365 -250 l 365 -250 l 367 -256 q 425 -246 461 -191 q 496 -136 496 -52 l 496 -52 q 496 26 472 77 q 448 128 404 153 q 360 178 301 178 l 301 178 q 224 178 167 129 q 110 80 79 -16 q 48 -113 48 -255 l 48 -255 q 48 -379 72 -467 q 96 -556 138 -612 q 180 -669 235 -696 q 290 -723 353 -723 z"},"൬":{"ha":850,"x_min":42,"x_max":802,"o":"m 423 -558 l 423 -558 q 473 -558 506 -525 q 538 -492 544 -413 l 544 -413 l 552 -317 l 552 0 l 526 0 l 526 -334 q 526 -403 518 -444 q 509 -485 486 -508 l 486 -508 q 475 -519 459 -525 q 443 -532 423 -532 l 423 -532 q 404 -532 388 -525 q 371 -519 360 -508 l 360 -508 q 337 -485 329 -444 q 320 -403 320 -334 l 320 -334 l 320 0 l 294 0 l 294 -337 q 294 -401 286 -440 q 278 -480 257 -504 l 257 -504 q 245 -518 230 -525 q 214 -532 193 -532 l 193 -532 q 153 -532 126 -500 q 98 -469 84 -417 q 69 -365 69 -303 l 69 -303 q 69 -234 83 -181 q 96 -129 120 -87 q 143 -46 171 -10 l 171 -10 l 150 6 q 124 -29 99 -70 q 74 -111 58 -167 q 42 -224 42 -303 l 42 -303 q 42 -378 61 -435 q 79 -493 114 -525 q 148 -558 194 -558 l 194 -558 q 242 -558 273 -525 q 303 -493 310 -422 l 310 -422 l 302 -413 q 310 -493 342 -525 q 373 -558 423 -558 z m 654 -558 l 654 -558 q 724 -558 763 -475 q 802 -393 802 -224 l 802 -224 q 802 -88 779 7 q 756 102 702 152 q 647 201 553 201 l 553 201 q 535 201 518 200 q 500 198 484 194 l 484 194 l 487 168 q 504 172 522 174 q 540 175 553 175 l 553 175 q 621 175 664 147 q 707 119 732 67 q 756 14 766 -59 q 775 -133 775 -224 l 775 -224 q 775 -324 762 -392 q 748 -461 721 -496 q 694 -532 654 -532 l 654 -532 q 632 -532 616 -523 q 599 -515 587 -499 l 587 -499 q 568 -474 560 -436 q 552 -399 552 -335 l 552 -335 l 552 -10 l 534 -10 l 534 -322 l 536 -422 q 545 -493 576 -525 q 607 -558 654 -558 z"},"൭":{"ha":521,"x_min":42,"x_max":475,"o":"m 261 -558 l 261 -558 q 315 -558 355 -533 q 395 -509 422 -462 q 449 -416 462 -350 q 475 -284 475 -201 l 475 -201 q 475 -119 463 -46 q 450 27 422 83 q 393 138 344 170 q 295 201 222 201 l 222 201 q 203 201 182 200 q 161 198 141 194 l 141 194 l 144 168 q 164 172 183 174 q 202 175 222 175 l 222 175 q 289 175 333 146 q 376 116 402 64 q 427 12 438 -56 q 448 -124 448 -201 l 448 -201 q 448 -359 402 -445 q 356 -532 261 -532 l 261 -532 q 204 -532 161 -496 q 117 -461 93 -394 q 68 -328 68 -234 l 68 -234 l 68 -223 q 68 -145 80 -99 q 91 -53 113 -33 q 135 -14 166 -14 l 166 -14 q 187 -14 205 -25 q 223 -37 234 -67 q 244 -97 244 -151 l 244 -151 q 244 -210 224 -243 q 204 -276 163 -276 l 163 -276 q 129 -276 104 -259 q 79 -242 56 -212 l 56 -212 l 47 -235 q 78 -272 106 -287 q 133 -302 163 -302 l 163 -302 q 193 -302 218 -286 q 242 -271 257 -237 q 271 -204 271 -151 l 271 -151 q 271 -90 257 -54 q 242 -19 219 -3 q 195 12 166 12 l 166 12 q 131 12 103 -8 q 74 -28 58 -80 q 42 -133 42 -229 l 42 -229 q 42 -335 71 -408 q 99 -482 149 -520 q 198 -558 261 -558 z"},"൮":{"ha":680,"x_min":42,"x_max":615,"o":"m 238 -558 l 238 -558 q 284 -558 320 -538 q 355 -518 380 -482 q 404 -446 417 -397 q 429 -349 429 -292 l 429 -292 q 429 -213 411 -157 q 393 -101 369 -66 q 345 -31 325 -12 l 325 -12 l 328 -26 l 589 -26 l 589 -546 l 615 -546 l 615 -60 l 595 0 l 315 0 l 303 -21 q 323 -43 346 -78 q 369 -113 386 -165 q 402 -218 402 -291 l 402 -291 q 402 -361 384 -415 q 365 -470 328 -501 q 291 -532 237 -532 l 237 -532 q 181 -532 144 -499 q 106 -466 88 -411 q 69 -356 69 -291 l 69 -291 q 69 -222 84 -170 q 98 -119 123 -81 q 147 -43 175 -12 l 175 -12 l 156 6 q 131 -22 105 -60 q 78 -99 60 -155 q 42 -212 42 -291 l 42 -291 q 42 -348 55 -396 q 68 -445 94 -481 q 119 -517 156 -537 q 192 -558 238 -558 z m 393 201 l 393 201 q 371 201 349 199 q 326 197 306 192 l 306 192 l 310 166 q 327 170 349 173 q 371 175 393 175 l 393 175 q 453 175 491 160 q 528 145 549 119 q 569 93 578 59 q 587 25 589 -13 l 589 -13 l 615 -90 l 615 -37 q 615 9 608 46 q 601 82 586 110 q 571 138 547 157 l 547 157 q 519 179 482 190 q 444 201 393 201 z"},"൯":{"ha":762,"x_min":42,"x_max":758,"o":"m 201 -558 l 201 -558 q 234 -558 259 -544 q 284 -530 300 -500 q 316 -470 322 -422 l 322 -422 l 332 -289 l 332 0 l 306 0 l 306 -335 q 306 -399 297 -439 q 288 -480 266 -504 l 266 -504 q 254 -518 238 -525 q 222 -532 200 -532 l 200 -532 q 158 -532 129 -501 q 99 -470 84 -418 q 69 -366 69 -303 l 69 -303 q 69 -234 83 -181 q 96 -129 120 -87 q 143 -46 171 -10 l 171 -10 l 150 6 q 124 -29 99 -70 q 74 -111 58 -167 q 42 -223 42 -302 l 42 -302 q 42 -377 62 -435 q 81 -493 117 -525 q 153 -558 201 -558 z m 466 -558 l 466 -558 q 525 -558 566 -531 q 607 -504 635 -462 l 635 -462 q 670 -410 686 -343 q 702 -277 702 -211 l 702 -211 q 702 -130 685 -81 q 667 -32 637 -10 q 606 12 567 12 l 567 12 q 523 12 494 -11 q 465 -34 451 -74 q 437 -115 437 -165 l 437 -165 q 437 -223 456 -272 q 475 -322 515 -368 q 554 -414 616 -461 l 616 -461 q 663 -496 688 -520 q 713 -544 722 -566 q 731 -589 731 -619 l 731 -619 q 731 -645 724 -664 q 716 -684 704 -704 l 704 -704 l 727 -716 q 739 -697 749 -672 q 758 -648 758 -619 l 758 -619 q 758 -585 747 -558 q 736 -532 708 -505 q 680 -478 629 -440 l 629 -440 q 573 -398 536 -355 q 499 -312 482 -265 q 464 -219 464 -165 l 464 -165 q 464 -95 490 -54 q 515 -14 567 -14 l 567 -14 q 599 -14 623 -32 q 647 -51 661 -94 q 675 -137 675 -211 l 675 -211 q 675 -272 662 -334 q 648 -397 616 -446 l 616 -446 q 592 -484 555 -508 q 518 -532 466 -532 l 466 -532 q 438 -532 416 -524 q 393 -517 376 -500 l 376 -500 q 363 -487 353 -466 q 343 -445 338 -414 q 332 -383 332 -338 l 332 -338 l 332 -179 l 314 -179 l 314 -280 l 311 -385 q 316 -449 337 -487 q 357 -525 390 -541 q 423 -558 466 -558 z"},"൰":{"ha":768,"x_min":-22,"x_max":726,"o":"m 192 -546 l 218 -546 l 218 -115 l 217 -78 q 217 -2 210 56 q 203 114 167 152 l 167 152 q 147 174 115 188 q 83 201 36 201 l 36 201 q 25 201 10 200 q -6 199 -22 195 l -22 195 l -21 169 q -9 172 6 174 q 20 175 36 175 l 36 175 q 77 175 104 164 q 130 153 148 134 l 148 134 q 174 105 183 60 q 192 14 192 -65 l 192 -65 l 192 -546 z m 567 12 l 567 12 q 518 12 487 -20 q 456 -53 446 -124 l 446 -124 l 454 -133 q 447 -54 414 -21 q 380 12 327 12 l 327 12 q 292 12 266 -2 q 240 -17 224 -49 q 208 -81 202 -134 l 202 -134 l 202 -211 l 202 -526 l 218 -526 l 218 -212 q 218 -143 227 -102 q 236 -61 260 -38 l 260 -38 q 272 -27 289 -20 q 305 -14 327 -14 l 327 -14 q 349 -14 366 -20 q 382 -27 394 -38 l 394 -38 q 418 -61 427 -102 q 436 -143 436 -212 l 436 -212 l 436 -546 l 462 -546 l 462 -211 q 462 -147 471 -106 q 480 -66 502 -42 l 502 -42 q 514 -29 530 -21 q 546 -14 568 -14 l 568 -14 q 611 -14 640 -45 q 669 -76 684 -128 q 699 -181 699 -243 l 699 -243 q 699 -312 686 -364 q 672 -417 649 -458 q 626 -500 597 -536 l 597 -536 l 618 -552 q 644 -517 669 -476 q 694 -435 710 -379 q 726 -323 726 -243 l 726 -243 q 726 -169 707 -111 q 687 -53 652 -20 q 616 12 567 12 z"},"൱":{"ha":638,"x_min":42,"x_max":590,"o":"m 201 -558 l 201 -558 q 234 -558 259 -544 q 284 -530 300 -500 q 316 -470 322 -422 l 322 -422 l 332 -289 l 332 0 l 306 0 l 306 -335 q 306 -399 297 -439 q 288 -480 266 -504 l 266 -504 q 254 -518 238 -525 q 222 -532 200 -532 l 200 -532 q 158 -532 129 -501 q 99 -470 84 -418 q 69 -366 69 -303 l 69 -303 q 69 -234 83 -181 q 96 -129 120 -87 q 143 -46 171 -10 l 171 -10 l 150 6 q 124 -29 99 -70 q 74 -111 58 -167 q 42 -223 42 -302 l 42 -302 q 42 -377 62 -435 q 81 -493 117 -525 q 153 -558 201 -558 z m 438 -558 l 438 -558 q 487 -558 521 -521 q 554 -485 572 -411 q 590 -337 590 -224 l 590 -224 q 590 -88 567 7 q 544 102 490 152 q 435 201 341 201 l 341 201 q 323 201 306 200 q 288 198 272 194 l 272 194 l 275 168 q 292 172 310 174 q 328 175 341 175 l 341 175 q 409 175 452 147 q 495 119 520 67 q 544 14 554 -59 q 563 -133 563 -224 l 563 -224 q 563 -324 549 -392 q 535 -461 508 -496 q 480 -532 438 -532 l 438 -532 q 416 -532 399 -524 q 381 -516 368 -500 l 368 -500 q 349 -475 341 -437 q 332 -399 332 -335 l 332 -335 l 332 -10 l 314 -10 l 314 -322 l 316 -422 q 325 -495 357 -526 q 389 -558 438 -558 z"},"൲":{"ha":952,"x_min":42,"x_max":930,"o":"m 829 -546 l 829 -546 q 860 -546 883 -530 q 905 -514 918 -486 q 930 -458 930 -421 l 930 -421 q 930 -386 920 -357 q 910 -329 890 -312 l 890 -312 q 876 -300 860 -292 q 843 -284 822 -280 q 801 -277 774 -277 l 774 -277 l 673 -277 l 673 -303 l 772 -303 q 813 -303 836 -310 q 858 -317 873 -331 l 873 -331 q 889 -345 896 -368 q 903 -392 903 -420 l 903 -420 q 903 -464 885 -492 q 866 -520 830 -520 l 830 -520 q 793 -520 772 -493 q 750 -466 750 -413 l 750 -413 q 750 -378 761 -346 q 772 -315 789 -286 l 789 -286 l 762 -283 q 746 -309 735 -344 q 723 -379 723 -418 l 723 -418 q 723 -458 737 -486 q 751 -515 776 -530 q 800 -546 829 -546 z m 201 -558 l 201 -558 q 234 -558 259 -544 q 284 -530 300 -500 q 316 -470 322 -422 l 322 -422 l 332 -289 l 332 0 l 306 0 l 306 -335 q 306 -399 297 -439 q 288 -480 266 -504 l 266 -504 q 254 -518 238 -525 q 222 -532 200 -532 l 200 -532 q 158 -532 129 -501 q 99 -470 84 -418 q 69 -366 69 -303 l 69 -303 q 69 -234 83 -181 q 96 -129 120 -87 q 143 -46 171 -10 l 171 -10 l 150 6 q 124 -29 99 -70 q 74 -111 58 -167 q 42 -223 42 -302 l 42 -302 q 42 -377 62 -435 q 81 -493 117 -525 q 153 -558 201 -558 z m 461 -558 l 461 -558 q 506 -558 543 -536 q 580 -515 607 -473 q 634 -431 649 -369 q 664 -308 664 -228 l 664 -228 q 664 -133 648 -81 q 631 -29 602 -8 q 572 12 534 12 l 534 12 q 494 12 468 -7 q 442 -27 430 -59 q 418 -91 418 -127 l 418 -127 q 418 -167 432 -199 q 445 -231 470 -253 l 470 -253 q 490 -271 517 -282 q 543 -293 577 -298 q 610 -303 649 -303 l 649 -303 l 779 -303 l 779 -277 l 649 -277 q 597 -277 559 -269 q 520 -261 492 -238 l 492 -238 q 470 -221 458 -193 q 445 -166 445 -130 l 445 -130 q 445 -77 467 -45 q 489 -14 533 -14 l 533 -14 q 568 -14 591 -33 q 614 -53 626 -99 q 638 -146 638 -226 l 638 -226 q 638 -242 638 -257 q 638 -272 636 -286 l 636 -286 l 636 -292 q 630 -367 607 -420 q 583 -474 546 -503 q 509 -532 460 -532 l 460 -532 q 437 -532 417 -525 q 396 -518 380 -504 l 380 -504 q 364 -489 354 -468 q 343 -447 338 -415 q 332 -384 332 -338 l 332 -338 l 332 -197 l 315 -199 l 311 -385 q 315 -453 338 -490 q 360 -528 393 -543 q 426 -558 461 -558 z"},"൳":{"ha":558,"x_min":41,"x_max":536,"o":"m 165 12 l 165 12 q 130 12 102 -8 q 73 -28 57 -77 q 41 -126 41 -214 l 41 -214 q 41 -291 60 -347 q 79 -404 120 -440 l 120 -440 q 148 -464 182 -479 q 215 -495 265 -502 q 315 -510 389 -510 l 389 -510 l 536 -510 l 536 -484 l 391 -484 q 323 -484 276 -478 q 229 -472 196 -458 q 163 -445 138 -422 l 138 -422 q 105 -392 89 -348 q 72 -305 67 -242 l 67 -242 l 67 -231 q 67 -227 67 -222 q 67 -218 67 -213 l 67 -213 q 67 -140 79 -96 q 90 -52 112 -33 q 134 -14 165 -14 l 165 -14 q 186 -14 204 -25 q 222 -37 233 -67 q 243 -97 243 -151 l 243 -151 q 243 -210 223 -243 q 203 -276 162 -276 l 162 -276 q 128 -276 103 -259 q 78 -242 55 -212 l 55 -212 l 46 -235 q 77 -272 105 -287 q 132 -302 162 -302 l 162 -302 q 192 -302 217 -286 q 241 -271 256 -237 q 270 -204 270 -151 l 270 -151 q 270 -90 256 -54 q 241 -18 218 -3 q 194 12 165 12 z"},"൴":{"ha":645,"x_min":42,"x_max":603,"o":"m 364 -792 l 390 -792 l 390 -170 q 390 -140 392 -114 q 394 -89 401 -69 q 407 -50 419 -37 l 419 -37 q 429 -26 444 -20 q 458 -14 478 -14 l 478 -14 q 510 -14 532 -34 q 554 -55 565 -98 q 576 -141 576 -208 l 576 -208 q 576 -262 565 -314 q 553 -366 530 -411 q 506 -456 469 -487 q 431 -518 380 -528 l 380 -528 l 368 -529 q 359 -531 350 -531 q 340 -532 330 -532 l 330 -532 q 262 -532 213 -507 q 163 -482 131 -439 q 99 -397 84 -342 q 68 -288 68 -229 l 68 -229 l 68 -218 q 68 -142 80 -97 q 91 -53 113 -33 q 135 -14 166 -14 l 166 -14 q 187 -14 205 -25 q 223 -37 234 -67 q 244 -97 244 -151 l 244 -151 q 244 -210 224 -243 q 204 -276 163 -276 l 163 -276 q 129 -276 104 -259 q 79 -242 56 -212 l 56 -212 l 47 -235 q 78 -272 106 -287 q 133 -302 163 -302 l 163 -302 q 193 -302 218 -286 q 242 -271 257 -237 q 271 -204 271 -151 l 271 -151 q 271 -90 257 -54 q 242 -19 219 -3 q 195 12 166 12 l 166 12 q 130 12 102 -8 q 74 -28 58 -78 q 42 -129 42 -220 l 42 -220 q 42 -288 60 -348 q 77 -409 113 -456 q 148 -504 203 -531 q 257 -558 330 -558 l 330 -558 q 341 -558 351 -557 q 360 -557 370 -555 l 370 -555 l 382 -554 q 436 -544 478 -512 q 519 -481 547 -434 q 574 -388 589 -330 q 603 -272 603 -208 l 603 -208 q 603 -133 588 -84 q 573 -36 545 -12 q 517 12 478 12 l 478 12 q 452 12 432 3 q 412 -7 398 -22 l 398 -22 q 384 -38 377 -59 q 369 -80 367 -107 q 364 -135 364 -171 l 364 -171 l 364 -792 z"},"൵":{"ha":829,"x_min":44,"x_max":825,"o":"m 245 -558 l 245 -558 q 311 -558 347 -520 q 382 -483 390 -413 l 390 -413 l 392 -370 l 399 -295 l 399 0 l 373 0 l 373 -325 q 373 -395 364 -437 q 354 -479 327 -504 l 327 -504 q 313 -518 293 -525 q 273 -532 245 -532 l 245 -532 q 193 -532 154 -495 q 114 -458 92 -392 q 70 -326 70 -237 l 70 -237 l 70 -222 q 70 -144 82 -98 q 93 -53 115 -33 q 137 -14 168 -14 l 168 -14 q 189 -14 207 -25 q 225 -37 236 -67 q 246 -97 246 -151 l 246 -151 q 246 -210 226 -243 q 206 -276 165 -276 l 165 -276 q 131 -276 106 -259 q 81 -242 58 -212 l 58 -212 l 49 -235 q 80 -272 108 -287 q 135 -302 165 -302 l 165 -302 q 195 -302 220 -286 q 244 -271 259 -237 q 273 -204 273 -151 l 273 -151 q 273 -90 259 -54 q 244 -19 221 -3 q 197 12 168 12 l 168 12 q 132 12 104 -8 q 76 -29 60 -80 q 44 -132 44 -225 l 44 -225 q 44 -333 70 -407 q 96 -481 142 -519 q 187 -558 245 -558 z m 533 -558 l 533 -558 q 592 -558 633 -531 q 674 -504 702 -462 l 702 -462 q 737 -410 753 -343 q 769 -277 769 -211 l 769 -211 q 769 -130 752 -81 q 734 -32 704 -10 q 673 12 634 12 l 634 12 q 590 12 561 -11 q 532 -34 518 -74 q 504 -115 504 -165 l 504 -165 q 504 -223 523 -272 q 542 -322 582 -368 q 621 -414 683 -461 l 683 -461 q 730 -496 755 -520 q 780 -544 789 -566 q 798 -589 798 -619 l 798 -619 q 798 -645 791 -664 q 783 -684 771 -704 l 771 -704 l 794 -716 q 806 -697 816 -672 q 825 -648 825 -619 l 825 -619 q 825 -585 814 -558 q 803 -532 775 -505 q 747 -478 696 -440 l 696 -440 q 640 -398 603 -355 q 566 -312 549 -265 q 531 -219 531 -165 l 531 -165 q 531 -95 557 -54 q 582 -14 634 -14 l 634 -14 q 666 -14 690 -32 q 714 -51 728 -94 q 742 -137 742 -211 l 742 -211 q 742 -272 729 -334 q 715 -397 683 -446 l 683 -446 q 659 -484 622 -508 q 585 -532 533 -532 l 533 -532 q 505 -532 483 -524 q 460 -517 443 -500 l 443 -500 q 430 -487 420 -466 q 410 -445 405 -414 q 399 -383 399 -338 l 399 -338 l 399 -179 l 381 -179 l 381 -280 l 378 -385 q 383 -449 404 -487 q 424 -525 457 -541 q 490 -558 533 -558 z"},"൶":{"ha":943,"x_min":34,"x_max":887,"o":"m 159 -327 l 159 -327 q 196 -327 224 -309 q 252 -292 268 -257 q 284 -222 284 -171 l 284 -171 q 284 -124 268 -82 q 251 -40 224 -10 l 224 -10 l 228 -26 l 520 -26 l 522 0 l 217 0 l 203 -19 q 228 -50 243 -89 q 257 -128 257 -170 l 257 -170 q 257 -238 230 -269 q 203 -301 159 -301 l 159 -301 q 128 -301 106 -285 q 84 -269 73 -240 q 61 -212 61 -172 l 61 -172 q 61 -119 80 -79 q 99 -39 123 -9 l 123 -9 l 103 8 q 75 -28 55 -71 q 34 -115 34 -173 l 34 -173 q 34 -220 50 -254 q 66 -289 94 -308 q 122 -327 159 -327 z m 694 -558 l 694 -558 q 740 -558 775 -542 q 809 -527 831 -501 l 831 -501 q 852 -476 865 -443 q 877 -410 882 -370 q 887 -330 887 -280 l 887 -280 l 887 0 l 497 0 l 497 -277 q 497 -329 503 -371 q 508 -413 521 -445 q 534 -478 555 -502 l 555 -502 q 578 -528 613 -543 q 648 -558 694 -558 z m 661 -527 l 661 -527 q 635 -527 614 -517 q 593 -507 576 -487 l 576 -487 q 551 -456 537 -406 q 523 -357 523 -266 l 523 -266 l 523 -26 l 531 -26 q 588 -87 636 -151 q 684 -215 713 -280 q 742 -346 742 -408 l 742 -408 q 742 -440 735 -467 q 727 -494 710 -510 q 692 -527 661 -527 z m 769 -409 l 769 -409 q 769 -342 740 -275 q 711 -208 662 -142 q 613 -77 552 -11 l 552 -11 l 556 -24 q 579 -26 612 -26 q 645 -26 673 -26 l 673 -26 l 861 -26 l 861 -269 q 861 -354 846 -412 q 830 -471 795 -502 q 759 -534 699 -535 l 699 -535 l 698 -537 q 737 -524 753 -490 q 769 -456 769 -409 z"},"൷":{"ha":1192,"x_min":34,"x_max":1172,"o":"m 159 -327 l 159 -327 q 196 -327 224 -309 q 252 -292 268 -257 q 284 -222 284 -171 l 284 -171 q 284 -124 268 -82 q 251 -40 224 -10 l 224 -10 l 228 -26 l 501 -26 l 504 0 l 217 0 l 203 -19 q 228 -50 243 -89 q 257 -128 257 -170 l 257 -170 q 257 -238 230 -269 q 203 -301 159 -301 l 159 -301 q 128 -301 106 -285 q 84 -269 73 -240 q 61 -212 61 -172 l 61 -172 q 61 -119 80 -79 q 99 -39 123 -9 l 123 -9 l 103 8 q 75 -28 55 -71 q 34 -115 34 -173 l 34 -173 q 34 -220 50 -254 q 66 -289 94 -308 q 122 -327 159 -327 z m 562 -558 l 562 -558 q 595 -558 620 -544 q 645 -530 661 -500 q 677 -470 683 -422 l 683 -422 l 693 -335 l 693 -230 l 667 -230 l 667 -335 q 667 -399 658 -439 q 649 -480 627 -504 l 627 -504 q 615 -518 599 -525 q 583 -532 561 -532 l 561 -532 q 519 -532 490 -501 q 460 -470 445 -418 q 430 -366 430 -303 l 430 -303 q 430 -205 457 -139 q 483 -74 523 -22 l 523 -22 l 511 0 l 487 0 l 494 -21 q 470 -54 449 -93 q 428 -132 416 -182 q 403 -233 403 -302 l 403 -302 q 403 -377 423 -435 q 442 -493 478 -525 q 514 -558 562 -558 z m 822 -558 l 822 -558 q 867 -558 904 -536 q 941 -515 968 -473 q 995 -431 1010 -369 q 1025 -308 1025 -228 l 1025 -228 q 1025 -133 1009 -81 q 992 -29 963 -8 q 933 12 895 12 l 895 12 q 855 12 829 -7 q 803 -27 791 -59 q 779 -91 779 -127 l 779 -127 q 779 -167 793 -199 q 806 -231 831 -253 l 831 -253 q 851 -271 878 -282 q 904 -293 938 -298 q 971 -303 1010 -303 l 1010 -303 l 1016 -303 l 1016 -277 l 1010 -277 q 958 -277 920 -269 q 881 -261 853 -238 l 853 -238 q 831 -221 819 -193 q 806 -166 806 -130 l 806 -130 q 806 -77 828 -45 q 850 -14 894 -14 l 894 -14 q 929 -14 952 -33 q 975 -53 987 -99 q 999 -146 999 -226 l 999 -226 q 999 -242 999 -257 q 999 -272 997 -286 l 997 -286 l 997 -292 q 991 -367 968 -420 q 944 -474 907 -503 q 870 -532 821 -532 l 821 -532 q 798 -532 778 -525 q 757 -518 741 -504 l 741 -504 q 725 -489 715 -468 q 704 -447 699 -415 q 693 -384 693 -338 l 693 -338 l 693 -247 l 676 -249 l 672 -385 q 676 -453 699 -490 q 721 -528 754 -543 q 787 -558 822 -558 z m 1138 -454 l 1165 -459 q 1168 -446 1170 -431 q 1172 -416 1172 -402 l 1172 -402 q 1172 -372 1165 -349 q 1157 -326 1143 -312 l 1143 -312 q 1124 -293 1097 -285 q 1069 -277 1031 -277 l 1031 -277 l 1014 -277 l 1014 -303 l 1026 -303 q 1064 -303 1088 -309 q 1111 -315 1125 -331 l 1125 -331 q 1136 -342 1141 -359 q 1145 -377 1145 -401 l 1145 -401 q 1145 -413 1144 -428 q 1142 -443 1138 -454 l 1138 -454 z"},"൸":{"ha":1577,"x_min":10,"x_max":1521,"o":"m 1032 -558 l 1032 -558 q 1063 -558 1086 -546 q 1108 -534 1123 -514 q 1137 -494 1144 -469 q 1151 -445 1151 -421 l 1151 -421 l 1141 -376 q 1147 -431 1169 -471 q 1191 -512 1231 -535 q 1270 -558 1328 -558 l 1328 -558 q 1374 -558 1409 -542 q 1443 -527 1465 -501 l 1465 -501 q 1486 -476 1499 -443 q 1511 -410 1516 -370 q 1521 -330 1521 -280 l 1521 -280 l 1521 0 l 1165 0 l 1165 -26 q 1222 -87 1270 -151 q 1318 -215 1347 -280 q 1376 -346 1376 -408 l 1376 -408 q 1376 -440 1369 -467 q 1361 -494 1344 -510 q 1326 -527 1295 -527 l 1295 -527 q 1269 -527 1248 -517 q 1227 -507 1210 -487 l 1210 -487 q 1184 -456 1171 -406 q 1158 -356 1158 -279 l 1158 -279 l 1158 -230 l 1132 -230 l 1132 -353 q 1132 -409 1126 -445 q 1120 -482 1100 -504 l 1100 -504 q 1088 -518 1071 -525 q 1053 -532 1032 -532 l 1032 -532 q 1011 -532 994 -525 q 976 -518 964 -504 l 964 -504 q 944 -482 938 -445 q 932 -409 932 -353 l 932 -353 l 932 -188 q 932 -152 930 -122 q 927 -93 919 -69 q 911 -45 895 -27 l 895 -27 q 880 -10 857 1 q 834 12 806 12 l 806 12 q 778 12 755 1 q 732 -10 717 -27 l 717 -27 q 701 -45 693 -69 q 685 -93 683 -123 q 680 -153 680 -188 l 680 -188 l 680 -353 q 680 -409 674 -445 q 668 -482 648 -504 l 648 -504 q 636 -518 619 -525 q 601 -532 580 -532 l 580 -532 q 559 -532 542 -525 q 524 -518 512 -504 l 512 -504 q 492 -482 486 -445 q 480 -409 480 -353 l 480 -353 l 480 -196 q 480 -128 472 -90 q 464 -53 439 -26 l 439 -26 q 425 -10 402 1 q 379 12 350 12 l 350 12 q 298 12 267 -21 q 236 -54 230 -133 l 230 -133 l 237 -124 q 231 -79 215 -48 q 199 -18 173 -3 q 146 12 108 12 l 108 12 q 86 12 60 7 q 33 1 10 -11 l 10 -11 l 21 -34 q 41 -24 63 -19 q 84 -14 108 -14 l 108 -14 q 135 -14 152 -21 q 169 -29 181 -42 l 181 -42 q 203 -66 213 -106 q 222 -146 222 -211 l 222 -211 l 222 -546 l 248 -546 l 248 -208 q 248 -147 256 -105 q 263 -63 284 -40 l 284 -40 q 295 -27 312 -20 q 328 -14 350 -14 l 350 -14 q 372 -14 389 -21 q 406 -28 418 -41 l 418 -41 q 439 -64 447 -102 q 454 -140 454 -205 l 454 -205 l 454 -358 q 454 -394 457 -424 q 459 -454 467 -477 q 475 -501 491 -519 l 491 -519 q 506 -536 529 -547 q 552 -558 580 -558 l 580 -558 q 608 -558 631 -547 q 654 -536 669 -519 l 669 -519 q 685 -501 693 -477 q 701 -453 704 -423 q 706 -394 706 -358 l 706 -358 l 706 -193 q 706 -138 712 -101 q 718 -64 738 -42 l 738 -42 q 750 -29 768 -21 q 785 -14 806 -14 l 806 -14 q 827 -14 845 -21 q 862 -29 874 -42 l 874 -42 q 894 -64 900 -101 q 906 -138 906 -193 l 906 -193 l 906 -358 q 906 -394 909 -424 q 911 -454 919 -477 q 927 -501 943 -519 l 943 -519 q 958 -536 981 -547 q 1004 -558 1032 -558 z m 1403 -409 l 1403 -409 q 1403 -342 1374 -275 q 1345 -208 1296 -142 q 1247 -77 1186 -11 l 1186 -11 l 1190 -24 q 1212 -26 1246 -26 q 1279 -26 1307 -26 l 1307 -26 l 1495 -26 l 1495 -269 q 1495 -354 1480 -412 q 1464 -471 1429 -502 q 1393 -534 1333 -535 l 1333 -535 l 1332 -537 q 1371 -524 1387 -490 q 1403 -456 1403 -409 z"},"൹":{"ha":801,"x_min":42,"x_max":779,"o":"m 201 -558 l 201 -558 q 234 -558 259 -544 q 284 -530 300 -500 q 316 -470 322 -422 l 322 -422 l 332 -289 l 332 0 l 306 0 l 306 -335 q 306 -399 297 -439 q 288 -480 266 -504 l 266 -504 q 254 -518 238 -525 q 222 -532 200 -532 l 200 -532 q 158 -532 129 -501 q 99 -470 84 -418 q 69 -366 69 -303 l 69 -303 q 69 -234 83 -181 q 96 -129 120 -87 q 143 -46 171 -10 l 171 -10 l 150 6 q 124 -29 99 -70 q 74 -111 58 -167 q 42 -223 42 -302 l 42 -302 q 42 -377 62 -435 q 81 -493 117 -525 q 153 -558 201 -558 z m 461 -558 l 461 -558 q 506 -558 543 -536 q 580 -515 607 -473 q 634 -431 649 -369 q 664 -308 664 -228 l 664 -228 q 664 -133 648 -81 q 631 -29 602 -8 q 572 12 534 12 l 534 12 q 494 12 468 -7 q 442 -27 430 -59 q 418 -91 418 -127 l 418 -127 q 418 -167 432 -199 q 445 -231 470 -253 l 470 -253 q 490 -271 517 -282 q 543 -293 577 -298 q 610 -303 649 -303 l 649 -303 l 779 -303 l 779 -277 l 649 -277 q 597 -277 559 -269 q 520 -261 492 -238 l 492 -238 q 470 -221 458 -193 q 445 -166 445 -130 l 445 -130 q 445 -77 467 -45 q 489 -14 533 -14 l 533 -14 q 568 -14 591 -33 q 614 -53 626 -99 q 638 -146 638 -226 l 638 -226 q 638 -242 638 -257 q 638 -272 636 -286 l 636 -286 l 636 -292 q 630 -367 607 -420 q 583 -474 546 -503 q 509 -532 460 -532 l 460 -532 q 437 -532 417 -525 q 396 -518 380 -504 l 380 -504 q 364 -489 354 -468 q 343 -447 338 -415 q 332 -384 332 -338 l 332 -338 l 332 -197 l 315 -199 l 311 -385 q 315 -453 338 -490 q 360 -528 393 -543 q 426 -558 461 -558 z"},"ൺ":{"ha":1047,"x_min":44,"x_max":1005,"o":"m 245 -558 l 245 -558 q 311 -558 346 -521 q 381 -484 390 -410 l 390 -410 l 381 -413 q 389 -490 423 -524 q 456 -558 508 -558 l 508 -558 q 561 -558 595 -525 q 628 -492 635 -413 l 635 -413 l 638 -390 l 643 -335 l 643 0 l 617 0 l 617 -334 q 617 -403 608 -444 q 599 -485 575 -508 l 575 -508 q 563 -519 547 -525 q 530 -532 508 -532 l 508 -532 q 486 -532 470 -525 q 453 -519 441 -508 l 441 -508 q 417 -485 408 -444 q 399 -403 399 -334 l 399 -334 l 399 0 l 373 0 l 373 -325 q 373 -395 364 -437 q 354 -479 327 -504 l 327 -504 q 313 -518 293 -525 q 273 -532 245 -532 l 245 -532 q 193 -532 154 -495 q 114 -458 92 -392 q 70 -326 70 -237 l 70 -237 l 70 -222 q 70 -144 82 -98 q 93 -53 115 -33 q 137 -14 168 -14 l 168 -14 q 189 -14 207 -25 q 225 -37 236 -67 q 246 -97 246 -151 l 246 -151 q 246 -210 226 -243 q 206 -276 165 -276 l 165 -276 q 131 -276 106 -259 q 81 -242 58 -212 l 58 -212 l 49 -235 q 80 -272 108 -287 q 135 -302 165 -302 l 165 -302 q 195 -302 220 -286 q 244 -271 259 -237 q 273 -204 273 -151 l 273 -151 q 273 -90 259 -54 q 244 -19 221 -3 q 197 12 168 12 l 168 12 q 132 12 104 -8 q 76 -29 60 -80 q 44 -132 44 -225 l 44 -225 q 44 -333 70 -407 q 96 -481 142 -519 q 187 -558 245 -558 z m 882 12 l 882 12 q 846 12 818 -7 q 789 -27 772 -73 q 755 -119 755 -198 l 755 -198 q 755 -267 771 -323 q 786 -379 811 -426 q 836 -474 864 -516 l 864 -516 l 870 -523 q 896 -564 914 -602 q 932 -640 932 -681 l 932 -681 q 932 -716 915 -741 q 897 -766 853 -766 l 853 -766 q 836 -766 821 -762 q 805 -759 789 -754 l 789 -754 l 782 -779 q 801 -785 819 -788 q 836 -792 853 -792 l 853 -792 q 893 -792 916 -775 q 939 -758 949 -732 q 959 -706 959 -680 l 959 -680 q 959 -634 940 -593 q 920 -553 891 -509 l 891 -509 l 887 -503 q 861 -464 837 -418 q 813 -373 798 -319 q 782 -265 782 -200 l 782 -200 q 782 -125 796 -84 q 810 -44 833 -29 q 855 -14 882 -14 l 882 -14 q 926 -14 952 -57 q 978 -100 978 -205 l 978 -205 q 978 -264 967 -322 q 955 -381 931 -429 q 907 -477 869 -505 l 869 -505 q 850 -519 828 -525 q 806 -532 777 -532 l 777 -532 q 747 -532 727 -525 q 707 -518 692 -505 l 692 -505 q 672 -488 662 -463 q 651 -438 647 -406 q 643 -375 643 -338 l 643 -338 l 643 -68 l 624 -68 l 626 -239 l 623 -388 q 626 -448 647 -485 q 667 -523 701 -540 q 735 -558 777 -558 l 777 -558 q 809 -558 834 -550 q 859 -542 880 -527 l 880 -527 q 882 -526 885 -524 q 887 -523 889 -521 l 889 -521 q 930 -489 956 -438 q 981 -388 993 -327 q 1005 -267 1005 -205 l 1005 -205 q 1005 -87 970 -37 q 935 12 882 12 z"},"ൻ":{"ha":736,"x_min":42,"x_max":694,"o":"m 201 -558 l 201 -558 q 234 -558 259 -544 q 284 -530 300 -500 q 316 -470 322 -422 l 322 -422 l 332 -318 l 332 0 l 306 0 l 306 -335 q 306 -399 297 -439 q 288 -480 266 -504 l 266 -504 q 254 -518 238 -525 q 222 -532 200 -532 l 200 -532 q 158 -532 129 -501 q 99 -470 84 -418 q 69 -366 69 -303 l 69 -303 q 69 -234 83 -181 q 96 -129 120 -87 q 143 -46 171 -10 l 171 -10 l 150 6 q 124 -29 99 -70 q 74 -111 58 -167 q 42 -223 42 -302 l 42 -302 q 42 -377 62 -435 q 81 -493 117 -525 q 153 -558 201 -558 z m 571 12 l 571 12 q 535 12 506 -7 q 477 -27 461 -73 q 444 -119 444 -198 l 444 -198 q 444 -267 460 -323 q 475 -379 500 -426 q 525 -474 553 -516 l 553 -516 l 559 -523 q 585 -564 603 -602 q 621 -640 621 -681 l 621 -681 q 621 -716 604 -741 q 586 -766 542 -766 l 542 -766 q 525 -766 510 -762 q 494 -759 478 -754 l 478 -754 l 471 -779 q 490 -785 508 -788 q 525 -792 542 -792 l 542 -792 q 582 -792 605 -775 q 628 -758 638 -732 q 648 -706 648 -680 l 648 -680 q 648 -634 629 -593 q 609 -553 580 -509 l 580 -509 l 576 -503 q 550 -464 526 -418 q 502 -373 487 -319 q 471 -265 471 -200 l 471 -200 q 471 -125 485 -84 q 498 -44 521 -29 q 544 -14 571 -14 l 571 -14 q 615 -14 641 -57 q 667 -100 667 -205 l 667 -205 q 667 -264 656 -322 q 644 -381 620 -429 q 596 -477 558 -505 l 558 -505 q 539 -519 517 -525 q 495 -532 466 -532 l 466 -532 q 436 -532 416 -525 q 396 -518 381 -505 l 381 -505 q 361 -488 351 -463 q 340 -438 336 -406 q 332 -375 332 -338 l 332 -338 l 332 -68 l 313 -68 l 315 -239 l 312 -388 q 315 -448 336 -485 q 356 -523 390 -540 q 424 -558 466 -558 l 466 -558 q 498 -558 523 -550 q 548 -542 569 -527 l 569 -527 q 571 -526 574 -524 q 576 -523 578 -521 l 578 -521 q 619 -489 645 -438 q 670 -388 682 -327 q 694 -267 694 -205 l 694 -205 q 694 -87 659 -37 q 624 12 571 12 z"},"ർ":{"ha":516,"x_min":42,"x_max":474,"o":"m 351 12 l 351 12 q 315 12 287 -7 q 258 -27 241 -73 q 224 -119 224 -198 l 224 -198 q 224 -267 240 -323 q 255 -379 280 -426 q 305 -474 333 -516 l 333 -516 l 339 -523 q 365 -564 383 -602 q 401 -640 401 -681 l 401 -681 q 401 -716 384 -741 q 366 -766 322 -766 l 322 -766 q 305 -766 290 -762 q 274 -759 258 -754 l 258 -754 l 251 -779 q 270 -785 288 -788 q 305 -792 322 -792 l 322 -792 q 362 -792 385 -775 q 408 -758 418 -732 q 428 -706 428 -680 l 428 -680 q 428 -634 409 -593 q 389 -553 360 -509 l 360 -509 l 356 -503 q 330 -464 306 -418 q 282 -373 267 -319 q 251 -265 251 -200 l 251 -200 q 251 -125 265 -84 q 279 -44 302 -29 q 324 -14 351 -14 l 351 -14 q 395 -14 421 -57 q 447 -100 447 -205 l 447 -205 q 447 -249 441 -293 q 434 -338 421 -378 q 407 -419 387 -451 q 366 -484 338 -505 l 338 -505 q 319 -519 298 -525 q 276 -532 250 -532 l 250 -532 q 188 -532 148 -499 q 108 -466 89 -411 q 69 -357 69 -291 l 69 -291 q 69 -222 84 -170 q 98 -119 123 -81 q 147 -43 175 -12 l 175 -12 l 156 6 q 131 -22 105 -60 q 78 -99 60 -155 q 42 -212 42 -291 l 42 -291 q 42 -348 56 -396 q 69 -445 96 -481 q 122 -517 161 -537 q 200 -558 251 -558 l 251 -558 q 280 -558 304 -550 q 328 -542 349 -527 l 349 -527 q 351 -526 354 -524 q 356 -523 358 -521 l 358 -521 q 399 -489 425 -438 q 450 -388 462 -327 q 474 -267 474 -205 l 474 -205 q 474 -87 439 -37 q 404 12 351 12 z"},"ൽ":{"ha":821,"x_min":42,"x_max":779,"o":"m 508 -558 l 508 -558 q 536 -558 561 -553 q 585 -549 607 -540 q 629 -531 648 -518 l 648 -518 l 656 -513 q 720 -467 750 -387 q 779 -307 779 -205 l 779 -205 q 779 -87 744 -37 q 709 12 656 12 l 656 12 q 620 12 592 -7 q 563 -27 546 -73 q 529 -119 529 -198 l 529 -198 q 529 -264 544 -318 q 558 -373 582 -419 q 605 -466 632 -507 l 632 -507 l 638 -513 q 666 -555 686 -597 q 706 -640 706 -681 l 706 -681 q 706 -716 689 -741 q 671 -766 627 -766 l 627 -766 q 610 -766 595 -762 q 579 -759 563 -754 l 563 -754 l 556 -779 q 575 -785 593 -788 q 610 -792 627 -792 l 627 -792 q 667 -792 690 -775 q 713 -758 723 -732 q 733 -706 733 -680 l 733 -680 q 733 -634 713 -592 q 693 -551 661 -503 l 661 -503 l 655 -494 q 632 -459 609 -415 q 586 -372 571 -318 q 556 -265 556 -200 l 556 -200 q 556 -125 570 -84 q 584 -44 607 -29 q 629 -14 656 -14 l 656 -14 q 700 -14 726 -57 q 752 -100 752 -205 l 752 -205 q 752 -270 740 -325 q 728 -380 705 -422 q 681 -465 644 -491 l 644 -491 l 633 -498 q 608 -515 576 -523 q 544 -532 507 -532 l 507 -532 q 467 -532 433 -522 q 399 -512 371 -493 l 371 -493 l 362 -486 q 310 -445 283 -371 q 255 -298 255 -203 l 255 -203 q 255 -130 267 -88 q 279 -47 301 -30 q 323 -14 352 -14 l 352 -14 q 382 -14 404 -30 q 426 -47 438 -88 q 450 -130 450 -203 l 450 -203 q 450 -248 440 -302 q 430 -356 408 -406 q 385 -456 348 -489 l 348 -489 l 342 -495 q 321 -515 297 -523 q 272 -532 243 -532 l 243 -532 q 184 -532 145 -499 q 106 -466 88 -411 q 69 -356 69 -291 l 69 -291 q 69 -222 84 -170 q 98 -119 123 -81 q 147 -43 175 -12 l 175 -12 l 156 6 q 131 -22 105 -60 q 78 -99 60 -155 q 42 -212 42 -291 l 42 -291 q 42 -348 55 -396 q 68 -445 94 -481 q 120 -517 158 -537 q 195 -558 244 -558 l 244 -558 q 279 -558 308 -546 q 336 -534 361 -511 l 361 -511 l 370 -503 q 424 -451 451 -370 q 477 -289 477 -203 l 477 -203 q 477 -121 461 -74 q 445 -27 417 -7 q 388 12 352 12 l 352 12 q 317 12 289 -7 q 260 -27 244 -74 q 228 -121 228 -203 l 228 -203 q 228 -268 241 -324 q 254 -380 280 -425 q 305 -471 343 -502 l 343 -502 l 351 -508 q 383 -532 423 -545 q 462 -558 508 -558 z"},"ൾ":{"ha":719,"x_min":42,"x_max":677,"o":"m 525 -792 l 525 -792 q 565 -792 588 -775 q 611 -758 621 -732 q 631 -706 631 -680 l 631 -680 q 631 -634 612 -593 q 592 -553 563 -509 l 563 -509 l 559 -503 q 533 -464 509 -418 q 485 -373 470 -319 q 454 -265 454 -200 l 454 -200 q 454 -125 468 -84 q 481 -44 504 -29 q 527 -14 554 -14 l 554 -14 q 598 -14 624 -57 q 650 -100 650 -205 l 650 -205 q 650 -249 644 -293 q 637 -338 624 -378 q 610 -419 590 -451 q 569 -484 541 -505 l 541 -505 q 522 -519 502 -525 q 481 -532 458 -532 l 458 -532 q 431 -532 410 -524 q 389 -517 374 -503 l 374 -503 q 349 -480 337 -443 q 324 -407 324 -335 l 324 -335 l 324 -202 q 324 -164 321 -131 q 318 -98 309 -71 q 300 -45 282 -25 l 282 -25 q 268 -9 247 2 q 226 12 197 12 l 197 12 q 148 12 113 -19 q 78 -51 60 -108 q 42 -166 42 -244 l 42 -244 q 42 -323 58 -379 q 74 -435 99 -476 q 124 -518 150 -553 l 150 -553 l 171 -536 q 143 -500 120 -458 q 96 -417 83 -364 q 69 -312 69 -243 l 69 -243 q 69 -178 83 -126 q 96 -74 124 -44 q 152 -14 196 -14 l 196 -14 q 218 -14 234 -21 q 249 -28 261 -41 l 261 -41 q 282 -64 290 -103 q 298 -143 298 -210 l 298 -210 l 298 -340 q 298 -411 312 -453 q 326 -495 357 -522 l 357 -522 q 377 -539 403 -548 q 428 -558 459 -558 l 459 -558 q 484 -558 508 -550 q 531 -542 552 -527 l 552 -527 l 561 -521 q 602 -489 628 -438 q 653 -388 665 -327 q 677 -267 677 -205 l 677 -205 q 677 -87 642 -37 q 607 12 554 12 l 554 12 q 518 12 489 -7 q 460 -27 444 -73 q 427 -119 427 -198 l 427 -198 q 427 -267 443 -323 q 458 -379 483 -426 q 508 -474 536 -516 l 536 -516 l 542 -523 q 568 -564 586 -602 q 604 -640 604 -681 l 604 -681 q 604 -716 587 -741 q 569 -766 525 -766 l 525 -766 q 508 -766 493 -762 q 477 -759 461 -754 l 461 -754 l 454 -779 q 473 -785 491 -788 q 508 -792 525 -792 z"},"ൿ":{"ha":819,"x_min":34,"x_max":785,"o":"m 368 -558 l 368 -558 q 419 -558 452 -527 q 484 -496 500 -433 q 515 -371 515 -276 l 515 -276 q 515 -166 497 -103 q 478 -40 445 -14 q 411 12 367 12 l 367 12 q 334 12 310 -1 q 285 -14 268 -38 l 268 -38 q 242 -76 231 -137 q 220 -198 220 -274 l 220 -274 q 220 -420 257 -489 q 294 -558 368 -558 z m 368 -532 l 368 -532 q 308 -532 277 -473 q 246 -414 246 -274 l 246 -274 q 246 -174 261 -117 q 275 -60 303 -37 q 330 -14 367 -14 l 367 -14 q 406 -14 433 -38 q 460 -62 475 -119 q 489 -177 489 -276 l 489 -276 q 489 -371 475 -427 q 461 -483 434 -507 q 407 -532 368 -532 z m 164 12 l 164 12 q 109 12 72 -25 q 34 -63 34 -141 l 34 -141 q 34 -174 44 -199 q 54 -225 71 -243 l 71 -243 q 92 -265 120 -278 q 148 -291 183 -296 q 218 -302 260 -302 l 260 -302 l 588 -302 q 641 -302 677 -290 q 712 -279 736 -257 l 736 -257 q 759 -235 772 -202 q 785 -170 785 -131 l 785 -131 q 785 -61 757 -24 q 729 12 676 12 l 676 12 q 629 12 598 -27 q 567 -66 567 -141 l 567 -141 q 567 -174 575 -209 q 582 -244 596 -287 l 596 -287 q 597 -289 598 -291 q 599 -294 600 -296 l 600 -296 q 610 -327 623 -362 q 635 -397 651 -440 l 651 -440 q 674 -500 687 -542 q 700 -584 706 -615 q 711 -647 711 -676 l 711 -676 q 711 -714 694 -740 q 676 -766 632 -766 l 632 -766 q 615 -766 600 -762 q 584 -759 568 -754 l 568 -754 l 561 -779 q 580 -785 598 -788 q 615 -792 632 -792 l 632 -792 q 671 -792 694 -775 q 717 -758 728 -731 q 738 -705 738 -677 l 738 -677 q 738 -655 735 -631 q 732 -607 725 -578 q 717 -549 706 -513 q 694 -478 676 -431 l 676 -431 q 661 -391 648 -356 q 634 -322 626 -295 l 626 -295 q 625 -292 624 -289 q 623 -286 622 -284 l 622 -284 q 607 -241 601 -208 q 594 -175 594 -141 l 594 -141 q 594 -97 605 -69 q 615 -41 635 -27 q 654 -14 680 -14 l 680 -14 q 719 -14 739 -43 q 758 -72 758 -131 l 758 -131 q 758 -166 747 -194 q 736 -222 716 -240 l 716 -240 q 697 -257 666 -266 q 635 -276 585 -276 l 585 -276 l 262 -276 q 199 -276 158 -265 q 116 -254 90 -225 l 90 -225 q 77 -210 69 -189 q 61 -168 61 -140 l 61 -140 q 61 -91 76 -63 q 91 -36 115 -25 q 139 -14 165 -14 l 165 -14 q 193 -14 220 -23 q 246 -32 278 -61 l 278 -61 l 294 -40 q 271 -21 251 -9 q 231 2 211 7 q 190 12 164 12 z"},"!":{"ha":192,"x_min":70,"x_max":122,"o":"m 108 -174 l 84 -174 l 82 -714 l 110 -714 l 108 -174 z m 95 8 l 95 8 q 80 8 75 -1 q 70 -10 70 -23 l 70 -23 q 70 -35 75 -44 q 80 -54 95 -54 l 95 -54 q 113 -54 118 -44 q 122 -35 122 -23 l 122 -23 q 122 -10 118 -1 q 113 8 95 8 z"},"\"":{"ha":313,"x_min":75,"x_max":238,"o":"m 99 -542 l 78 -542 l 75 -800 l 103 -800 l 99 -542 z m 234 -542 l 213 -542 l 210 -800 l 238 -800 l 234 -542 z"},"#":{"ha":501,"x_min":27,"x_max":474,"o":"m 111 0 l 84 0 l 127 -226 l 27 -226 l 27 -252 l 132 -252 l 171 -462 l 71 -462 l 71 -488 l 176 -488 l 219 -714 l 246 -714 l 203 -488 l 347 -488 l 390 -714 l 417 -714 l 374 -488 l 474 -488 l 474 -462 l 369 -462 l 330 -252 l 430 -252 l 430 -226 l 325 -226 l 282 0 l 255 0 l 298 -226 l 154 -226 l 111 0 z m 198 -462 l 159 -252 l 303 -252 l 342 -462 l 198 -462 z"},"%":{"ha":590,"x_min":51,"x_max":539,"o":"m 193 0 l 166 0 l 397 -714 l 424 -714 l 193 0 z m 150 -276 l 150 -276 q 102 -276 77 -331 q 51 -387 51 -502 l 51 -502 q 51 -616 76 -670 q 100 -724 149 -724 l 149 -724 q 199 -724 224 -670 q 248 -616 248 -501 l 248 -501 q 248 -386 223 -331 q 197 -276 150 -276 z m 150 -304 l 150 -304 q 185 -304 203 -351 q 221 -399 221 -501 l 221 -501 q 221 -603 203 -651 q 185 -699 149 -699 l 149 -699 q 114 -699 96 -651 q 78 -603 78 -501 l 78 -501 q 78 -399 97 -351 q 115 -304 150 -304 z m 441 9 l 441 9 q 393 9 368 -46 q 342 -102 342 -217 l 342 -217 q 342 -331 367 -385 q 391 -439 440 -439 l 440 -439 q 490 -439 515 -385 q 539 -331 539 -216 l 539 -216 q 539 -101 514 -46 q 488 9 441 9 z m 441 -19 l 441 -19 q 476 -19 494 -66 q 512 -114 512 -216 l 512 -216 q 512 -318 494 -366 q 476 -414 440 -414 l 440 -414 q 405 -414 387 -366 q 369 -318 369 -216 l 369 -216 q 369 -114 388 -66 q 406 -19 441 -19 z"},"'":{"ha":178,"x_min":75,"x_max":103,"o":"m 99 -542 l 78 -542 l 75 -800 l 103 -800 l 99 -542 z"},"(":{"ha":274,"x_min":60,"x_max":245,"o":"m 60 -276 l 60 -276 q 60 -382 78 -476 q 96 -570 130 -651 q 164 -733 212 -800 l 212 -800 l 245 -800 q 192 -728 157 -644 q 121 -561 104 -468 q 87 -376 87 -277 l 87 -277 q 87 -178 104 -86 q 121 6 157 89 q 192 172 245 244 l 245 244 l 212 244 q 164 177 130 97 q 96 16 78 -77 q 60 -171 60 -276 z"},")":{"ha":274,"x_min":29,"x_max":214,"o":"m 214 -280 l 214 -280 q 214 -175 196 -80 q 178 14 144 95 q 110 176 62 244 l 62 244 l 29 244 q 83 172 118 89 q 153 5 170 -87 q 187 -180 187 -279 l 187 -279 q 187 -379 170 -470 q 153 -562 118 -645 q 83 -728 29 -800 l 29 -800 l 62 -800 q 110 -733 144 -652 q 178 -572 196 -479 q 214 -386 214 -280 z"},"*":{"ha":494,"x_min":45,"x_max":449,"o":"m 233 -800 l 261 -800 l 258 -607 l 441 -670 l 449 -643 l 264 -588 l 379 -436 l 356 -419 l 247 -577 l 139 -420 l 116 -436 l 230 -588 l 45 -643 l 54 -670 l 236 -607 l 233 -800 z"},"+":{"ha":399,"x_min":32,"x_max":366,"o":"m 213 -128 l 187 -128 l 187 -340 l 32 -340 l 32 -366 l 187 -366 l 187 -578 l 213 -578 l 213 -366 l 366 -366 l 366 -340 l 213 -340 l 213 -128 z"},",":{"ha":206,"x_min":38,"x_max":126,"o":"m 95 -116 l 120 -116 l 126 -107 q 121 -66 111 -25 q 101 16 88 55 q 75 94 60 129 l 60 129 l 38 129 q 52 94 64 51 q 75 8 84 -36 q 92 -80 95 -116 l 95 -116 z"},"-":{"ha":304,"x_min":38,"x_max":266,"o":"m 266 -256 l 38 -256 l 38 -282 l 266 -282 l 266 -256 z"},".":{"ha":206,"x_min":77,"x_max":129,"o":"m 102 8 l 102 8 q 87 8 82 -1 q 77 -10 77 -23 l 77 -23 q 77 -35 82 -44 q 87 -54 102 -54 l 102 -54 q 120 -54 125 -44 q 129 -35 129 -23 l 129 -23 q 129 -10 125 -1 q 120 8 102 8 z"},"/":{"ha":340,"x_min":25,"x_max":315,"o":"m 52 244 l 25 244 l 288 -800 l 315 -800 l 52 244 z"},":":{"ha":206,"x_min":77,"x_max":129,"o":"m 102 8 l 102 8 q 87 8 82 -1 q 77 -10 77 -23 l 77 -23 q 77 -35 82 -44 q 87 -54 102 -54 l 102 -54 q 120 -54 125 -44 q 129 -35 129 -23 l 129 -23 q 129 -10 125 -1 q 120 8 102 8 z m 102 -480 l 102 -480 q 87 -480 82 -489 q 77 -498 77 -511 l 77 -511 q 77 -523 82 -532 q 87 -542 102 -542 l 102 -542 q 120 -542 125 -532 q 129 -523 129 -511 l 129 -511 q 129 -498 125 -489 q 120 -480 102 -480 z"},";":{"ha":206,"x_min":38,"x_max":129,"o":"m 95 -116 l 120 -116 l 126 -107 q 121 -66 111 -25 q 101 16 88 55 q 75 94 60 129 l 60 129 l 38 129 q 53 94 65 51 q 76 7 84 -36 q 92 -80 95 -116 l 95 -116 z m 102 -480 l 102 -480 q 87 -480 82 -489 q 77 -498 77 -511 l 77 -511 q 77 -523 82 -532 q 87 -542 102 -542 l 102 -542 q 120 -542 125 -532 q 129 -523 129 -511 l 129 -511 q 129 -498 125 -489 q 120 -480 102 -480 z"},"<":{"ha":399,"x_min":32,"x_max":367,"o":"m 367 -180 l 367 -151 l 32 -354 l 32 -378 l 367 -555 l 367 -526 l 60 -366 l 367 -180 z"},"=":{"ha":399,"x_min":33,"x_max":365,"o":"m 365 -235 l 33 -235 l 33 -261 l 365 -261 l 365 -235 z m 365 -444 l 33 -444 l 33 -470 l 365 -470 l 365 -444 z"},">":{"ha":399,"x_min":32,"x_max":367,"o":"m 367 -354 l 32 -151 l 32 -180 l 339 -365 l 32 -526 l 32 -555 l 367 -377 l 367 -354 z"},"?":{"ha":299,"x_min":32,"x_max":260,"o":"m 135 -724 l 135 -724 q 191 -724 226 -684 q 260 -645 260 -566 l 260 -566 q 260 -522 250 -489 q 240 -456 224 -427 q 207 -398 185 -367 l 185 -367 q 161 -333 149 -304 q 137 -276 134 -248 q 130 -221 130 -189 l 130 -189 l 130 -170 l 104 -170 l 104 -190 q 104 -232 109 -262 q 113 -292 126 -319 q 138 -347 161 -380 l 161 -380 q 181 -409 198 -436 q 214 -463 224 -494 q 233 -525 233 -566 l 233 -566 q 233 -631 207 -664 q 181 -698 134 -698 l 134 -698 q 110 -698 87 -691 q 63 -684 43 -673 l 43 -673 l 32 -697 q 52 -707 78 -715 q 104 -724 135 -724 z m 117 8 l 117 8 q 102 8 97 -1 q 92 -10 92 -23 l 92 -23 q 92 -35 97 -44 q 102 -54 117 -54 l 117 -54 q 135 -54 140 -44 q 144 -35 144 -23 l 144 -23 q 144 -10 140 -1 q 135 8 117 8 z"},"[":{"ha":308,"x_min":83,"x_max":268,"o":"m 268 244 l 83 244 l 83 -799 l 268 -799 l 268 -773 l 109 -773 l 109 218 l 268 218 l 268 244 z"},"\\":{"ha":340,"x_min":25,"x_max":315,"o":"m 315 245 l 288 245 l 25 -800 l 52 -800 l 315 245 z"},"]":{"ha":308,"x_min":40,"x_max":225,"o":"m 225 244 l 40 244 l 40 218 l 199 218 l 199 -774 l 40 -774 l 40 -800 l 225 -800 l 225 244 z"},"^":{"ha":399,"x_min":19,"x_max":379,"o":"m 48 -372 l 19 -372 l 188 -719 l 212 -719 l 379 -372 l 350 -372 l 200 -688 l 48 -372 z"},"_":{"ha":357,"x_min":-2,"x_max":359,"o":"m 359 115 l -2 115 l -2 90 l 359 90 l 359 115 z"},"{":{"ha":344,"x_min":30,"x_max":305,"o":"m 305 218 l 305 244 q 247 244 211 231 q 174 218 158 189 q 141 160 141 111 l 141 111 l 141 -151 q 141 -215 116 -240 q 91 -265 30 -265 l 30 -265 l 30 -291 q 91 -291 116 -317 q 141 -344 141 -408 l 141 -408 l 141 -664 q 141 -708 160 -738 q 178 -768 215 -784 q 251 -800 305 -800 l 305 -800 l 305 -774 q 233 -774 200 -746 q 167 -719 167 -658 l 167 -658 l 167 -404 q 167 -353 150 -320 q 133 -287 89 -279 l 89 -279 l 89 -277 q 132 -267 150 -239 q 167 -211 167 -155 l 167 -155 l 167 105 q 167 148 180 173 q 192 198 222 208 q 252 218 305 218 l 305 218 z"},"|":{"ha":512,"x_min":243,"x_max":269,"o":"m 269 244 l 243 244 l 243 -800 l 269 -800 l 269 244 z"},"}":{"ha":344,"x_min":39,"x_max":314,"o":"m 39 -774 l 39 -800 q 98 -800 134 -787 q 170 -774 187 -745 q 203 -716 203 -667 l 203 -667 l 203 -404 q 203 -340 228 -315 q 253 -290 314 -290 l 314 -290 l 314 -264 q 253 -264 228 -238 q 203 -212 203 -147 l 203 -147 l 203 108 q 203 151 185 182 q 166 212 130 228 q 93 244 39 244 l 39 244 l 39 218 q 111 218 144 191 q 177 163 177 102 l 177 102 l 177 -151 q 177 -202 195 -235 q 212 -268 255 -276 l 255 -276 l 255 -278 q 212 -288 195 -316 q 177 -344 177 -400 l 177 -400 l 177 -661 q 177 -705 165 -729 q 152 -754 122 -764 q 92 -774 39 -774 l 39 -774 z"},"~":{"ha":399,"x_min":30,"x_max":369,"o":"m 197 -342 l 197 -342 q 175 -356 160 -362 q 144 -369 124 -369 l 124 -369 q 98 -369 77 -356 q 55 -343 30 -317 l 30 -317 l 30 -350 q 49 -368 72 -381 q 94 -395 124 -395 l 124 -395 q 147 -395 167 -387 q 187 -379 206 -367 l 206 -367 q 232 -351 247 -344 q 262 -338 286 -338 l 286 -338 q 309 -338 328 -350 q 347 -362 369 -387 l 369 -387 l 369 -354 q 354 -337 333 -324 q 311 -312 285 -312 l 285 -312 q 261 -312 242 -319 q 222 -327 197 -342 z"}," ":{"ha":221,"x_min":0,"x_max":0,"o":""},"­":{"ha":304,"x_min":38,"x_max":266,"o":"m 266 -256 l 38 -256 l 38 -282 l 266 -282 l 266 -256 z"},"–":{"ha":500,"x_min":40,"x_max":460,"o":"m 460 -257 l 40 -257 l 40 -283 l 460 -283 l 460 -257 z"},"—":{"ha":1000,"x_min":40,"x_max":960,"o":"m 960 -257 l 40 -257 l 40 -283 l 960 -283 l 960 -257 z"},"‘":{"ha":180,"x_min":46,"x_max":134,"o":"m 77 -555 l 52 -555 l 46 -564 q 52 -605 62 -646 q 71 -687 84 -726 q 97 -766 112 -800 l 112 -800 l 134 -800 q 120 -765 108 -721 q 96 -678 89 -634 q 81 -591 77 -555 l 77 -555 z"},"’":{"ha":180,"x_min":46,"x_max":134,"o":"m 103 -800 l 128 -800 l 134 -791 q 129 -750 119 -709 q 109 -668 96 -629 q 83 -590 68 -555 l 68 -555 l 46 -555 q 57 -581 66 -612 q 75 -644 83 -677 q 90 -710 95 -741 q 100 -773 103 -800 l 103 -800 z"},"“":{"ha":313,"x_min":46,"x_max":267,"o":"m 210 -555 l 185 -555 l 179 -564 q 185 -605 195 -646 q 204 -687 217 -726 q 230 -766 245 -800 l 245 -800 l 267 -800 q 252 -765 241 -721 q 229 -678 222 -634 q 214 -591 210 -555 l 210 -555 z m 77 -555 l 52 -555 l 46 -564 q 52 -605 62 -646 q 71 -687 84 -726 q 97 -766 112 -800 l 112 -800 l 134 -800 q 120 -765 108 -721 q 96 -678 89 -634 q 81 -591 77 -555 l 77 -555 z"},"”":{"ha":313,"x_min":46,"x_max":267,"o":"m 236 -800 l 261 -800 l 267 -791 q 262 -750 252 -709 q 242 -668 229 -629 q 216 -590 201 -555 l 201 -555 l 179 -555 q 194 -590 206 -633 q 217 -677 225 -720 q 233 -764 236 -800 l 236 -800 z m 103 -800 l 128 -800 l 134 -791 q 129 -750 119 -709 q 109 -668 96 -629 q 83 -590 68 -555 l 68 -555 l 46 -555 q 57 -581 66 -612 q 75 -644 83 -677 q 90 -710 95 -741 q 100 -773 103 -800 l 103 -800 z"},"…":{"ha":607,"x_min":77,"x_max":530,"o":"m 102 8 l 102 8 q 87 8 82 -1 q 77 -10 77 -23 l 77 -23 q 77 -35 82 -44 q 87 -54 102 -54 l 102 -54 q 120 -54 125 -44 q 129 -35 129 -23 l 129 -23 q 129 -10 125 -1 q 120 8 102 8 z m 302 8 l 302 8 q 287 8 282 -1 q 277 -10 277 -23 l 277 -23 q 277 -35 282 -44 q 287 -54 302 -54 l 302 -54 q 320 -54 325 -44 q 329 -35 329 -23 l 329 -23 q 329 -10 325 -1 q 320 8 302 8 z m 503 8 l 503 8 q 488 8 483 -1 q 478 -10 478 -23 l 478 -23 q 478 -35 483 -44 q 488 -54 503 -54 l 503 -54 q 521 -54 526 -44 q 530 -35 530 -23 l 530 -23 q 530 -10 526 -1 q 521 8 503 8 z"},"×":{"ha":399,"x_min":38,"x_max":360,"o":"m 199 -371 l 342 -514 l 360 -496 l 217 -353 l 360 -210 l 342 -192 l 199 -335 l 56 -192 l 38 -210 l 181 -353 l 38 -496 l 56 -514 l 199 -371 z"},"÷":{"ha":399,"x_min":33,"x_max":365,"o":"m 365 -340 l 33 -340 l 33 -366 l 365 -366 l 365 -340 z m 199 -140 l 199 -140 q 183 -140 179 -150 q 174 -161 174 -174 l 174 -174 q 174 -191 180 -201 q 186 -211 199 -211 l 199 -211 q 214 -211 219 -200 q 224 -190 224 -176 l 224 -176 q 224 -161 219 -150 q 214 -140 199 -140 z m 199 -494 l 199 -494 q 184 -494 179 -504 q 174 -515 174 -530 l 174 -530 q 174 -544 179 -554 q 184 -565 199 -565 l 199 -565 q 214 -565 219 -554 q 224 -544 224 -529 l 224 -529 q 224 -514 219 -504 q 214 -494 199 -494 z"},"−":{"ha":399,"x_min":33,"x_max":365,"o":"m 365 -341 l 33 -341 l 33 -367 l 365 -367 l 365 -341 z"},"₹":{"ha":399,"x_min":51,"x_max":357,"o":"m 262 0 l 232 0 l 55 -314 l 57 -337 l 69 -337 q 107 -337 133 -346 q 158 -356 174 -373 l 174 -373 q 196 -396 204 -431 q 211 -467 211 -513 l 211 -513 q 211 -556 203 -594 q 194 -632 168 -657 l 168 -657 q 152 -672 128 -680 q 104 -689 69 -689 l 69 -689 l 51 -689 l 51 -714 l 357 -714 l 357 -689 l 161 -689 q 196 -672 217 -634 q 237 -596 237 -513 l 237 -513 q 237 -448 221 -404 q 204 -360 169 -337 q 134 -315 77 -312 l 77 -312 l 81 -321 l 262 0 z m 357 -501 l 51 -501 l 51 -526 l 357 -526 l 357 -501 z"},"꠰":{"ha":168,"x_min":71,"x_max":97,"o":"m 71 0 l 71 -546 l 97 -546 l 97 0 l 71 0 z"},"꠱":{"ha":306,"x_min":71,"x_max":235,"o":"m 71 0 l 71 -546 l 97 -546 l 97 0 l 71 0 z m 209 0 l 209 -546 l 235 -546 l 235 0 l 209 0 z"},"꠲":{"ha":444,"x_min":71,"x_max":373,"o":"m 71 0 l 71 -546 l 97 -546 l 97 0 l 71 0 z m 209 0 l 209 -546 l 235 -546 l 235 0 l 209 0 z m 347 0 l 347 -546 l 373 -546 l 373 0 l 347 0 z"},"॑":{"ha":0,"x_min":-292,"x_max":-266,"o":"m -292 -653 l -292 -864 l -266 -864 l -266 -653 l -292 -653 z"},"॒":{"ha":0,"x_min":-440,"x_max":-118,"o":"m -118 132 l -118 157 l -440 157 l -440 132 l -118 132 z"},"।":{"ha":245,"x_min":146,"x_max":172,"o":"m 172 49 l 146 49 l 146 -595 l 172 -595 l 172 49 z"},"॥":{"ha":395,"x_min":146,"x_max":322,"o":"m 322 49 l 296 49 l 296 -595 l 322 -595 l 322 49 z m 172 49 l 146 49 l 146 -595 l 172 -595 l 172 49 z"},"᳚":{"ha":0,"x_min":-338,"x_max":-219,"o":"m -338 -653 l -338 -864 l -312 -864 l -312 -653 l -338 -653 z m -245 -653 l -245 -864 l -219 -864 l -219 -653 l -245 -653 z"},"̇":{"ha":0,"x_min":-304,"x_max":-252,"o":"m -304 -701 l -304 -701 q -304 -713 -299 -722 q -294 -732 -279 -732 l -279 -732 q -261 -732 -256 -722 q -252 -713 -252 -701 l -252 -701 q -252 -688 -256 -679 q -261 -670 -279 -670 l -279 -670 q -294 -670 -299 -679 q -304 -688 -304 -701 z"},"̣":{"ha":0,"x_min":-304,"x_max":-252,"o":"m -304 135 l -304 135 q -304 123 -299 114 q -294 104 -279 104 l -279 104 q -261 104 -256 114 q -252 123 -252 135 l -252 135 q -252 148 -256 157 q -261 166 -279 166 l -279 166 q -294 166 -299 157 q -304 148 -304 135 z"},"‐":{"ha":304,"x_min":38,"x_max":266,"o":"m 266 -256 l 38 -256 l 38 -282 l 266 -282 l 266 -256 z"},"​":{"ha":0,"x_min":0,"x_max":0,"o":""},"‌":{"ha":0,"x_min":0,"x_max":0,"o":""},"‍":{"ha":0,"x_min":-161,"x_max":161,"o":"m 29 244 l -29 244 l -29 -565 l -121 -474 l -161 -514 l -40 -631 l -161 -748 l -121 -788 l 0 -669 l 121 -788 l 161 -748 l 40 -631 l 161 -514 l 121 -474 l 29 -565 l 29 244 z"},"◌":{"ha":562,"x_min":57,"x_max":504,"o":"m 89 -231 l 89 -231 q 57 -231 57 -264 l 57 -264 q 57 -295 89 -295 l 89 -295 q 121 -295 121 -264 l 121 -264 q 121 -231 89 -231 z m 138 -95 l 138 -95 q 106 -95 106 -127 l 106 -127 q 106 -158 138 -158 l 138 -158 q 169 -158 169 -127 l 169 -127 q 169 -95 138 -95 z m 281 -40 l 281 -40 q 249 -40 249 -72 l 249 -72 q 249 -104 281 -104 l 281 -104 q 312 -104 312 -72 l 312 -72 q 312 -40 281 -40 z m 138 -369 l 138 -369 q 106 -369 106 -401 l 106 -401 q 106 -432 138 -432 l 138 -432 q 169 -432 169 -401 l 169 -401 q 169 -369 138 -369 z m 423 -95 l 423 -95 q 391 -95 391 -127 l 391 -127 q 391 -158 423 -158 l 423 -158 q 455 -158 455 -127 l 455 -127 q 455 -95 423 -95 z m 281 -424 l 281 -424 q 249 -424 249 -456 l 249 -456 q 249 -487 281 -487 l 281 -487 q 312 -487 312 -456 l 312 -456 q 312 -424 281 -424 z m 472 -231 l 472 -231 q 441 -231 441 -264 l 441 -264 q 441 -295 472 -295 l 472 -295 q 504 -295 504 -264 l 504 -264 q 504 -231 472 -231 z m 423 -369 l 423 -369 q 391 -369 391 -401 l 391 -401 q 391 -432 423 -432 l 423 -432 q 455 -432 455 -401 l 455 -401 q 455 -369 423 -369 z"},"«":{"ha":408,"x_min":40,"x_max":369,"o":"m 40 -271 l 40 -284 l 181 -459 l 198 -449 l 75 -278 l 199 -108 l 181 -98 l 40 -271 z m 210 -271 l 210 -284 l 351 -459 l 368 -449 l 245 -278 l 369 -108 l 351 -98 l 210 -271 z"},"»":{"ha":397,"x_min":40,"x_max":358,"o":"m 358 -284 l 358 -271 l 217 -98 l 199 -108 l 323 -278 l 199 -449 l 217 -459 l 358 -284 z m 199 -284 l 199 -271 l 58 -98 l 40 -108 l 164 -278 l 40 -449 l 58 -459 l 199 -284 z"},"̈":{"ha":0,"x_min":-96,"x_max":95,"o":"m -96 -663 l -96 -663 q -96 -676 -89 -686 q -83 -696 -71 -696 l -71 -696 q -60 -696 -53 -686 q -47 -677 -47 -663 l -47 -663 q -47 -649 -53 -640 q -60 -631 -71 -631 l -71 -631 q -83 -631 -89 -640 q -96 -650 -96 -663 z m 45 -664 l 45 -664 q 45 -677 52 -686 q 59 -696 70 -696 l 70 -696 q 81 -696 88 -687 q 95 -678 95 -664 l 95 -664 q 95 -650 88 -640 q 81 -631 70 -631 l 70 -631 q 59 -631 52 -641 q 45 -651 45 -664 z"},"̀":{"ha":0,"x_min":-401,"x_max":-256,"o":"m -401 -763 l -370 -763 q -352 -736 -333 -711 q -315 -686 -295 -663 q -275 -640 -256 -617 l -256 -617 l -256 -606 l -272 -606 q -286 -620 -303 -638 q -321 -656 -338 -676 q -356 -696 -372 -716 q -389 -737 -401 -756 l -401 -756 l -401 -763 z"},"́":{"ha":0,"x_min":-235,"x_max":-94,"o":"m -94 -763 l -94 -756 q -106 -738 -122 -717 q -138 -697 -155 -676 q -173 -656 -189 -638 q -206 -620 -221 -606 l -221 -606 l -235 -606 l -235 -618 q -212 -645 -193 -668 q -175 -691 -158 -714 q -141 -737 -124 -763 l -124 -763 l -94 -763 z"},"̋":{"ha":0,"x_min":-93,"x_max":146,"o":"m 146 -766 l 146 -759 q 140 -748 127 -728 q 114 -709 98 -686 q 81 -663 64 -642 q 47 -621 33 -606 l 33 -606 l 17 -606 l 17 -614 q 34 -635 54 -664 q 73 -693 91 -721 q 108 -749 117 -766 l 117 -766 l 146 -766 z m 36 -766 l 36 -759 q 30 -748 17 -728 q 4 -709 -12 -686 q -29 -663 -46 -642 q -63 -621 -77 -606 l -77 -606 l -93 -606 l -93 -614 q -75 -637 -55 -666 q -36 -695 -19 -722 q -3 -749 7 -766 l 7 -766 l 36 -766 z"},"̄":{"ha":0,"x_min":-111,"x_max":91,"o":"m -111 -641 l 91 -641 l 91 -617 l -111 -617 l -111 -641 z"},"˙":{"ha":131,"x_min":40,"x_max":91,"o":"m 66 -724 l 66 -724 q 80 -724 86 -713 q 91 -703 91 -691 l 91 -691 q 91 -675 84 -665 q 77 -656 65 -656 l 65 -656 q 52 -656 46 -666 q 40 -677 40 -690 l 40 -690 q 40 -702 46 -713 q 51 -724 66 -724 z"},"°":{"ha":358,"x_min":57,"x_max":300,"o":"m 179 -479 l 179 -479 q 145 -479 118 -494 q 90 -509 74 -536 q 57 -564 57 -602 l 57 -602 q 57 -640 74 -667 q 90 -694 118 -708 q 145 -723 178 -723 l 178 -723 q 211 -723 239 -708 q 266 -694 283 -667 q 300 -640 300 -601 l 300 -601 q 300 -564 284 -536 q 268 -509 241 -494 q 213 -479 179 -479 z m 178 -501 l 178 -501 q 220 -501 248 -529 q 276 -558 276 -602 l 276 -602 q 276 -646 249 -673 q 221 -701 177 -701 l 177 -701 q 134 -701 108 -673 q 81 -645 81 -602 l 81 -602 q 81 -556 110 -528 q 138 -501 178 -501 z"},"A":{"ha":377,"x_min":0,"x_max":377,"o":"m 377 0 l 351 0 l 284 -281 l 94 -281 l 26 0 l 0 0 l 170 -714 l 208 -714 l 377 0 z m 278 -306 l 208 -612 q 204 -629 201 -642 q 198 -655 195 -668 q 192 -681 189 -695 l 189 -695 q 186 -681 183 -668 q 180 -656 177 -642 q 174 -629 170 -612 l 170 -612 l 100 -306 l 278 -306 z"},"Á":{"ha":377,"x_min":0,"x_max":377,"o":"m 377 0 l 351 0 l 284 -281 l 94 -281 l 26 0 l 0 0 l 170 -714 l 208 -714 l 377 0 z m 278 -306 l 208 -612 q 204 -629 201 -642 q 198 -655 195 -668 q 192 -681 189 -695 l 189 -695 q 186 -681 183 -668 q 180 -656 177 -642 q 174 -629 170 -612 l 170 -612 l 100 -306 l 278 -306 z m 290 -950 l 290 -943 q 278 -925 262 -904 q 246 -884 229 -863 q 211 -843 195 -825 q 178 -807 163 -793 l 163 -793 l 149 -793 l 149 -805 q 172 -832 191 -855 q 209 -878 226 -901 q 243 -924 260 -950 l 260 -950 l 290 -950 z"},"Ă":{"ha":377,"x_min":0,"x_max":377,"o":"m 377 0 l 351 0 l 284 -281 l 94 -281 l 26 0 l 0 0 l 170 -714 l 208 -714 l 377 0 z m 278 -306 l 208 -612 q 204 -629 201 -642 q 198 -655 195 -668 q 192 -681 189 -695 l 189 -695 q 186 -681 183 -668 q 180 -656 177 -642 q 174 -629 170 -612 l 170 -612 l 100 -306 l 278 -306 z m 266 -901 l 289 -901 q 288 -870 276 -846 q 263 -823 241 -810 q 219 -797 189 -797 l 189 -797 q 149 -797 121 -823 q 92 -849 90 -901 l 90 -901 l 113 -901 q 114 -877 124 -859 q 133 -841 150 -831 q 167 -821 190 -821 l 190 -821 q 214 -821 231 -831 q 247 -841 256 -859 q 265 -878 266 -901 l 266 -901 z"},"Â":{"ha":377,"x_min":0,"x_max":377,"o":"m 377 0 l 351 0 l 284 -281 l 94 -281 l 26 0 l 0 0 l 170 -714 l 208 -714 l 377 0 z m 278 -306 l 208 -612 q 204 -629 201 -642 q 198 -655 195 -668 q 192 -681 189 -695 l 189 -695 q 186 -681 183 -668 q 180 -656 177 -642 q 174 -629 170 -612 l 170 -612 l 100 -306 l 278 -306 z m 174 -950 l 204 -950 q 217 -927 236 -895 q 254 -863 271 -836 q 287 -810 293 -800 l 293 -800 l 293 -793 l 278 -793 q 257 -819 233 -854 q 209 -890 189 -920 l 189 -920 q 170 -892 146 -855 q 121 -818 101 -793 l 101 -793 l 85 -793 l 85 -800 q 96 -816 112 -843 q 128 -870 145 -899 q 162 -928 174 -950 l 174 -950 z"},"Ä":{"ha":377,"x_min":0,"x_max":377,"o":"m 377 0 l 351 0 l 284 -281 l 94 -281 l 26 0 l 0 0 l 170 -714 l 208 -714 l 377 0 z m 278 -306 l 208 -612 q 204 -629 201 -642 q 198 -655 195 -668 q 192 -681 189 -695 l 189 -695 q 186 -681 183 -668 q 180 -656 177 -642 q 174 -629 170 -612 l 170 -612 l 100 -306 l 278 -306 z m 94 -850 l 94 -850 q 94 -863 101 -873 q 107 -883 119 -883 l 119 -883 q 130 -883 137 -873 q 143 -864 143 -850 l 143 -850 q 143 -836 137 -827 q 130 -818 119 -818 l 119 -818 q 107 -818 101 -827 q 94 -837 94 -850 z m 235 -851 l 235 -851 q 235 -864 242 -873 q 249 -883 260 -883 l 260 -883 q 271 -883 278 -874 q 285 -865 285 -851 l 285 -851 q 285 -837 278 -827 q 271 -818 260 -818 l 260 -818 q 249 -818 242 -828 q 235 -838 235 -851 z"},"À":{"ha":377,"x_min":0,"x_max":377,"o":"m 377 0 l 351 0 l 284 -281 l 94 -281 l 26 0 l 0 0 l 170 -714 l 208 -714 l 377 0 z m 278 -306 l 208 -612 q 204 -629 201 -642 q 198 -655 195 -668 q 192 -681 189 -695 l 189 -695 q 186 -681 183 -668 q 180 -656 177 -642 q 174 -629 170 -612 l 170 -612 l 100 -306 l 278 -306 z m 117 -950 l 148 -950 q 166 -923 185 -898 q 203 -873 223 -850 q 243 -827 262 -804 l 262 -804 l 262 -793 l 246 -793 q 232 -807 215 -825 q 197 -843 180 -863 q 162 -883 146 -903 q 129 -924 117 -943 l 117 -943 l 117 -950 z"},"Ā":{"ha":377,"x_min":0,"x_max":377,"o":"m 377 0 l 351 0 l 284 -281 l 94 -281 l 26 0 l 0 0 l 170 -714 l 208 -714 l 377 0 z m 278 -306 l 208 -612 q 204 -629 201 -642 q 198 -655 195 -668 q 192 -681 189 -695 l 189 -695 q 186 -681 183 -668 q 180 -656 177 -642 q 174 -629 170 -612 l 170 -612 l 100 -306 l 278 -306 z m 88 -828 l 290 -828 l 290 -804 l 88 -804 l 88 -828 z"},"Ą":{"ha":377,"x_min":0,"x_max":380,"o":"m 377 0 l 351 0 l 284 -281 l 94 -281 l 26 0 l 0 0 l 170 -714 l 208 -714 l 377 0 z m 278 -306 l 208 -612 q 204 -629 201 -642 q 198 -655 195 -668 q 192 -681 189 -695 l 189 -695 q 186 -681 183 -668 q 180 -656 177 -642 q 174 -629 170 -612 l 170 -612 l 100 -306 l 278 -306 z m 301 136 l 301 136 q 301 164 313 179 q 324 193 346 193 l 346 193 q 355 193 366 191 q 376 189 380 188 l 380 188 l 380 211 q 374 213 365 215 q 356 217 345 217 l 345 217 q 312 217 293 197 q 274 177 274 140 l 274 140 q 274 113 284 87 q 294 61 313 37 q 332 13 357 -9 l 357 -9 l 377 0 q 338 36 320 68 q 301 100 301 136 z"},"Å":{"ha":377,"x_min":0,"x_max":377,"o":"m 377 0 l 351 0 l 284 -281 l 94 -281 l 26 0 l 0 0 l 170 -714 l 208 -714 l 377 0 z m 278 -306 l 208 -612 q 204 -629 201 -642 q 198 -655 195 -668 q 192 -681 189 -695 l 189 -695 q 186 -681 183 -668 q 180 -656 177 -642 q 174 -629 170 -612 l 170 -612 l 100 -306 l 278 -306 z m 189 -699 l 189 -699 q 153 -699 127 -721 q 101 -744 101 -785 l 101 -785 q 101 -826 126 -848 q 151 -871 187 -871 l 187 -871 q 225 -871 250 -847 q 275 -824 275 -784 l 275 -784 q 275 -745 251 -722 q 227 -699 189 -699 z m 189 -721 l 189 -721 q 218 -721 235 -738 q 252 -756 252 -784 l 252 -784 q 252 -813 235 -831 q 217 -849 187 -849 l 187 -849 q 156 -849 140 -831 q 124 -813 124 -785 l 124 -785 q 124 -759 141 -740 q 157 -721 189 -721 z"},"Ã":{"ha":377,"x_min":0,"x_max":377,"o":"m 377 0 l 351 0 l 284 -281 l 94 -281 l 26 0 l 0 0 l 170 -714 l 208 -714 l 377 0 z m 278 -306 l 208 -612 q 204 -629 201 -642 q 198 -655 195 -668 q 192 -681 189 -695 l 189 -695 q 186 -681 183 -668 q 180 -656 177 -642 q 174 -629 170 -612 l 170 -612 l 100 -306 l 278 -306 z m 82 -804 l 59 -804 q 61 -828 67 -844 q 73 -861 83 -871 q 92 -882 104 -887 q 115 -892 128 -892 l 128 -892 q 149 -892 165 -882 q 180 -872 193 -859 q 206 -847 220 -837 q 233 -827 249 -827 l 249 -827 q 269 -827 282 -844 q 295 -862 297 -893 l 297 -893 l 319 -893 q 318 -847 298 -825 q 277 -804 249 -804 l 249 -804 q 228 -804 213 -814 q 197 -824 184 -836 q 170 -849 157 -859 q 144 -869 128 -869 l 128 -869 q 111 -869 98 -853 q 84 -838 82 -804 l 82 -804 z"},"Æ":{"ha":570,"x_min":0,"x_max":522,"o":"m 522 -25 l 522 0 l 227 0 l 227 -280 l 107 -280 l 29 0 l 0 0 l 202 -714 l 522 -714 l 522 -689 l 253 -689 l 253 -388 l 509 -388 l 509 -363 l 253 -363 l 253 -25 l 522 -25 z m 220 -688 l 112 -305 l 227 -305 l 227 -688 l 220 -688 z"},"B":{"ha":430,"x_min":78,"x_max":391,"o":"m 78 -714 l 217 -714 q 297 -714 337 -673 q 376 -632 376 -550 l 376 -550 q 376 -504 364 -467 q 352 -431 330 -407 q 307 -384 274 -377 l 274 -377 l 274 -376 q 315 -366 341 -342 q 366 -318 379 -281 q 391 -245 391 -197 l 391 -197 q 391 -136 372 -92 q 353 -48 316 -24 q 278 0 224 0 l 224 0 l 78 0 l 78 -714 z m 104 -388 l 210 -388 q 278 -388 314 -428 q 349 -468 349 -550 l 349 -550 q 349 -621 318 -655 q 286 -689 203 -689 l 203 -689 l 104 -689 l 104 -388 z m 213 -363 l 104 -363 l 104 -25 l 217 -25 q 285 -25 325 -67 q 364 -110 364 -198 l 364 -198 q 364 -260 345 -296 q 325 -332 291 -347 q 257 -363 213 -363 l 213 -363 z"}}}
